<?xml version="1.0" encoding="utf-8"?>
<!-- Generator: Adobe Illustrator 24.0.0, SVG Export Plug-In . SVG Version: 6.00 Build 0)  -->
<svg version="1.1" id="Laag_1" xmlns="http://www.w3.org/2000/svg" xmlns:xlink="http://www.w3.org/1999/xlink" x="0px" y="0px"
	 viewBox="0 0 52 52" style="enable-background:new 0 0 52 52;" xml:space="preserve">
<style type="text/css">
	.st0{fill:#EAD79C;}
	.st1{fill:#DBC689;}
</style>
<rect class="st0" width="52" height="52"/>
<path class="st1" d="M26.3,10.19c-8.49,0-15.4,6.91-15.4,15.4c0,8.49,6.91,15.4,15.4,15.4s15.4-6.91,15.4-15.4
	C41.7,17.1,34.79,10.19,26.3,10.19z M38.64,25.6c0,2.75-0.9,5.28-2.42,7.34l-8.39-9.62v-9.97C33.91,14.1,38.64,19.31,38.64,25.6z
	 M24.77,37.85c-2.3-0.29-4.41-1.21-6.15-2.59l6.15-7.22V37.85z M27.82,27.97l6.27,7.19c-1.76,1.44-3.91,2.4-6.27,2.69V27.97z
	 M24.77,13.35v9.98l-8.29,9.74c-1.58-2.08-2.52-4.66-2.52-7.47C13.95,19.31,18.68,14.1,24.77,13.35z"/>
</svg>
