<?xml version="1.0" encoding="utf-8"?>
<!-- Generator: Adobe Illustrator 23.1.0, SVG Export Plug-In . SVG Version: 6.00 Build 0)  -->
<svg version="1.1" id="Laag_1" xmlns="http://www.w3.org/2000/svg" xmlns:xlink="http://www.w3.org/1999/xlink" x="0px" y="0px"
	 viewBox="0 0 269 125" style="enable-background:new 0 0 269 125;" xml:space="preserve">
<style type="text/css">
	.st0{fill:#E47FEF;}
	.st1{fill:#EA1FE5;}
	.st2{fill:#FF50C6;}
	.st3{fill:#74FF43;}
</style>
<g>
	<ellipse class="st0" cx="134.5" cy="62" rx="131.5" ry="60"/>
</g>
<g>
	<g>
		<g>
			<path class="st1" d="M34.6,45.5c0,1.9-8.5,3.4-10.4,3.4c-1.9,0-3.4-1.5-3.4-3.4s1.5-3.4,3.4-3.4C26.1,42.1,34.6,43.6,34.6,45.5z"
				/>
		</g>
		<g>
			<path class="st2" d="M34.6,45.5c-1.3,1.3-8.4-3.6-9.7-4.9c-1.3-1.3-1.3-3.5,0-4.8c1.3-1.3,3.5-1.3,4.8,0
				C30.9,37,35.9,44.1,34.6,45.5z"/>
		</g>
		<g>
			<path class="st1" d="M34.5,45.4c-1.9,0-3.4-8.5-3.4-10.4c0-1.9,1.5-3.4,3.4-3.4c1.9,0,3.4,1.5,3.4,3.4
				C37.9,36.9,36.4,45.4,34.5,45.4z"/>
		</g>
		<g>
			<path class="st2" d="M34.6,45.3c-1.3-1.3,3.6-8.4,4.9-9.7c1.3-1.3,3.5-1.3,4.8,0c1.3,1.3,1.3,3.5,0,4.8
				C43,41.7,35.9,46.6,34.6,45.3z"/>
		</g>
		<g>
			<path class="st1" d="M34.6,45.3c0-1.9,8.5-3.4,10.4-3.4c1.9,0,3.4,1.5,3.4,3.4c0,1.9-1.5,3.4-3.4,3.4
				C43.2,48.7,34.6,47.1,34.6,45.3z"/>
		</g>
		<g>
			<path class="st2" d="M34.7,45.3c1.3-1.3,8.4,3.6,9.7,4.9c1.3,1.3,1.3,3.5,0,4.8c-1.3,1.3-3.5,1.3-4.8,0
				C38.3,53.7,33.4,46.6,34.7,45.3z"/>
		</g>
		<g>
			<path class="st1" d="M34.7,45.4c1.9,0,3.4,8.5,3.4,10.4c0,1.9-1.5,3.4-3.4,3.4c-1.9,0-3.4-1.5-3.4-3.4
				C31.4,53.9,32.9,45.4,34.7,45.4z"/>
		</g>
		<g>
			<path class="st2" d="M34.7,45.5c1.3,1.3-3.6,8.4-4.9,9.7c-1.3,1.3-3.5,1.3-4.8,0c-1.3-1.3-1.3-3.5,0-4.8
				C26.3,49.1,33.4,44.1,34.7,45.5z"/>
		</g>
	</g>
	<g>
		<path class="st3" d="M37.7,45.4c0,1.7-1.4,3.1-3.1,3.1c-1.7,0-3.1-1.4-3.1-3.1c0-1.7,1.4-3.1,3.1-3.1
			C36.3,42.3,37.7,43.7,37.7,45.4z"/>
	</g>
</g>
<g>
	<g>
		<g>
			<path class="st1" d="M65.6,28.5c0,1.9-8.5,3.4-10.4,3.4c-1.9,0-3.4-1.5-3.4-3.4c0-1.9,1.5-3.4,3.4-3.4
				C57.1,25.1,65.6,26.6,65.6,28.5z"/>
		</g>
		<g>
			<path class="st2" d="M65.6,28.5c-1.3,1.3-8.4-3.6-9.7-4.9c-1.3-1.3-1.3-3.5,0-4.8c1.3-1.3,3.5-1.3,4.8,0
				C61.9,20,66.9,27.1,65.6,28.5z"/>
		</g>
		<g>
			<path class="st1" d="M65.5,28.4c-1.9,0-3.4-8.5-3.4-10.4c0-1.9,1.5-3.4,3.4-3.4c1.9,0,3.4,1.5,3.4,3.4
				C68.9,19.9,67.4,28.4,65.5,28.4z"/>
		</g>
		<g>
			<path class="st2" d="M65.6,28.3c-1.3-1.3,3.6-8.4,4.9-9.7c1.3-1.3,3.5-1.3,4.8,0c1.3,1.3,1.3,3.5,0,4.8
				C74,24.7,66.9,29.6,65.6,28.3z"/>
		</g>
		<g>
			<path class="st1" d="M65.6,28.3c0-1.9,8.5-3.4,10.4-3.4c1.9,0,3.4,1.5,3.4,3.4c0,1.9-1.5,3.4-3.4,3.4
				C74.2,31.7,65.6,30.1,65.6,28.3z"/>
		</g>
		<g>
			<path class="st2" d="M65.7,28.3c1.3-1.3,8.4,3.6,9.7,4.9c1.3,1.3,1.3,3.5,0,4.8c-1.3,1.3-3.5,1.3-4.8,0
				C69.3,36.7,64.4,29.6,65.7,28.3z"/>
		</g>
		<g>
			<path class="st1" d="M65.7,28.4c1.9,0,3.4,8.5,3.4,10.4c0,1.9-1.5,3.4-3.4,3.4c-1.9,0-3.4-1.5-3.4-3.4
				C62.4,36.9,63.9,28.4,65.7,28.4z"/>
		</g>
		<g>
			<path class="st2" d="M65.7,28.5c1.3,1.3-3.6,8.4-4.9,9.7c-1.3,1.3-3.5,1.3-4.8,0c-1.3-1.3-1.3-3.5,0-4.8
				C57.3,32.1,64.4,27.1,65.7,28.5z"/>
		</g>
	</g>
	<g>
		<path class="st3" d="M68.7,28.4c0,1.7-1.4,3.1-3.1,3.1s-3.1-1.4-3.1-3.1c0-1.7,1.4-3.1,3.1-3.1S68.7,26.7,68.7,28.4z"/>
	</g>
</g>
<g>
	<g>
		<g>
			<path class="st1" d="M100.6,21.5c0,1.9-8.5,3.4-10.4,3.4c-1.9,0-3.4-1.5-3.4-3.4c0-1.9,1.5-3.4,3.4-3.4
				C92.1,18.1,100.6,19.6,100.6,21.5z"/>
		</g>
		<g>
			<path class="st2" d="M100.6,21.5c-1.3,1.3-8.4-3.6-9.7-4.9c-1.3-1.3-1.3-3.5,0-4.8c1.3-1.3,3.5-1.3,4.8,0
				C96.9,13,101.9,20.1,100.6,21.5z"/>
		</g>
		<g>
			<path class="st1" d="M100.5,21.4c-1.9,0-3.4-8.5-3.4-10.4c0-1.9,1.5-3.4,3.4-3.4c1.9,0,3.4,1.5,3.4,3.4
				C103.9,12.9,102.4,21.4,100.5,21.4z"/>
		</g>
		<g>
			<path class="st2" d="M100.6,21.3c-1.3-1.3,3.6-8.4,4.9-9.7c1.3-1.3,3.5-1.3,4.8,0c1.3,1.3,1.3,3.5,0,4.8
				C109,17.7,101.9,22.6,100.6,21.3z"/>
		</g>
		<g>
			<path class="st1" d="M100.6,21.3c0-1.9,8.5-3.4,10.4-3.4c1.9,0,3.4,1.5,3.4,3.4c0,1.9-1.5,3.4-3.4,3.4
				C109.2,24.7,100.6,23.1,100.6,21.3z"/>
		</g>
		<g>
			<path class="st2" d="M100.7,21.3c1.3-1.3,8.4,3.6,9.7,4.9c1.3,1.3,1.3,3.5,0,4.8c-1.3,1.3-3.5,1.3-4.8,0
				C104.3,29.7,99.4,22.6,100.7,21.3z"/>
		</g>
		<g>
			<path class="st1" d="M100.7,21.4c1.9,0,3.4,8.5,3.4,10.4c0,1.9-1.5,3.4-3.4,3.4c-1.9,0-3.4-1.5-3.4-3.4
				C97.4,29.9,98.9,21.4,100.7,21.4z"/>
		</g>
		<g>
			<path class="st2" d="M100.7,21.5c1.3,1.3-3.6,8.4-4.9,9.7c-1.3,1.3-3.5,1.3-4.8,0c-1.3-1.3-1.3-3.5,0-4.8
				C92.3,25.1,99.4,20.1,100.7,21.5z"/>
		</g>
	</g>
	<g>
		<path class="st3" d="M103.7,21.4c0,1.7-1.4,3.1-3.1,3.1s-3.1-1.4-3.1-3.1c0-1.7,1.4-3.1,3.1-3.1S103.7,19.7,103.7,21.4z"/>
	</g>
</g>
<g>
	<g>
		<g>
			<path class="st1" d="M137.6,19.5c0,1.9-8.5,3.4-10.4,3.4c-1.9,0-3.4-1.5-3.4-3.4c0-1.9,1.5-3.4,3.4-3.4
				C129.1,16.1,137.6,17.6,137.6,19.5z"/>
		</g>
		<g>
			<path class="st2" d="M137.6,19.5c-1.3,1.3-8.4-3.6-9.7-4.9c-1.3-1.3-1.3-3.5,0-4.8c1.3-1.3,3.5-1.3,4.8,0
				C133.9,11,138.9,18.1,137.6,19.5z"/>
		</g>
		<g>
			<path class="st1" d="M137.5,19.4c-1.9,0-3.4-8.5-3.4-10.4c0-1.9,1.5-3.4,3.4-3.4c1.9,0,3.4,1.5,3.4,3.4
				C140.9,10.9,139.4,19.4,137.5,19.4z"/>
		</g>
		<g>
			<path class="st2" d="M137.6,19.3c-1.3-1.3,3.6-8.4,4.9-9.7c1.3-1.3,3.5-1.3,4.8,0c1.3,1.3,1.3,3.5,0,4.8
				C146,15.7,138.9,20.6,137.6,19.3z"/>
		</g>
		<g>
			<path class="st1" d="M137.6,19.3c0-1.9,8.5-3.4,10.4-3.4c1.9,0,3.4,1.5,3.4,3.4c0,1.9-1.5,3.4-3.4,3.4
				C146.2,22.7,137.6,21.1,137.6,19.3z"/>
		</g>
		<g>
			<path class="st2" d="M137.7,19.3c1.3-1.3,8.4,3.6,9.7,4.9c1.3,1.3,1.3,3.5,0,4.8c-1.3,1.3-3.5,1.3-4.8,0
				C141.3,27.7,136.4,20.6,137.7,19.3z"/>
		</g>
		<g>
			<path class="st1" d="M137.7,19.4c1.9,0,3.4,8.5,3.4,10.4c0,1.9-1.5,3.4-3.4,3.4c-1.9,0-3.4-1.5-3.4-3.4
				C134.4,27.9,135.9,19.4,137.7,19.4z"/>
		</g>
		<g>
			<path class="st2" d="M137.7,19.5c1.3,1.3-3.6,8.4-4.9,9.7c-1.3,1.3-3.5,1.3-4.8,0c-1.3-1.3-1.3-3.5,0-4.8
				C129.3,23.1,136.4,18.1,137.7,19.5z"/>
		</g>
	</g>
	<g>
		<path class="st3" d="M140.7,19.4c0,1.7-1.4,3.1-3.1,3.1c-1.7,0-3.1-1.4-3.1-3.1c0-1.7,1.4-3.1,3.1-3.1
			C139.3,16.3,140.7,17.7,140.7,19.4z"/>
	</g>
</g>
<g>
	<g>
		<g>
			<path class="st1" d="M208.6,32.5c0,1.9-8.5,3.4-10.4,3.4c-1.9,0-3.4-1.5-3.4-3.4s1.5-3.4,3.4-3.4
				C200.1,29.1,208.6,30.6,208.6,32.5z"/>
		</g>
		<g>
			<path class="st2" d="M208.6,32.5c-1.3,1.3-8.4-3.6-9.7-4.9c-1.3-1.3-1.3-3.5,0-4.8c1.3-1.3,3.5-1.3,4.8,0
				C204.9,24,209.9,31.1,208.6,32.5z"/>
		</g>
		<g>
			<path class="st1" d="M208.5,32.4c-1.9,0-3.4-8.5-3.4-10.4c0-1.9,1.5-3.4,3.4-3.4c1.9,0,3.4,1.5,3.4,3.4
				C211.9,23.9,210.4,32.4,208.5,32.4z"/>
		</g>
		<g>
			<path class="st2" d="M208.6,32.3c-1.3-1.3,3.6-8.4,4.9-9.7c1.3-1.3,3.5-1.3,4.8,0c1.3,1.3,1.3,3.5,0,4.8
				C217,28.7,209.9,33.6,208.6,32.3z"/>
		</g>
		<g>
			<path class="st1" d="M208.6,32.3c0-1.9,8.5-3.4,10.4-3.4c1.9,0,3.4,1.5,3.4,3.4c0,1.9-1.5,3.4-3.4,3.4
				C217.2,35.7,208.6,34.1,208.6,32.3z"/>
		</g>
		<g>
			<path class="st2" d="M208.7,32.3c1.3-1.3,8.4,3.6,9.7,4.9c1.3,1.3,1.3,3.5,0,4.8c-1.3,1.3-3.5,1.3-4.8,0
				C212.3,40.7,207.4,33.6,208.7,32.3z"/>
		</g>
		<g>
			<path class="st1" d="M208.7,32.4c1.9,0,3.4,8.5,3.4,10.4c0,1.9-1.5,3.4-3.4,3.4c-1.9,0-3.4-1.5-3.4-3.4
				C205.4,40.9,206.9,32.4,208.7,32.4z"/>
		</g>
		<g>
			<path class="st2" d="M208.7,32.5c1.3,1.3-3.6,8.4-4.9,9.7c-1.3,1.3-3.5,1.3-4.8,0c-1.3-1.3-1.3-3.5,0-4.8
				C200.3,36.1,207.4,31.1,208.7,32.5z"/>
		</g>
	</g>
	<g>
		<path class="st3" d="M211.7,32.4c0,1.7-1.4,3.1-3.1,3.1c-1.7,0-3.1-1.4-3.1-3.1c0-1.7,1.4-3.1,3.1-3.1
			C210.3,29.3,211.7,30.7,211.7,32.4z"/>
	</g>
</g>
<g>
	<g>
		<g>
			<path class="st1" d="M236.6,48.5c0,1.9-8.5,3.4-10.4,3.4c-1.9,0-3.4-1.5-3.4-3.4s1.5-3.4,3.4-3.4
				C228.1,45.1,236.6,46.6,236.6,48.5z"/>
		</g>
		<g>
			<path class="st2" d="M236.6,48.5c-1.3,1.3-8.4-3.6-9.7-4.9c-1.3-1.3-1.3-3.5,0-4.8c1.3-1.3,3.5-1.3,4.8,0
				C232.9,40,237.9,47.1,236.6,48.5z"/>
		</g>
		<g>
			<path class="st1" d="M236.5,48.4c-1.9,0-3.4-8.5-3.4-10.4c0-1.9,1.5-3.4,3.4-3.4c1.9,0,3.4,1.5,3.4,3.4
				C239.9,39.9,238.4,48.4,236.5,48.4z"/>
		</g>
		<g>
			<path class="st2" d="M236.6,48.3c-1.3-1.3,3.6-8.4,4.9-9.7c1.3-1.3,3.5-1.3,4.8,0c1.3,1.3,1.3,3.5,0,4.8
				C245,44.7,237.9,49.6,236.6,48.3z"/>
		</g>
		<g>
			<path class="st1" d="M236.6,48.3c0-1.9,8.5-3.4,10.4-3.4c1.9,0,3.4,1.5,3.4,3.4c0,1.9-1.5,3.4-3.4,3.4
				C245.2,51.7,236.6,50.1,236.6,48.3z"/>
		</g>
		<g>
			<path class="st2" d="M236.7,48.3c1.3-1.3,8.4,3.6,9.7,4.9c1.3,1.3,1.3,3.5,0,4.8c-1.3,1.3-3.5,1.3-4.8,0
				C240.3,56.7,235.4,49.6,236.7,48.3z"/>
		</g>
		<g>
			<path class="st1" d="M236.7,48.4c1.9,0,3.4,8.5,3.4,10.4c0,1.9-1.5,3.4-3.4,3.4c-1.9,0-3.4-1.5-3.4-3.4
				C233.4,56.9,234.9,48.4,236.7,48.4z"/>
		</g>
		<g>
			<path class="st2" d="M236.7,48.5c1.3,1.3-3.6,8.4-4.9,9.7c-1.3,1.3-3.5,1.3-4.8,0c-1.3-1.3-1.3-3.5,0-4.8
				C228.3,52.1,235.4,47.1,236.7,48.5z"/>
		</g>
	</g>
	<g>
		<path class="st3" d="M239.7,48.4c0,1.7-1.4,3.1-3.1,3.1c-1.7,0-3.1-1.4-3.1-3.1c0-1.7,1.4-3.1,3.1-3.1
			C238.3,45.3,239.7,46.7,239.7,48.4z"/>
	</g>
</g>
<g>
	<g>
		<g>
			<path class="st1" d="M175.6,23.5c0,1.9-8.5,3.4-10.4,3.4c-1.9,0-3.4-1.5-3.4-3.4c0-1.9,1.5-3.4,3.4-3.4
				C167.1,20.1,175.6,21.6,175.6,23.5z"/>
		</g>
		<g>
			<path class="st2" d="M175.6,23.5c-1.3,1.3-8.4-3.6-9.7-4.9c-1.3-1.3-1.3-3.5,0-4.8c1.3-1.3,3.5-1.3,4.8,0
				C171.9,15,176.9,22.1,175.6,23.5z"/>
		</g>
		<g>
			<path class="st1" d="M175.5,23.4c-1.9,0-3.4-8.5-3.4-10.4c0-1.9,1.5-3.4,3.4-3.4c1.9,0,3.4,1.5,3.4,3.4
				C178.9,14.9,177.4,23.4,175.5,23.4z"/>
		</g>
		<g>
			<path class="st2" d="M175.6,23.3c-1.3-1.3,3.6-8.4,4.9-9.7c1.3-1.3,3.5-1.3,4.8,0c1.3,1.3,1.3,3.5,0,4.8
				C184,19.7,176.9,24.6,175.6,23.3z"/>
		</g>
		<g>
			<path class="st1" d="M175.6,23.3c0-1.9,8.5-3.4,10.4-3.4c1.9,0,3.4,1.5,3.4,3.4c0,1.9-1.5,3.4-3.4,3.4
				C184.2,26.7,175.6,25.1,175.6,23.3z"/>
		</g>
		<g>
			<path class="st2" d="M175.7,23.3c1.3-1.3,8.4,3.6,9.7,4.9c1.3,1.3,1.3,3.5,0,4.8c-1.3,1.3-3.5,1.3-4.8,0
				C179.3,31.7,174.4,24.6,175.7,23.3z"/>
		</g>
		<g>
			<path class="st1" d="M175.7,23.4c1.9,0,3.4,8.5,3.4,10.4c0,1.9-1.5,3.4-3.4,3.4c-1.9,0-3.4-1.5-3.4-3.4
				C172.4,31.9,173.9,23.4,175.7,23.4z"/>
		</g>
		<g>
			<path class="st2" d="M175.7,23.5c1.3,1.3-3.6,8.4-4.9,9.7c-1.3,1.3-3.5,1.3-4.8,0c-1.3-1.3-1.3-3.5,0-4.8
				C167.3,27.1,174.4,22.1,175.7,23.5z"/>
		</g>
	</g>
	<g>
		<path class="st3" d="M178.7,23.4c0,1.7-1.4,3.1-3.1,3.1c-1.7,0-3.1-1.4-3.1-3.1c0-1.7,1.4-3.1,3.1-3.1
			C177.3,20.3,178.7,21.7,178.7,23.4z"/>
	</g>
</g>
</svg>
