<?xml version="1.0" encoding="utf-8"?>
<!-- Generator: Adobe Illustrator 24.0.1, SVG Export Plug-In . SVG Version: 6.00 Build 0)  -->
<svg version="1.1" id="Laag_1" xmlns="http://www.w3.org/2000/svg" xmlns:xlink="http://www.w3.org/1999/xlink" x="0px" y="0px"
	 viewBox="0 0 380 60" style="enable-background:new 0 0 380 60;" xml:space="preserve">
<style type="text/css">
	.st0{fill:#4BD6E6;}
	.st1{fill:#34ABBB;}
	.st2{fill:#F8B900;}
	.st3{fill:#B0181D;}
	.st4{fill:#CA1A23;}
	.st5{fill:#E7A831;}
	.st6{fill:#64281F;}
	.st7{font-family:'ArialMT';}
	.st8{font-size:26.5075px;}
</style>
<g>
	<rect class="st0" width="380" height="60"/>
</g>
<g>
	<g>
		<g>
			<g>
				<g>
					<path class="st1" d="M327.2,49.6c0,0.7-0.5,2.7-1.2,2.7c-0.6,0-1.2-2-1.2-2.7c0-0.7,0.5-1.2,1.2-1.2S327.2,49,327.2,49.6z"/>
				</g>
				<g>
					<path class="st1" d="M324.4,49.9c0.5,0.5,1.5,2.3,1,2.7c-0.5,0.5-2.3-0.6-2.7-1c-0.5-0.5-0.5-1.2,0-1.7
						C323.2,49.4,323.9,49.4,324.4,49.9z"/>
				</g>
				<g>
					<path class="st1" d="M322.5,52c0.6,0,2.6,0.5,2.6,1.2c0,0.6-2,1.2-2.6,1.2c-0.6,0-1.2-0.5-1.2-1.2S321.9,52,322.5,52z"/>
				</g>
				<g>
					<path class="st1" d="M322.8,54.9c0.5-0.5,2.3-1.5,2.7-1c0.5,0.5-0.6,2.3-1,2.7c-0.5,0.5-1.2,0.5-1.6,0
						C322.3,56.1,322.3,55.4,322.8,54.9z"/>
				</g>
				<g>
					<path class="st1" d="M325,56.8c0-0.7,0.5-2.7,1.2-2.7s1.2,2,1.2,2.7c0,0.6-0.5,1.2-1.2,1.2S325,57.4,325,56.8z"/>
				</g>
				<g>
					<path class="st1" d="M327.8,56.5c-0.5-0.5-1.5-2.3-1-2.7c0.5-0.5,2.3,0.6,2.7,1c0.5,0.5,0.5,1.2,0,1.7
						C329,57,328.3,57,327.8,56.5z"/>
				</g>
				<g>
					<path class="st1" d="M329.7,54.3c-0.6,0-2.6-0.5-2.6-1.2s2-1.2,2.6-1.2c0.6,0,1.2,0.5,1.2,1.2
						C330.8,53.8,330.3,54.3,329.7,54.3z"/>
				</g>
				<g>
					<path class="st1" d="M329.4,51.5c-0.5,0.5-2.3,1.5-2.7,1c-0.5-0.5,0.6-2.3,1-2.7c0.5-0.5,1.2-0.5,1.6,0
						C329.9,50.3,329.9,51,329.4,51.5z"/>
				</g>
				<g>
					<path class="st1" d="M327.2,49.6c0,0.7-0.5,2.7-1.2,2.7c-0.6,0-1.2-2-1.2-2.7c0-0.7,0.5-1.2,1.2-1.2S327.2,49,327.2,49.6z"/>
				</g>
			</g>
			<path class="st2" d="M327.7,53.2c0,0.9-0.7,1.6-1.6,1.6c-0.9,0-1.6-0.7-1.6-1.6s0.7-1.6,1.6-1.6S327.7,52.3,327.7,53.2z"/>
		</g>
		<g>
			<g>
				<g>
					<path class="st3" d="M307.6,32.2c-0.3,0.7-1.6,2.6-2.3,2.3c-0.7-0.3-0.4-2.6-0.1-3.3c0.3-0.7,1-1,1.7-0.8
						C307.5,30.7,307.9,31.5,307.6,32.2z"/>
				</g>
				<g>
					<path class="st3" d="M304.5,31.3c0.3,0.7,0.7,3,0,3.3c-0.7,0.3-2.1-1.6-2.5-2.2c-0.3-0.7,0-1.5,0.7-1.8
						C303.4,30.3,304.1,30.6,304.5,31.3z"/>
				</g>
				<g>
					<path class="st3" d="M301.6,32.8c0.7,0.3,2.6,1.7,2.4,2.3c-0.3,0.7-2.6,0.4-3.3,0.2c-0.7-0.3-1-1-0.8-1.7
						C300.1,32.9,300.9,32.6,301.6,32.8z"/>
				</g>
				<g>
					<path class="st3" d="M300.7,36c0.7-0.3,3-0.7,3.3,0c0.3,0.7-1.6,2.2-2.2,2.5c-0.7,0.3-1.5,0-1.8-0.7
						C299.7,37.1,300,36.3,300.7,36z"/>
				</g>
				<g>
					<path class="st3" d="M302.2,38.9c0.3-0.7,1.6-2.6,2.3-2.3c0.7,0.3,0.4,2.6,0.1,3.3c-0.3,0.7-1,1-1.7,0.8
						C302.3,40.3,302,39.5,302.2,38.9z"/>
				</g>
				<g>
					<path class="st3" d="M305.4,39.8c-0.3-0.7-0.7-3,0-3.3c0.7-0.3,2.1,1.6,2.5,2.2c0.3,0.7,0,1.5-0.7,1.8
						C306.5,40.8,305.7,40.5,305.4,39.8z"/>
				</g>
				<g>
					<path class="st3" d="M308.3,38.2c-0.7-0.3-2.6-1.7-2.4-2.3c0.3-0.7,2.6-0.4,3.3-0.2c0.7,0.3,1,1,0.8,1.7
						C309.7,38.1,308.9,38.5,308.3,38.2z"/>
				</g>
				<g>
					<path class="st3" d="M309.2,35.1c-0.7,0.3-3,0.7-3.3,0c-0.3-0.7,1.6-2.2,2.2-2.5c0.7-0.3,1.5,0,1.8,0.7
						C310.1,34,309.8,34.8,309.2,35.1z"/>
				</g>
				<g>
					<path class="st3" d="M307.6,32.2c-0.3,0.7-1.6,2.6-2.3,2.3c-0.7-0.3-0.4-2.6-0.1-3.3c0.3-0.7,1-1,1.7-0.8
						C307.5,30.7,307.9,31.5,307.6,32.2z"/>
				</g>
			</g>
			<g>
				<g>
					<path class="st4" d="M306.2,31.5c0,0.7-0.6,3-1.3,3s-1.3-2.3-1.3-3c0-0.7,0.6-1.3,1.3-1.3S306.2,30.7,306.2,31.5z"/>
				</g>
				<g>
					<path class="st4" d="M303,31.7c0.5,0.5,1.7,2.6,1.2,3.1s-2.6-0.7-3.1-1.2s-0.5-1.4,0-1.9C301.6,31.2,302.4,31.2,303,31.7z"/>
				</g>
				<g>
					<path class="st4" d="M300.8,34.2c0.7,0,3,0.6,3,1.3c0,0.7-2.3,1.3-3,1.3c-0.7,0-1.3-0.6-1.3-1.3
						C299.5,34.8,300.1,34.2,300.8,34.2z"/>
				</g>
				<g>
					<path class="st4" d="M301.1,37.5c0.5-0.5,2.6-1.7,3.1-1.2s-0.7,2.6-1.2,3.1c-0.5,0.5-1.4,0.5-1.9,0
						C300.6,38.9,300.6,38,301.1,37.5z"/>
				</g>
				<g>
					<path class="st4" d="M303.6,39.6c0-0.7,0.6-3,1.3-3s1.3,2.3,1.3,3s-0.6,1.3-1.3,1.3C304.2,40.9,303.6,40.3,303.6,39.6z"/>
				</g>
				<g>
					<path class="st4" d="M306.9,39.3c-0.5-0.5-1.7-2.6-1.2-3.1s2.6,0.7,3.1,1.2s0.5,1.4,0,1.9C308.3,39.8,307.4,39.8,306.9,39.3z"
						/>
				</g>
				<g>
					<path class="st4" d="M309,36.8c-0.7,0-3-0.6-3-1.3s2.3-1.3,3-1.3c0.7,0,1.3,0.6,1.3,1.3C310.3,36.2,309.7,36.8,309,36.8z"/>
				</g>
				<g>
					<path class="st4" d="M308.7,33.6c-0.5,0.5-2.6,1.7-3.1,1.2s0.7-2.6,1.2-3.1c0.5-0.5,1.4-0.5,1.9,0
						C309.2,32.2,309.2,33,308.7,33.6z"/>
				</g>
				<g>
					<path class="st4" d="M306.2,31.5c0,0.7-0.6,3-1.3,3s-1.3-2.3-1.3-3c0-0.7,0.6-1.3,1.3-1.3S306.2,30.7,306.2,31.5z"/>
				</g>
			</g>
			<path class="st2" d="M307.1,35.5c0,1.2-1,2.1-2.1,2.1c-1.2,0-2.1-1-2.1-2.1s1-2.1,2.1-2.1C306.1,33.4,307.1,34.3,307.1,35.5z"/>
		</g>
		<g>
			<g>
				<g>
					<path class="st5" d="M326.7,5.9c1.1,1.6,1.7,5.3,0,6.4c-1.6,1.1-4.9-0.7-6-2.4c-1.1-1.6-0.7-3.9,1-5
						C323.3,3.8,325.6,4.3,326.7,5.9z"/>
				</g>
				<g>
					<path class="st5" d="M319.9,11.6c2-0.1,5.4,1.2,5.6,3.2s-3,3.8-5,4s-3.7-1.3-3.9-3.3S317.9,11.7,319.9,11.6z"/>
				</g>
				<g>
					<path class="st5" d="M321.3,20.3c0.9-1.8,3.8-4.1,5.5-3.2c1.8,0.9,1.8,4.6,0.9,6.4c-0.9,1.8-3,2.5-4.8,1.7
						C321.2,24.2,320.5,22.1,321.3,20.3z"/>
				</g>
				<g>
					<path class="st5" d="M329.6,23.4c-1.1-1.6-1.7-5.3,0-6.4s4.9,0.7,6,2.4c1.1,1.6,0.7,3.9-1,5C333,25.5,330.8,25,329.6,23.4z"/>
				</g>
				<g>
					<path class="st5" d="M336.5,17.8c-2,0.1-5.4-1.2-5.6-3.2s3-3.8,5-4s3.7,1.3,3.9,3.3S338.5,17.6,336.5,17.8z"/>
				</g>
				<g>
					<path class="st5" d="M335,9c-0.9,1.8-3.8,4.1-5.5,3.2c-1.8-0.9-1.8-4.6-0.9-6.3c0.9-1.8,3-2.5,4.8-1.7
						C335.1,5.1,335.9,7.2,335,9z"/>
				</g>
			</g>
			<g>
				<g>
					<path class="st2" d="M323,7.4c1.7,1,3.8,4.1,2.8,5.8s-4.7,1.4-6.4,0.4c-1.7-1-2.3-3.2-1.3-4.9C319.1,7,321.3,6.4,323,7.4z"/>
				</g>
				<g>
					<path class="st2" d="M319.3,15.5c1.7-1,5.4-1.3,6.4,0.4s-1.1,4.8-2.8,5.8s-3.9,0.4-4.9-1.3C317,18.7,317.6,16.5,319.3,15.5z"/>
				</g>
				<g>
					<path class="st2" d="M324.5,22.7c0-2,1.6-5.3,3.6-5.3s3.6,3.3,3.6,5.3s-1.6,3.6-3.6,3.6C326.1,26.3,324.5,24.7,324.5,22.7z"/>
				</g>
				<g>
					<path class="st2" d="M333.3,21.9c-1.7-1-3.8-4.1-2.8-5.8s4.7-1.4,6.4-0.4c1.7,1,2.3,3.2,1.3,4.9
						C337.2,22.3,335,22.9,333.3,21.9z"/>
				</g>
				<g>
					<path class="st2" d="M337,13.8c-1.7,1-5.4,1.3-6.4-0.4s1.1-4.8,2.8-5.8s3.9-0.4,4.9,1.3C339.3,10.6,338.7,12.9,337,13.8z"/>
				</g>
				<g>
					<path class="st2" d="M331.9,6.6c0,2-1.6,5.3-3.6,5.3s-3.6-3.3-3.6-5.3s1.6-3.6,3.6-3.6C330.3,3,331.9,4.6,331.9,6.6z"/>
				</g>
			</g>
			
				<ellipse transform="matrix(0.2578 -0.9662 0.9662 0.2578 229.5886 328.1733)" class="st4" cx="328.4" cy="14.6" rx="3.4" ry="3.4"/>
		</g>
		<g>
			<g>
				<g>
					<g>
						<path class="st3" d="M351.1,34.9c-0.6,1.7-4,6.3-5.7,5.7s-1-6.3-0.4-8c0.6-1.7,2.5-2.5,4.2-1.8
							C351,31.3,351.8,33.2,351.1,34.9z"/>
					</g>
					<g>
						<path class="st3" d="M343.5,32.6c0.7,1.6,1.6,7.3,0,8s-5.2-3.8-5.9-5.4s0-3.5,1.6-4.3C340.9,30.3,342.8,31,343.5,32.6z"/>
					</g>
					<g>
						<path class="st3" d="M336.6,36.4c1.7,0.6,6.3,4,5.7,5.7s-6.3,1-8,0.4c-1.7-0.6-2.5-2.5-1.8-4.2
							C333.1,36.6,334.9,35.8,336.6,36.4z"/>
					</g>
					<g>
						<path class="st3" d="M334.4,44c1.6-0.7,7.3-1.6,8,0s-3.8,5.2-5.4,5.9s-3.5,0-4.3-1.7C332,46.7,332.8,44.8,334.4,44z"/>
					</g>
					<g>
						<path class="st3" d="M338.2,51c0.6-1.7,4-6.3,5.7-5.7s1,6.3,0.4,8c-0.6,1.7-2.5,2.5-4.2,1.8C338.4,54.5,337.5,52.6,338.2,51z"
							/>
					</g>
					<g>
						<path class="st3" d="M345.8,53.2c-0.7-1.6-1.6-7.3,0-8c1.6-0.7,5.2,3.8,5.9,5.4s0,3.5-1.6,4.3
							C348.4,55.6,346.5,54.8,345.8,53.2z"/>
					</g>
					<g>
						<path class="st3" d="M352.7,49.4c-1.7-0.6-6.3-4-5.7-5.7s6.3-1,8-0.4c1.7,0.6,2.5,2.5,1.8,4.2C356.3,49.2,354.4,50,352.7,49.4
							z"/>
					</g>
					<g>
						<path class="st3" d="M354.9,41.8c-1.6,0.7-7.3,1.6-8,0c-0.7-1.6,3.8-5.2,5.4-5.9c1.6-0.7,3.5,0,4.3,1.7
							C357.3,39.2,356.6,41.1,354.9,41.8z"/>
					</g>
					<g>
						<path class="st3" d="M351.1,34.9c-0.6,1.7-4,6.3-5.7,5.7s-1-6.3-0.4-8c0.6-1.7,2.5-2.5,4.2-1.8
							C351,31.3,351.8,33.2,351.1,34.9z"/>
					</g>
				</g>
				<g>
					<g>
						<path class="st4" d="M347.8,33.1c0,1.8-1.5,7.3-3.2,7.3s-3.2-5.5-3.2-7.3c0-1.8,1.4-3.2,3.2-3.2
							C346.4,29.8,347.8,31.3,347.8,33.1z"/>
					</g>
					<g>
						<path class="st4" d="M339.9,33.7c1.3,1.3,4.2,6.2,2.9,7.5c-1.3,1.3-6.2-1.7-7.5-2.9s-1.3-3.3,0-4.6
							C336.6,32.5,338.6,32.5,339.9,33.7z"/>
					</g>
					<g>
						<path class="st4" d="M334.8,39.8c1.8,0,7.3,1.4,7.3,3.2c0,1.8-5.5,3.2-7.3,3.2c-1.8,0-3.2-1.5-3.2-3.2
							C331.6,41.2,333,39.8,334.8,39.8z"/>
					</g>
					<g>
						<path class="st4" d="M335.5,47.7c1.3-1.3,6.2-4.2,7.5-2.9c1.3,1.3-1.6,6.2-2.9,7.5c-1.3,1.3-3.3,1.3-4.6,0
							S334.2,48.9,335.5,47.7z"/>
					</g>
					<g>
						<path class="st4" d="M341.5,52.8c0-1.8,1.4-7.3,3.2-7.3c1.8,0,3.2,5.5,3.2,7.3c0,1.8-1.5,3.2-3.2,3.2
							C343,56,341.5,54.6,341.5,52.8z"/>
					</g>
					<g>
						<path class="st4" d="M349.4,52.1c-1.3-1.3-4.2-6.2-2.9-7.5c1.3-1.3,6.2,1.6,7.5,2.9c1.3,1.3,1.3,3.3,0,4.6
							C352.7,53.4,350.7,53.4,349.4,52.1z"/>
					</g>
					<g>
						<path class="st4" d="M354.5,46c-1.8,0-7.3-1.5-7.3-3.2s5.5-3.2,7.3-3.2c1.8,0,3.2,1.4,3.2,3.2S356.3,46,354.5,46z"/>
					</g>
					<g>
						<path class="st4" d="M353.9,38.2c-1.3,1.3-6.2,4.2-7.5,2.9c-1.3-1.3,1.6-6.2,2.9-7.5s3.3-1.3,4.6,0
							C355.1,34.9,355.1,36.9,353.9,38.2z"/>
					</g>
					<g>
						<path class="st4" d="M347.8,33.1c0,1.8-1.5,7.3-3.2,7.3s-3.2-5.5-3.2-7.3c0-1.8,1.4-3.2,3.2-3.2S347.8,31.3,347.8,33.1z"/>
					</g>
				</g>
				<path class="st2" d="M349.8,42.9c0,2.9-2.3,5.2-5.2,5.2s-5.2-2.3-5.2-5.2s2.3-5.2,5.2-5.2C347.5,37.7,349.8,40.1,349.8,42.9z"/>
			</g>
			<g>
				<path class="st6" d="M347.6,40.2c0,0.3-0.2,0.5-0.5,0.5s-0.5-0.2-0.5-0.5s0.2-0.5,0.5-0.5S347.6,39.9,347.6,40.2z"/>
				<path class="st6" d="M345.5,39c0,0.3-0.2,0.5-0.5,0.5s-0.5-0.2-0.5-0.5s0.2-0.5,0.5-0.5S345.5,38.8,345.5,39z"/>
				<path class="st6" d="M343,40.1c0,0.3-0.2,0.5-0.5,0.5s-0.5-0.2-0.5-0.5s0.2-0.5,0.5-0.5S343,39.8,343,40.1z"/>
				<path class="st6" d="M345.4,41.1c0,0.3-0.2,0.5-0.5,0.5s-0.5-0.2-0.5-0.5s0.2-0.5,0.5-0.5S345.4,40.8,345.4,41.1z"/>
				<path class="st6" d="M343.6,43.1c0,0.3-0.2,0.5-0.5,0.5s-0.5-0.2-0.5-0.5s0.2-0.5,0.5-0.5C343.4,42.6,343.6,42.8,343.6,43.1z"/>
				<path class="st6" d="M341.8,42.1c0,0.3-0.2,0.5-0.5,0.5s-0.5-0.2-0.5-0.5s0.2-0.5,0.5-0.5S341.8,41.8,341.8,42.1z"/>
				<path class="st6" d="M349,42.3c0,0.3-0.2,0.5-0.5,0.5s-0.5-0.2-0.5-0.5s0.2-0.5,0.5-0.5S349,42,349,42.3z"/>
				<path class="st6" d="M348.5,44.7c0,0.3-0.2,0.5-0.5,0.5s-0.5-0.2-0.5-0.5s0.2-0.5,0.5-0.5S348.5,44.5,348.5,44.7z"/>
				<path class="st6" d="M346.4,46.6c0,0.3-0.2,0.5-0.5,0.5s-0.5-0.2-0.5-0.5s0.2-0.5,0.5-0.5C346.1,46.1,346.4,46.3,346.4,46.6z"/>
				<path class="st6" d="M345.7,44.5c0,0.3-0.2,0.5-0.5,0.5s-0.5-0.2-0.5-0.5s0.2-0.5,0.5-0.5C345.5,44,345.7,44.2,345.7,44.5z"/>
				<path class="st6" d="M346.9,42.5c0,0.3-0.2,0.5-0.5,0.5s-0.5-0.2-0.5-0.5s0.2-0.5,0.5-0.5C346.6,42,346.9,42.2,346.9,42.5z"/>
				<path class="st6" d="M343.6,46.1c0,0.3-0.2,0.5-0.5,0.5s-0.5-0.2-0.5-0.5s0.2-0.5,0.5-0.5C343.4,45.6,343.6,45.8,343.6,46.1z"/>
				<path class="st6" d="M342.1,44.5c0,0.3-0.2,0.5-0.5,0.5s-0.5-0.2-0.5-0.5s0.2-0.5,0.5-0.5S342.1,44.2,342.1,44.5z"/>
			</g>
		</g>
		<g>
			<g>
				<g>
					<g>
						<path class="st1" d="M301.6,8.1c0,1.3-1,5.3-2.3,5.3s-2.3-4-2.3-5.3s1-2.3,2.3-2.3C300.5,5.7,301.6,6.8,301.6,8.1z"/>
					</g>
					<g>
						<path class="st1" d="M295.9,8.5c0.9,0.9,3,4.5,2.1,5.4c-0.9,0.9-4.5-1.2-5.4-2.1c-0.9-0.9-0.9-2.4,0-3.3
							C293.5,7.6,295,7.6,295.9,8.5z"/>
					</g>
					<g>
						<path class="st1" d="M292.2,12.9c1.3,0,5.3,1,5.3,2.3s-4,2.3-5.3,2.3s-2.3-1-2.3-2.3C289.9,13.9,291,12.9,292.2,12.9z"/>
					</g>
					<g>
						<path class="st1" d="M292.7,18.5c0.9-0.9,4.5-3,5.4-2.1c0.9,0.9-1.2,4.5-2.1,5.4c-0.9,0.9-2.4,0.9-3.3,0
							C291.8,20.9,291.8,19.5,292.7,18.5z"/>
					</g>
					<g>
						<path class="st1" d="M297.1,22.2c0-1.3,1-5.3,2.3-5.3s2.3,4,2.3,5.3s-1,2.3-2.3,2.3C298.1,24.5,297.1,23.5,297.1,22.2z"/>
					</g>
					<g>
						<path class="st1" d="M302.7,21.7c-0.9-0.9-3-4.5-2.1-5.4c0.9-0.9,4.5,1.2,5.4,2.1c0.9,0.9,0.9,2.4,0,3.3
							C305.1,22.6,303.6,22.6,302.7,21.7z"/>
					</g>
					<g>
						<path class="st1" d="M306.4,17.4c-1.3,0-5.3-1-5.3-2.3s4-2.3,5.3-2.3s2.3,1,2.3,2.3C308.7,16.4,307.7,17.4,306.4,17.4z"/>
					</g>
					<g>
						<path class="st1" d="M305.9,11.7c-0.9,0.9-4.5,3-5.4,2.1c-0.9-0.9,1.2-4.5,2.1-5.4c0.9-0.9,2.4-0.9,3.3,0
							C306.8,9.4,306.8,10.8,305.9,11.7z"/>
					</g>
					<g>
						<path class="st1" d="M301.6,8.1c0,1.3-1,5.3-2.3,5.3s-2.3-4-2.3-5.3s1-2.3,2.3-2.3C300.5,5.7,301.6,6.8,301.6,8.1z"/>
					</g>
				</g>
				<path class="st2" d="M303.8,15.1c0,2.5-2,4.4-4.5,4.4c-2.5,0-4.5-2-4.5-4.4s2-4.4,4.5-4.4C301.8,10.7,303.8,12.7,303.8,15.1z"/>
			</g>
			<g>
				<g>
					<path class="st6" d="M301.3,13.2c0,0.2-0.2,0.4-0.4,0.4c-0.2,0-0.4-0.2-0.4-0.4s0.2-0.4,0.4-0.4
						C301.1,12.8,301.3,13,301.3,13.2z"/>
					<path class="st6" d="M301.3,11.6c0,0.2-0.2,0.4-0.4,0.4c-0.2,0-0.4-0.2-0.4-0.4s0.2-0.4,0.4-0.4S301.3,11.4,301.3,11.6z"/>
					<path class="st6" d="M303,13.4c0,0.2-0.2,0.4-0.4,0.4c-0.2,0-0.4-0.2-0.4-0.4s0.2-0.4,0.4-0.4S303,13.3,303,13.4z"/>
					<path class="st6" d="M303.3,16.3c0,0.2-0.2,0.4-0.4,0.4c-0.2,0-0.4-0.2-0.4-0.4s0.2-0.4,0.4-0.4
						C303.2,16,303.3,16.1,303.3,16.3z"/>
					<path class="st6" d="M301.9,18.1c0,0.2-0.2,0.4-0.4,0.4c-0.2,0-0.4-0.2-0.4-0.4s0.2-0.4,0.4-0.4
						C301.7,17.8,301.9,17.9,301.9,18.1z"/>
					<path class="st6" d="M299.1,18.7c0,0.2-0.2,0.4-0.4,0.4c-0.2,0-0.4-0.2-0.4-0.4s0.2-0.4,0.4-0.4S299.1,18.5,299.1,18.7z"/>
					<path class="st6" d="M296.6,17.4c0,0.2-0.2,0.4-0.4,0.4c-0.2,0-0.4-0.2-0.4-0.4s0.2-0.4,0.4-0.4
						C296.4,17,296.6,17.2,296.6,17.4z"/>
					<path class="st6" d="M296.6,12.9c0,0.2-0.2,0.4-0.4,0.4c-0.2,0-0.4-0.2-0.4-0.4s0.2-0.4,0.4-0.4S296.6,12.8,296.6,12.9z"/>
					<path class="st6" d="M298.6,11.6c0,0.2-0.2,0.4-0.4,0.4c-0.2,0-0.4-0.2-0.4-0.4s0.2-0.4,0.4-0.4S298.6,11.4,298.6,11.6z"/>
					<path class="st6" d="M299.7,12.6c0,0.2-0.2,0.4-0.4,0.4c-0.2,0-0.4-0.2-0.4-0.4s0.2-0.4,0.4-0.4
						C299.5,12.2,299.7,12.4,299.7,12.6z"/>
					<path class="st6" d="M297.8,13.7c0,0.2-0.2,0.4-0.4,0.4c-0.2,0-0.4-0.2-0.4-0.4s0.2-0.4,0.4-0.4
						C297.6,13.3,297.8,13.5,297.8,13.7z"/>
					<circle class="st6" cx="299.3" cy="13.8" r="0.4"/>
					<path class="st6" d="M298.6,15.2c0,0.2-0.2,0.4-0.4,0.4c-0.2,0-0.4-0.2-0.4-0.4s0.2-0.4,0.4-0.4S298.6,15,298.6,15.2z"/>
					<path class="st6" d="M296.2,14.9c0,0.2-0.2,0.4-0.4,0.4c-0.2,0-0.4-0.2-0.4-0.4s0.2-0.4,0.4-0.4
						C296.1,14.5,296.2,14.7,296.2,14.9z"/>
					<path class="st6" d="M302.3,14.6c0,0.2-0.2,0.4-0.4,0.4c-0.2,0-0.4-0.2-0.4-0.4s0.2-0.4,0.4-0.4
						C302.1,14.3,302.3,14.5,302.3,14.6z"/>
					<path class="st6" d="M301.9,16.4c0,0.2-0.2,0.4-0.4,0.4c-0.2,0-0.4-0.2-0.4-0.4s0.2-0.4,0.4-0.4S301.9,16.2,301.9,16.4z"/>
					<path class="st6" d="M300.4,17.8c0,0.2-0.2,0.4-0.4,0.4c-0.2,0-0.4-0.2-0.4-0.4s0.2-0.4,0.4-0.4
						C300.2,17.4,300.4,17.6,300.4,17.8z"/>
					<path class="st6" d="M299.9,16.2c0,0.2-0.2,0.4-0.4,0.4c-0.2,0-0.4-0.2-0.4-0.4s0.2-0.4,0.4-0.4S299.9,16,299.9,16.2z"/>
					<path class="st6" d="M300.7,14.8c0,0.2-0.2,0.4-0.4,0.4c-0.2,0-0.4-0.2-0.4-0.4s0.2-0.4,0.4-0.4S300.7,14.6,300.7,14.8z"/>
					<path class="st6" d="M298.4,17.4c0,0.2-0.2,0.4-0.4,0.4c-0.2,0-0.4-0.2-0.4-0.4s0.2-0.4,0.4-0.4S298.4,17.2,298.4,17.4z"/>
					<path class="st6" d="M297.4,16c0,0.2-0.2,0.4-0.4,0.4c-0.2,0-0.4-0.2-0.4-0.4s0.2-0.4,0.4-0.4C297.3,15.6,297.4,15.8,297.4,16z
						"/>
				</g>
			</g>
		</g>
		<g>
			<g>
				<g>
					<g>
						<path class="st2" d="M363.7,15.1c0,1.1-0.9,4.5-2,4.5s-2-3.4-2-4.5s0.9-2,2-2C362.8,13.1,363.7,14,363.7,15.1z"/>
					</g>
					<g>
						<path class="st2" d="M358.8,15.5c0.8,0.8,2.6,3.8,1.8,4.6c-0.8,0.8-3.8-1-4.6-1.8s-0.8-2,0-2.8
							C356.8,14.8,358.1,14.8,358.8,15.5z"/>
					</g>
					<g>
						<path class="st2" d="M355.7,19.3c1.1,0,4.5,0.9,4.5,2s-3.4,2-4.5,2s-2-0.9-2-2S354.6,19.3,355.7,19.3z"/>
					</g>
					<g>
						<path class="st2" d="M356.1,24.1c0.8-0.8,3.8-2.6,4.6-1.8c0.8,0.8-1,3.8-1.8,4.6s-2,0.8-2.8,0
							C355.3,26.1,355.3,24.9,356.1,24.1z"/>
					</g>
					<g>
						<path class="st2" d="M359.8,27.2c0-1.1,0.9-4.5,2-4.5s2,3.4,2,4.5s-0.9,2-2,2C360.7,29.2,359.8,28.3,359.8,27.2z"/>
					</g>
					<g>
						<path class="st2" d="M364.7,26.8c-0.8-0.8-2.6-3.8-1.8-4.6c0.8-0.8,3.8,1,4.6,1.8s0.8,2,0,2.8
							C366.7,27.6,365.4,27.6,364.7,26.8z"/>
					</g>
					<g>
						<path class="st2" d="M367.8,23.1c-1.1,0-4.5-0.9-4.5-2s3.4-2,4.5-2s2,0.9,2,2C369.8,22.2,368.9,23.1,367.8,23.1z"/>
					</g>
					<g>
						<path class="st2" d="M367.4,18.3c-0.8,0.8-3.8,2.6-4.6,1.8c-0.8-0.8,1-3.8,1.8-4.6s2-0.8,2.8,0
							C368.2,16.2,368.2,17.5,367.4,18.3z"/>
					</g>
					<g>
						<path class="st2" d="M363.7,15.1c0,1.1-0.9,4.5-2,4.5s-2-3.4-2-4.5s0.9-2,2-2C362.8,13.1,363.7,14,363.7,15.1z"/>
					</g>
				</g>
				<path class="st4" d="M365.5,21.2c0,2.1-1.7,3.8-3.8,3.8c-2.1,0-3.8-1.7-3.8-3.8s1.7-3.8,3.8-3.8
					C363.9,17.4,365.5,19.1,365.5,21.2z"/>
			</g>
			<g>
				<g>
					<path class="st6" d="M363.4,19.5c0,0.2-0.1,0.3-0.3,0.3c-0.2,0-0.3-0.1-0.3-0.3c0-0.2,0.1-0.3,0.3-0.3
						C363.3,19.2,363.4,19.3,363.4,19.5z"/>
					<path class="st6" d="M363.4,18.2c0,0.2-0.1,0.3-0.3,0.3c-0.2,0-0.3-0.1-0.3-0.3c0-0.2,0.1-0.3,0.3-0.3
						C363.3,17.9,363.4,18,363.4,18.2z"/>
					<path class="st6" d="M364.9,19.7c0,0.2-0.1,0.3-0.3,0.3c-0.2,0-0.3-0.1-0.3-0.3c0-0.2,0.1-0.3,0.3-0.3
						C364.7,19.4,364.9,19.6,364.9,19.7z"/>
					<path class="st6" d="M365.2,22.2c0,0.2-0.1,0.3-0.3,0.3c-0.2,0-0.3-0.1-0.3-0.3c0-0.2,0.1-0.3,0.3-0.3
						C365,21.9,365.2,22,365.2,22.2z"/>
					<path class="st6" d="M363.9,23.7c0,0.2-0.1,0.3-0.3,0.3c-0.2,0-0.3-0.1-0.3-0.3c0-0.2,0.1-0.3,0.3-0.3
						C363.8,23.4,363.9,23.6,363.9,23.7z"/>
					<path class="st6" d="M361.6,24.2c0,0.2-0.1,0.3-0.3,0.3c-0.2,0-0.3-0.1-0.3-0.3c0-0.2,0.1-0.3,0.3-0.3
						C361.4,23.9,361.6,24,361.6,24.2z"/>
					<path class="st6" d="M359.4,23.1c0,0.2-0.1,0.3-0.3,0.3c-0.2,0-0.3-0.1-0.3-0.3c0-0.2,0.1-0.3,0.3-0.3
						C359.3,22.8,359.4,22.9,359.4,23.1z"/>
					<path class="st6" d="M359.4,19.3c0,0.2-0.1,0.3-0.3,0.3c-0.2,0-0.3-0.1-0.3-0.3c0-0.2,0.1-0.3,0.3-0.3
						C359.3,19,359.4,19.1,359.4,19.3z"/>
					<path class="st6" d="M361.1,18.2c0,0.2-0.1,0.3-0.3,0.3c-0.2,0-0.3-0.1-0.3-0.3c0-0.2,0.1-0.3,0.3-0.3
						C361,17.9,361.1,18,361.1,18.2z"/>
					<path class="st6" d="M362,19c0,0.2-0.1,0.3-0.3,0.3c-0.2,0-0.3-0.1-0.3-0.3s0.1-0.3,0.3-0.3C361.9,18.7,362,18.8,362,19z"/>
					<path class="st6" d="M360.4,19.9c0,0.2-0.1,0.3-0.3,0.3c-0.2,0-0.3-0.1-0.3-0.3c0-0.2,0.1-0.3,0.3-0.3
						C360.3,19.6,360.4,19.8,360.4,19.9z"/>
					<path class="st6" d="M362.1,20c0,0.2-0.1,0.3-0.3,0.3c-0.2,0-0.3-0.1-0.3-0.3s0.1-0.3,0.3-0.3C361.9,19.7,362.1,19.9,362.1,20z
						"/>
					<path class="st6" d="M361.1,21.2c0,0.2-0.1,0.3-0.3,0.3c-0.2,0-0.3-0.1-0.3-0.3s0.1-0.3,0.3-0.3C361,20.9,361.1,21,361.1,21.2z
						"/>
					<path class="st6" d="M359.1,21c0,0.2-0.1,0.3-0.3,0.3c-0.2,0-0.3-0.1-0.3-0.3c0-0.2,0.1-0.3,0.3-0.3
						C359,20.6,359.1,20.8,359.1,21z"/>
					<path class="st6" d="M364.3,20.8c0,0.2-0.1,0.3-0.3,0.3c-0.2,0-0.3-0.1-0.3-0.3c0-0.2,0.1-0.3,0.3-0.3
						C364.1,20.5,364.3,20.6,364.3,20.8z"/>
					<path class="st6" d="M363.9,22.3c0,0.2-0.1,0.3-0.3,0.3c-0.2,0-0.3-0.1-0.3-0.3c0-0.2,0.1-0.3,0.3-0.3
						C363.8,22,363.9,22.1,363.9,22.3z"/>
					<path class="st6" d="M362.6,23.4c0,0.2-0.1,0.3-0.3,0.3c-0.2,0-0.3-0.1-0.3-0.3c0-0.2,0.1-0.3,0.3-0.3
						C362.5,23.1,362.6,23.3,362.6,23.4z"/>
					<path class="st6" d="M362.3,22.1c0,0.2-0.1,0.3-0.3,0.3c-0.2,0-0.3-0.1-0.3-0.3c0-0.2,0.1-0.3,0.3-0.3
						C362.1,21.8,362.3,21.9,362.3,22.1z"/>
					<path class="st6" d="M363,20.9c0,0.2-0.1,0.3-0.3,0.3c-0.2,0-0.3-0.1-0.3-0.3c0-0.2,0.1-0.3,0.3-0.3
						C362.8,20.6,363,20.7,363,20.9z"/>
					<path class="st6" d="M361,23.1c0,0.2-0.1,0.3-0.3,0.3c-0.2,0-0.3-0.1-0.3-0.3c0-0.2,0.1-0.3,0.3-0.3
						C360.8,22.8,361,23,361,23.1z"/>
					<path class="st6" d="M360.1,21.9c0,0.2-0.1,0.3-0.3,0.3c-0.2,0-0.3-0.1-0.3-0.3c0-0.2,0.1-0.3,0.3-0.3
						C360,21.6,360.1,21.7,360.1,21.9z"/>
				</g>
			</g>
		</g>
	</g>
</g>
<g>
	<g>
		<g>
			<g>
				<g>
					<path class="st1" d="M54,50c0,0.6,0.5,2.5,1.1,2.5c0.6,0,1.1-1.9,1.1-2.5c0-0.6-0.5-1.1-1.1-1.1S54,49.4,54,50z"/>
				</g>
				<g>
					<path class="st1" d="M56.6,50.2c-0.4,0.4-1.4,2.1-1,2.5c0.4,0.4,2.1-0.6,2.5-1c0.4-0.4,0.4-1.1,0-1.5
						C57.8,49.8,57.1,49.8,56.6,50.2z"/>
				</g>
				<g>
					<path class="st1" d="M58.4,52.2c-0.6,0-2.5,0.5-2.5,1.1c0,0.6,1.9,1.1,2.5,1.1c0.6,0,1.1-0.5,1.1-1.1
						C59.5,52.7,59,52.2,58.4,52.2z"/>
				</g>
				<g>
					<path class="st1" d="M58.1,54.9c-0.4-0.4-2.1-1.4-2.5-1c-0.4,0.4,0.6,2.1,1,2.5c0.4,0.4,1.1,0.4,1.5,0
						C58.6,56,58.6,55.3,58.1,54.9z"/>
				</g>
				<g>
					<path class="st1" d="M56.1,56.7c0-0.6-0.5-2.5-1.1-2.5s-1.1,1.9-1.1,2.5c0,0.6,0.5,1.1,1.1,1.1C55.6,57.7,56.1,57.3,56.1,56.7z
						"/>
				</g>
				<g>
					<path class="st1" d="M53.4,56.4c0.4-0.4,1.4-2.1,1-2.5c-0.4-0.4-2.1,0.6-2.5,1c-0.4,0.4-0.4,1.1,0,1.5
						C52.3,56.8,53,56.8,53.4,56.4z"/>
				</g>
				<g>
					<path class="st1" d="M51.7,54.4c0.6,0,2.5-0.5,2.5-1.1c0-0.6-1.9-1.1-2.5-1.1s-1.1,0.5-1.1,1.1C50.6,53.9,51.1,54.4,51.7,54.4z
						"/>
				</g>
				<g>
					<path class="st1" d="M51.9,51.7c0.4,0.4,2.1,1.4,2.5,1c0.4-0.4-0.6-2.1-1-2.5c-0.4-0.4-1.1-0.4-1.5,0
						C51.5,50.6,51.5,51.3,51.9,51.7z"/>
				</g>
				<g>
					<path class="st1" d="M54,50c0,0.6,0.5,2.5,1.1,2.5c0.6,0,1.1-1.9,1.1-2.5s-0.5-1.1-1.1-1.1S54,49.4,54,50z"/>
				</g>
			</g>
			<path class="st2" d="M53.5,53.3c0,0.8,0.7,1.5,1.5,1.5c0.8,0,1.5-0.7,1.5-1.5c0-0.8-0.7-1.5-1.5-1.5
				C54.2,51.8,53.5,52.5,53.5,53.3z"/>
		</g>
		<g>
			<g>
				<g>
					<path class="st3" d="M72.4,33.6c0.3,0.6,1.5,2.4,2.2,2.2c0.6-0.3,0.4-2.5,0.1-3.1c-0.3-0.6-1-1-1.6-0.7
						C72.5,32.2,72.1,33,72.4,33.6z"/>
				</g>
				<g>
					<path class="st3" d="M75.3,32.8c-0.3,0.6-0.6,2.8,0,3.1c0.6,0.3,2-1.5,2.3-2.1c0.3-0.6,0-1.4-0.6-1.7
						C76.3,31.8,75.6,32.1,75.3,32.8z"/>
				</g>
				<g>
					<path class="st3" d="M78,34.2c-0.6,0.3-2.4,1.5-2.2,2.2c0.3,0.6,2.5,0.4,3.1,0.1c0.6-0.3,1-1,0.7-1.6
						C79.4,34.3,78.7,34,78,34.2z"/>
				</g>
				<g>
					<path class="st3" d="M78.9,37.2c-0.6-0.3-2.8-0.6-3.1,0c-0.3,0.6,1.5,2,2.1,2.3c0.6,0.3,1.4,0,1.7-0.6
						C79.8,38.2,79.5,37.5,78.9,37.2z"/>
				</g>
				<g>
					<path class="st3" d="M77.4,39.9c-0.3-0.6-1.5-2.4-2.2-2.2c-0.6,0.3-0.4,2.5-0.1,3.1c0.3,0.6,1,1,1.6,0.7
						C77.3,41.2,77.7,40.5,77.4,39.9z"/>
				</g>
				<g>
					<path class="st3" d="M74.5,40.7c0.3-0.6,0.6-2.8,0-3.1c-0.6-0.3-2,1.5-2.3,2.1c-0.3,0.6,0,1.4,0.6,1.7
						C73.4,41.7,74.2,41.4,74.5,40.7z"/>
				</g>
				<g>
					<path class="st3" d="M71.8,39.3c0.6-0.3,2.4-1.5,2.2-2.2c-0.3-0.6-2.5-0.4-3.1-0.1s-1,1-0.7,1.6C70.4,39.2,71.1,39.5,71.8,39.3
						z"/>
				</g>
				<g>
					<path class="st3" d="M70.9,36.3c0.6,0.3,2.8,0.6,3.1,0c0.3-0.6-1.5-2-2.1-2.3c-0.6-0.3-1.4,0-1.7,0.6
						C70,35.3,70.3,36,70.9,36.3z"/>
				</g>
				<g>
					<path class="st3" d="M72.4,33.6c0.3,0.6,1.5,2.4,2.2,2.2c0.6-0.3,0.4-2.5,0.1-3.1c-0.3-0.6-1-1-1.6-0.7
						C72.5,32.2,72.1,33,72.4,33.6z"/>
				</g>
			</g>
			<g>
				<g>
					<path class="st4" d="M73.7,32.9c0,0.7,0.6,2.9,1.3,2.9c0.7,0,1.3-2.2,1.3-2.9c0-0.7-0.6-1.3-1.3-1.3
						C74.2,31.7,73.7,32.2,73.7,32.9z"/>
				</g>
				<g>
					<path class="st4" d="M76.7,33.2c-0.5,0.5-1.6,2.4-1.1,2.9c0.5,0.5,2.4-0.6,2.9-1.1c0.5-0.5,0.5-1.3,0-1.8
						C78,32.7,77.2,32.7,76.7,33.2z"/>
				</g>
				<g>
					<path class="st4" d="M78.7,35.5c-0.7,0-2.9,0.6-2.9,1.2c0,0.7,2.2,1.3,2.9,1.3c0.7,0,1.3-0.6,1.3-1.3
						C80,36.1,79.4,35.5,78.7,35.5z"/>
				</g>
				<g>
					<path class="st4" d="M78.5,38.6C78,38.1,76,37,75.6,37.5c-0.5,0.5,0.6,2.4,1.1,2.9c0.5,0.5,1.3,0.5,1.8,0
						C79,39.9,79,39.1,78.5,38.6z"/>
				</g>
				<g>
					<path class="st4" d="M76.1,40.6c0-0.7-0.6-2.9-1.3-2.9c-0.7,0-1.3,2.2-1.3,2.9c0,0.7,0.6,1.3,1.3,1.2
						C75.5,41.8,76.1,41.3,76.1,40.6z"/>
				</g>
				<g>
					<path class="st4" d="M73.1,40.3c0.5-0.5,1.6-2.4,1.1-2.9c-0.5-0.5-2.4,0.6-2.9,1.1c-0.5,0.5-0.5,1.3,0,1.8
						C71.8,40.8,72.6,40.8,73.1,40.3z"/>
				</g>
				<g>
					<path class="st4" d="M71.1,38c0.7,0,2.9-0.6,2.9-1.3c0-0.7-2.2-1.3-2.9-1.3c-0.7,0-1.3,0.6-1.3,1.3S70.4,38,71.1,38z"/>
				</g>
				<g>
					<path class="st4" d="M71.3,34.9c0.5,0.5,2.4,1.6,2.9,1.1s-0.6-2.4-1.1-2.9s-1.3-0.5-1.8,0C70.8,33.6,70.8,34.4,71.3,34.9z"/>
				</g>
				<g>
					<path class="st4" d="M73.7,32.9c0,0.7,0.6,2.9,1.3,2.9c0.7,0,1.3-2.2,1.3-2.9c0-0.7-0.6-1.3-1.3-1.3
						C74.2,31.7,73.7,32.2,73.7,32.9z"/>
				</g>
			</g>
			<path class="st2" d="M72.9,36.7c0,1.1,0.9,2,2,2c1.1,0,2-0.9,2-2s-0.9-2-2-2S72.9,35.6,72.9,36.7z"/>
		</g>
		<g>
			<g>
				<g>
					<path class="st5" d="M54.5,8.9c-1.1,1.5-1.6,5,0,6C56,16,59,14.3,60,12.7c1.1-1.5,0.6-3.6-0.9-4.7C57.6,7,55.5,7.4,54.5,8.9z"
						/>
				</g>
				<g>
					<path class="st5" d="M60.9,14.2c-1.9-0.1-5.1,1.1-5.2,3c-0.1,1.9,2.9,3.6,4.7,3.7c1.9,0.1,3.5-1.3,3.6-3.1
						C64.1,16,62.7,14.4,60.9,14.2z"/>
				</g>
				<g>
					<path class="st5" d="M59.5,22.5c-0.8-1.7-3.5-3.8-5.2-3c-1.7,0.8-1.7,4.3-0.9,6c0.8,1.7,2.8,2.4,4.5,1.6
						C59.6,26.1,60.3,24.1,59.5,22.5z"/>
				</g>
				<g>
					<path class="st5" d="M51.7,25.4c1.1-1.5,1.6-5,0-6s-4.5,0.7-5.6,2.2c-1.1,1.5-0.6,3.6,0.9,4.7C48.6,27.3,50.7,26.9,51.7,25.4z"
						/>
				</g>
				<g>
					<path class="st5" d="M45.3,20.1c1.9,0.1,5.1-1.1,5.2-3s-2.9-3.6-4.7-3.7s-3.5,1.2-3.6,3.1C42,18.3,43.4,19.9,45.3,20.1z"/>
				</g>
				<g>
					<path class="st5" d="M46.7,11.9c0.8,1.7,3.5,3.8,5.2,3c1.7-0.8,1.7-4.3,0.9-6s-2.8-2.4-4.5-1.6C46.6,8.2,45.9,10.2,46.7,11.9z"
						/>
				</g>
			</g>
			<g>
				<g>
					<path class="st2" d="M57.9,10.4c-1.6,0.9-3.6,3.8-2.6,5.4c0.9,1.6,4.4,1.4,6,0.4c1.6-0.9,2.2-3,1.2-4.6
						C61.6,10,59.5,9.4,57.9,10.4z"/>
				</g>
				<g>
					<path class="st2" d="M61.4,17.9c-1.6-0.9-5.1-1.2-6,0.4c-0.9,1.6,1,4.5,2.6,5.4c1.6,0.9,3.7,0.4,4.6-1.2
						C63.5,20.9,63,18.9,61.4,17.9z"/>
				</g>
				<g>
					<path class="st2" d="M56.6,24.7c0-1.9-1.5-5-3.4-5s-3.4,3.1-3.4,5s1.5,3.4,3.4,3.4S56.6,26.6,56.6,24.7z"/>
				</g>
				<g>
					<path class="st2" d="M48.3,24c1.6-0.9,3.6-3.8,2.6-5.4c-0.9-1.6-4.4-1.4-6-0.4c-1.6,0.9-2.2,3-1.2,4.6
						C44.6,24.3,46.7,24.9,48.3,24z"/>
				</g>
				<g>
					<path class="st2" d="M44.8,16.4c1.6,0.9,5.1,1.2,6-0.4s-1-4.5-2.6-5.4c-1.6-0.9-3.7-0.4-4.6,1.2C42.6,13.4,43.2,15.5,44.8,16.4
						z"/>
				</g>
				<g>
					<path class="st2" d="M49.6,9.6c0,1.9,1.5,5,3.4,5c1.9,0,3.4-3.1,3.4-5S54.8,6.2,53,6.2C51.1,6.2,49.6,7.7,49.6,9.6z"/>
				</g>
			</g>
			<ellipse class="st4" cx="52.9" cy="17.2" rx="3.2" ry="3.2"/>
		</g>
		<g>
			<g>
				<g>
					<g>
						<path class="st3" d="M31.5,36.1c0.6,1.6,3.8,5.9,5.3,5.3c1.6-0.6,0.9-5.9,0.3-7.5c-0.6-1.6-2.4-2.3-3.9-1.7
							C31.7,32.8,30.9,34.6,31.5,36.1z"/>
					</g>
					<g>
						<path class="st3" d="M38.7,34c-0.7,1.5-1.5,6.8,0,7.5c1.5,0.7,4.9-3.5,5.6-5.1c0.7-1.5,0-3.3-1.5-4
							C41.1,31.8,39.3,32.5,38.7,34z"/>
					</g>
					<g>
						<path class="st3" d="M45.2,37.6c-1.6,0.6-5.9,3.8-5.3,5.3c0.6,1.6,5.9,0.9,7.5,0.3c1.6-0.6,2.3-2.4,1.7-3.9
							C48.5,37.8,46.7,37,45.2,37.6z"/>
					</g>
					<g>
						<path class="st3" d="M47.3,44.7c-1.5-0.7-6.8-1.5-7.5,0s3.5,4.9,5.1,5.6c1.5,0.7,3.3,0,4-1.5C49.5,47.2,48.8,45.4,47.3,44.7z"
							/>
					</g>
					<g>
						<path class="st3" d="M43.7,51.2c-0.6-1.6-3.8-5.9-5.3-5.3c-1.6,0.6-0.9,5.9-0.3,7.5c0.6,1.6,2.4,2.3,3.9,1.7
							C43.5,54.6,44.3,52.8,43.7,51.2z"/>
					</g>
					<g>
						<path class="st3" d="M36.6,53.3c0.7-1.5,1.5-6.8,0-7.5c-1.5-0.7-4.9,3.5-5.6,5.1c-0.7,1.5,0,3.3,1.5,4
							C34.1,55.5,35.9,54.9,36.6,53.3z"/>
					</g>
					<g>
						<path class="st3" d="M30,49.7c1.6-0.6,5.9-3.8,5.3-5.3c-0.6-1.6-5.9-0.9-7.5-0.3c-1.6,0.6-2.3,2.4-1.7,3.9
							C26.7,49.6,28.5,50.4,30,49.7z"/>
					</g>
					<g>
						<path class="st3" d="M28,42.6c1.5,0.7,6.8,1.5,7.5,0c0.7-1.5-3.5-4.9-5.1-5.6c-1.5-0.7-3.3,0-4,1.5
							C25.7,40.2,26.4,41.9,28,42.6z"/>
					</g>
					<g>
						<path class="st3" d="M31.5,36.1c0.6,1.6,3.8,5.9,5.3,5.3c1.6-0.6,0.9-5.9,0.3-7.5c-0.6-1.6-2.4-2.3-3.9-1.7
							C31.7,32.8,30.9,34.6,31.5,36.1z"/>
					</g>
				</g>
				<g>
					<g>
						<path class="st4" d="M34.7,34.4c0,1.7,1.4,6.9,3,6.9s3-5.2,3-6.9c0-1.7-1.4-3-3-3C36,31.4,34.7,32.8,34.7,34.4z"/>
					</g>
					<g>
						<path class="st4" d="M42.1,35.1c-1.2,1.2-3.9,5.8-2.7,7c1.2,1.2,5.8-1.5,7-2.7c1.2-1.2,1.2-3.1,0-4.3
							C45.2,33.9,43.3,33.9,42.1,35.1z"/>
					</g>
					<g>
						<path class="st4" d="M46.9,40.7c-1.7,0-6.9,1.4-6.9,3c0,1.7,5.2,3,6.9,3c1.7,0,3-1.4,3-3C49.9,42.1,48.5,40.7,46.9,40.7z"/>
					</g>
					<g>
						<path class="st4" d="M46.2,48.1c-1.2-1.2-5.8-3.9-7-2.7c-1.2,1.2,1.5,5.8,2.7,7c1.2,1.2,3.1,1.2,4.3,0
							C47.4,51.2,47.4,49.3,46.2,48.1z"/>
					</g>
					<g>
						<path class="st4" d="M40.5,52.9c0-1.7-1.4-6.9-3-6.9c-1.7,0-3,5.2-3,6.9c0,1.7,1.4,3,3,3C39.2,55.9,40.5,54.6,40.5,52.9z"/>
					</g>
					<g>
						<path class="st4" d="M33.1,52.3c1.2-1.2,3.9-5.8,2.7-7c-1.2-1.2-5.8,1.5-7,2.7c-1.2,1.2-1.2,3.1,0,4.3
							C30.1,53.5,32,53.5,33.1,52.3z"/>
					</g>
					<g>
						<path class="st4" d="M28.4,46.6c1.7,0,6.9-1.4,6.9-3s-5.2-3-6.9-3c-1.7,0-3,1.4-3,3C25.3,45.3,26.7,46.6,28.4,46.6z"/>
					</g>
					<g>
						<path class="st4" d="M29,39.2c1.2,1.2,5.8,3.9,7,2.7c1.2-1.2-1.5-5.8-2.7-7c-1.2-1.2-3.1-1.2-4.3,0C27.8,36.1,27.8,38,29,39.2
							z"/>
					</g>
					<g>
						<path class="st4" d="M34.7,34.4c0,1.7,1.4,6.9,3,6.9s3-5.2,3-6.9c0-1.7-1.4-3-3-3C36,31.4,34.7,32.8,34.7,34.4z"/>
					</g>
				</g>
				<path class="st2" d="M32.7,43.7c0,2.7,2.2,4.9,4.9,4.9c2.7,0,4.9-2.2,4.9-4.9s-2.2-4.9-4.9-4.9C34.9,38.8,32.7,41,32.7,43.7z"/>
			</g>
			<g>
				<path class="st6" d="M34.8,41.1c0,0.3,0.2,0.5,0.5,0.5s0.5-0.2,0.5-0.5s-0.2-0.5-0.5-0.5C35,40.6,34.8,40.9,34.8,41.1z"/>
				<path class="st6" d="M36.8,40c0,0.3,0.2,0.5,0.5,0.5s0.5-0.2,0.5-0.5s-0.2-0.5-0.5-0.5C37.1,39.6,36.8,39.8,36.8,40z"/>
				<path class="st6" d="M39.2,41c0,0.3,0.2,0.5,0.5,0.5s0.5-0.2,0.5-0.5s-0.2-0.5-0.5-0.5S39.2,40.7,39.2,41z"/>
				<path class="st6" d="M36.9,41.9c0,0.3,0.2,0.5,0.5,0.5s0.5-0.2,0.5-0.5s-0.2-0.5-0.5-0.5C37.1,41.5,36.9,41.7,36.9,41.9z"/>
				<path class="st6" d="M38.6,43.8c0,0.3,0.2,0.5,0.5,0.5s0.5-0.2,0.5-0.5s-0.2-0.5-0.5-0.5S38.6,43.5,38.6,43.8z"/>
				<path class="st6" d="M40.3,42.9c0,0.3,0.2,0.5,0.5,0.5s0.5-0.2,0.5-0.5s-0.2-0.5-0.5-0.5C40.5,42.4,40.3,42.6,40.3,42.9z"/>
				<path class="st6" d="M33.5,43c0,0.3,0.2,0.5,0.5,0.5s0.5-0.2,0.5-0.5s-0.2-0.5-0.5-0.5S33.5,42.8,33.5,43z"/>
				<path class="st6" d="M34,45.4c0,0.3,0.2,0.5,0.5,0.5s0.5-0.2,0.5-0.5s-0.2-0.5-0.5-0.5S34,45.1,34,45.4z"/>
				<path class="st6" d="M36,47.1c0,0.3,0.2,0.5,0.5,0.5s0.5-0.2,0.5-0.5s-0.2-0.5-0.5-0.5C36.2,46.7,36,46.9,36,47.1z"/>
				<path class="st6" d="M36.6,45.1c0,0.3,0.2,0.5,0.5,0.5s0.5-0.2,0.5-0.5s-0.2-0.5-0.5-0.5C36.8,44.6,36.6,44.9,36.6,45.1z"/>
				<path class="st6" d="M35.5,43.3c0,0.3,0.2,0.5,0.5,0.5s0.5-0.2,0.5-0.5s-0.2-0.5-0.5-0.5C35.8,42.8,35.5,43,35.5,43.3z"/>
				<path class="st6" d="M38.6,46.7c0,0.3,0.2,0.5,0.5,0.5s0.5-0.2,0.5-0.5s-0.2-0.5-0.5-0.5S38.6,46.4,38.6,46.7z"/>
				<path class="st6" d="M40,45.1c0,0.3,0.2,0.5,0.5,0.5c0.3,0,0.5-0.2,0.5-0.5s-0.2-0.5-0.5-0.5C40.2,44.6,40,44.9,40,45.1z"/>
			</g>
		</g>
		<g>
			<g>
				<g>
					<g>
						<path class="st1" d="M78,11c0,1.2,1,4.9,2.2,4.9s2.2-3.7,2.2-4.9s-1-2.2-2.2-2.2C79,8.8,78,9.8,78,11z"/>
					</g>
					<g>
						<path class="st1" d="M83.4,11.4c-0.9,0.8-2.8,4.2-2,5c0.9,0.8,4.2-1.1,5-2c0.9-0.8,0.9-2.2,0-3.1
							C85.6,10.6,84.2,10.6,83.4,11.4z"/>
					</g>
					<g>
						<path class="st1" d="M86.8,15.5c-1.2,0-4.9,1-4.9,2.2s3.7,2.2,4.9,2.2s2.2-1,2.2-2.2C89,16.5,88,15.5,86.8,15.5z"/>
					</g>
					<g>
						<path class="st1" d="M86.3,20.8c-0.9-0.9-4.2-2.8-5-2c-0.9,0.8,1.1,4.2,2,5s2.2,0.8,3.1,0C87.2,23,87.2,21.7,86.3,20.8z"/>
					</g>
					<g>
						<path class="st1" d="M82.3,24.3c0-1.2-1-4.9-2.2-4.9c-1.2,0-2.2,3.7-2.2,4.9c0,1.2,1,2.2,2.2,2.2
							C81.3,26.4,82.3,25.4,82.3,24.3z"/>
					</g>
					<g>
						<path class="st1" d="M76.9,23.8c0.9-0.8,2.8-4.2,2-5c-0.9-0.9-4.2,1.1-5,2c-0.9,0.8-0.9,2.2,0,3.1
							C74.7,24.6,76.1,24.6,76.9,23.8z"/>
					</g>
					<g>
						<path class="st1" d="M73.5,19.7c1.2,0,4.9-1,4.9-2.2c0-1.2-3.7-2.2-4.9-2.2s-2.2,1-2.2,2.2C71.3,18.7,72.3,19.7,73.5,19.7z"/>
					</g>
					<g>
						<path class="st1" d="M74,14.4c0.9,0.9,4.2,2.8,5,2c0.9-0.9-1.1-4.2-2-5c-0.9-0.9-2.2-0.9-3.1,0C73.1,12.2,73.1,13.6,74,14.4z"
							/>
					</g>
					<g>
						<path class="st1" d="M78,11c0,1.2,1,4.9,2.2,4.9s2.2-3.7,2.2-4.9s-1-2.2-2.2-2.2C79,8.8,78,9.8,78,11z"/>
					</g>
				</g>
				<path class="st2" d="M76,17.6c0,2.3,1.9,4.2,4.2,4.2s4.2-1.9,4.2-4.2s-1.9-4.2-4.2-4.2S76,15.3,76,17.6z"/>
			</g>
			<g>
				<g>
					<path class="st6" d="M78.3,15.8c0,0.2,0.2,0.3,0.3,0.3c0.2,0,0.3-0.2,0.3-0.3c0-0.2-0.2-0.3-0.3-0.3
						C78.5,15.4,78.3,15.6,78.3,15.8z"/>
					<path class="st6" d="M78.3,14.3c0,0.2,0.2,0.3,0.3,0.3c0.2,0,0.3-0.2,0.3-0.3S78.8,14,78.6,14C78.5,14,78.3,14.2,78.3,14.3z"/>
					<path class="st6" d="M76.7,16c0,0.2,0.2,0.3,0.3,0.3s0.3-0.2,0.3-0.3c0-0.2-0.2-0.3-0.3-0.3C76.9,15.7,76.7,15.8,76.7,16z"/>
					<path class="st6" d="M76.4,18.7c0,0.2,0.2,0.3,0.3,0.3s0.3-0.2,0.3-0.3c0-0.2-0.2-0.3-0.3-0.3S76.4,18.5,76.4,18.7z"/>
					<path class="st6" d="M77.8,20.4c0,0.2,0.2,0.3,0.3,0.3s0.3-0.2,0.3-0.3c0-0.2-0.2-0.3-0.3-0.3S77.8,20.2,77.8,20.4z"/>
					<path class="st6" d="M80.4,20.9c0,0.2,0.2,0.3,0.3,0.3c0.2,0,0.3-0.2,0.3-0.3c0-0.2-0.2-0.3-0.3-0.3
						C80.5,20.6,80.4,20.8,80.4,20.9z"/>
					<path class="st6" d="M82.7,19.7c0,0.2,0.2,0.3,0.3,0.3c0.2,0,0.3-0.2,0.3-0.3c0-0.2-0.2-0.3-0.3-0.3
						C82.8,19.4,82.7,19.5,82.7,19.7z"/>
					<path class="st6" d="M82.7,15.6c0,0.2,0.2,0.3,0.3,0.3c0.2,0,0.3-0.2,0.3-0.3s-0.2-0.3-0.3-0.3C82.8,15.2,82.7,15.4,82.7,15.6z
						"/>
					<path class="st6" d="M80.9,14.3c0,0.2,0.2,0.3,0.3,0.3s0.3-0.2,0.3-0.3S81.4,14,81.2,14C81,14,80.9,14.2,80.9,14.3z"/>
					<path class="st6" d="M79.8,15.2c0,0.2,0.2,0.3,0.3,0.3c0.2,0,0.3-0.2,0.3-0.3s-0.2-0.3-0.3-0.3C80,14.9,79.8,15,79.8,15.2z"/>
					<path class="st6" d="M81.6,16.2c0,0.2,0.2,0.3,0.3,0.3c0.2,0,0.3-0.2,0.3-0.3s-0.2-0.3-0.3-0.3C81.7,15.9,81.6,16.1,81.6,16.2z
						"/>
					<circle class="st6" cx="80.1" cy="16.4" r="0.3"/>
					<path class="st6" d="M80.9,17.7c0,0.2,0.2,0.3,0.3,0.3s0.3-0.2,0.3-0.3s-0.2-0.3-0.3-0.3S80.9,17.5,80.9,17.7z"/>
					<path class="st6" d="M83,17.4c0,0.2,0.2,0.3,0.3,0.3s0.3-0.2,0.3-0.3S83.6,17,83.4,17S83,17.2,83,17.4z"/>
					<path class="st6" d="M77.4,17.2c0,0.2,0.2,0.3,0.3,0.3c0.2,0,0.3-0.2,0.3-0.3s-0.2-0.3-0.3-0.3C77.5,16.8,77.4,17,77.4,17.2z"
						/>
					<path class="st6" d="M77.8,18.8c0,0.2,0.2,0.3,0.3,0.3s0.3-0.2,0.3-0.3c0-0.2-0.2-0.3-0.3-0.3S77.8,18.6,77.8,18.8z"/>
					<path class="st6" d="M79.2,20.1c0,0.2,0.2,0.3,0.3,0.3s0.3-0.2,0.3-0.3s-0.2-0.3-0.3-0.3C79.3,19.7,79.2,19.9,79.2,20.1z"/>
					<path class="st6" d="M79.6,18.6c0,0.2,0.2,0.3,0.3,0.3c0.2,0,0.3-0.2,0.3-0.3c0-0.2-0.2-0.3-0.3-0.3S79.6,18.4,79.6,18.6z"/>
					<path class="st6" d="M78.8,17.3c0,0.2,0.2,0.3,0.3,0.3c0.2,0,0.3-0.2,0.3-0.3S79.4,17,79.2,17S78.8,17.1,78.8,17.3z"/>
					<path class="st6" d="M81,19.7c0,0.2,0.2,0.3,0.3,0.3s0.3-0.2,0.3-0.3c0-0.2-0.2-0.3-0.3-0.3C81.2,19.4,81,19.6,81,19.7z"/>
					<path class="st6" d="M81.9,18.4c0,0.2,0.2,0.3,0.3,0.3c0.2,0,0.3-0.2,0.3-0.3s-0.2-0.3-0.3-0.3C82.1,18.1,81.9,18.2,81.9,18.4z
						"/>
				</g>
			</g>
		</g>
		<g>
			<g>
				<g>
					<g>
						<path class="st2" d="M19.8,17.6c0,1,0.8,4.2,1.9,4.2c1,0,1.9-3.2,1.9-4.2c0-1-0.8-1.9-1.9-1.9C20.6,15.7,19.8,16.6,19.8,17.6z
							"/>
					</g>
					<g>
						<path class="st2" d="M24.3,18c-0.7,0.7-2.4,3.6-1.7,4.3c0.7,0.7,3.6-0.9,4.3-1.7s0.7-1.9,0-2.6C26.2,17.3,25,17.3,24.3,18z"/>
					</g>
					<g>
						<path class="st2" d="M27.3,21.5c-1,0-4.2,0.8-4.2,1.9c0,1,3.2,1.9,4.2,1.9c1,0,1.9-0.8,1.9-1.9C29.1,22.3,28.3,21.5,27.3,21.5
							z"/>
					</g>
					<g>
						<path class="st2" d="M26.9,26c-0.7-0.7-3.6-2.4-4.3-1.7c-0.7,0.7,0.9,3.6,1.7,4.3c0.7,0.7,1.9,0.7,2.6,0
							C27.6,27.9,27.6,26.7,26.9,26z"/>
					</g>
					<g>
						<path class="st2" d="M23.4,28.9c0-1-0.8-4.2-1.9-4.2c-1,0-1.9,3.2-1.9,4.2c0,1,0.8,1.9,1.9,1.9C22.5,30.8,23.4,30,23.4,28.9z"
							/>
					</g>
					<g>
						<path class="st2" d="M18.8,28.6c0.7-0.7,2.4-3.6,1.7-4.3c-0.7-0.7-3.6,0.9-4.3,1.7c-0.7,0.7-0.7,1.9,0,2.6
							C16.9,29.3,18.1,29.3,18.8,28.6z"/>
					</g>
					<g>
						<path class="st2" d="M15.9,25.1c1,0,4.2-0.8,4.2-1.9c0-1-3.2-1.9-4.2-1.9s-1.9,0.8-1.9,1.9C14.1,24.2,14.9,25.1,15.9,25.1z"/>
					</g>
					<g>
						<path class="st2" d="M16.3,20.5c0.7,0.7,3.6,2.4,4.3,1.7c0.7-0.7-0.9-3.6-1.7-4.3c-0.7-0.7-1.9-0.7-2.6,0
							C15.6,18.6,15.6,19.8,16.3,20.5z"/>
					</g>
					<g>
						<path class="st2" d="M19.8,17.6c0,1,0.8,4.2,1.9,4.2c1,0,1.9-3.2,1.9-4.2c0-1-0.8-1.9-1.9-1.9C20.6,15.7,19.8,16.6,19.8,17.6z
							"/>
					</g>
				</g>
				<path class="st4" d="M18,23.3c0,2,1.6,3.6,3.6,3.6s3.6-1.6,3.6-3.6s-1.6-3.6-3.6-3.6S18,21.3,18,23.3z"/>
			</g>
			<g>
				<g>
					<path class="st6" d="M20,21.7c0,0.2,0.1,0.3,0.3,0.3c0.2,0,0.3-0.1,0.3-0.3c0-0.2-0.1-0.3-0.3-0.3C20.1,21.4,20,21.6,20,21.7z"
						/>
					<path class="st6" d="M20,20.5c0,0.2,0.1,0.3,0.3,0.3c0.2,0,0.3-0.1,0.3-0.3c0-0.2-0.1-0.3-0.3-0.3C20.1,20.2,20,20.3,20,20.5z"
						/>
					<path class="st6" d="M18.6,21.9c0,0.2,0.1,0.3,0.3,0.3c0.2,0,0.3-0.1,0.3-0.3c0-0.2-0.1-0.3-0.3-0.3
						C18.8,21.6,18.6,21.8,18.6,21.9z"/>
					<path class="st6" d="M18.4,24.2c0,0.2,0.1,0.3,0.3,0.3c0.2,0,0.3-0.1,0.3-0.3c0-0.2-0.1-0.3-0.3-0.3
						C18.5,23.9,18.4,24.1,18.4,24.2z"/>
					<path class="st6" d="M19.5,25.7c0,0.2,0.1,0.3,0.3,0.3s0.3-0.1,0.3-0.3c0-0.2-0.1-0.3-0.3-0.3C19.7,25.4,19.5,25.5,19.5,25.7z"
						/>
					<path class="st6" d="M21.8,26.1c0,0.2,0.1,0.3,0.3,0.3c0.2,0,0.3-0.1,0.3-0.3c0-0.2-0.1-0.3-0.3-0.3
						C21.9,25.8,21.8,26,21.8,26.1z"/>
					<path class="st6" d="M23.8,25.1c0,0.2,0.1,0.3,0.3,0.3c0.2,0,0.3-0.1,0.3-0.3c0-0.2-0.1-0.3-0.3-0.3
						C23.9,24.8,23.8,24.9,23.8,25.1z"/>
					<path class="st6" d="M23.8,21.5c0,0.2,0.1,0.3,0.3,0.3c0.2,0,0.3-0.1,0.3-0.3c0-0.2-0.1-0.3-0.3-0.3
						C23.9,21.2,23.8,21.4,23.8,21.5z"/>
					<path class="st6" d="M22.2,20.5c0,0.2,0.1,0.3,0.3,0.3c0.2,0,0.3-0.1,0.3-0.3c0-0.2-0.1-0.3-0.3-0.3
						C22.3,20.2,22.2,20.3,22.2,20.5z"/>
					<path class="st6" d="M21.3,21.2c0,0.2,0.1,0.3,0.3,0.3s0.3-0.1,0.3-0.3c0-0.2-0.1-0.3-0.3-0.3C21.4,21,21.3,21.1,21.3,21.2z"/>
					<path class="st6" d="M22.8,22.1c0,0.2,0.1,0.3,0.3,0.3s0.3-0.1,0.3-0.3c0-0.2-0.1-0.3-0.3-0.3C22.9,21.8,22.8,21.9,22.8,22.1z"
						/>
					<path class="st6" d="M21.3,22.2c0,0.2,0.1,0.3,0.3,0.3c0.2,0,0.3-0.1,0.3-0.3c0-0.2-0.1-0.3-0.3-0.3
						C21.4,21.9,21.3,22,21.3,22.2z"/>
					<path class="st6" d="M22.2,23.3c0,0.2,0.1,0.3,0.3,0.3c0.2,0,0.3-0.1,0.3-0.3c0-0.2-0.1-0.3-0.3-0.3
						C22.3,23,22.2,23.2,22.2,23.3z"/>
					<path class="st6" d="M24,23.1c0,0.2,0.1,0.3,0.3,0.3c0.2,0,0.3-0.1,0.3-0.3c0-0.2-0.1-0.3-0.3-0.3C24.2,22.8,24,22.9,24,23.1z"
						/>
					<path class="st6" d="M19.2,22.9c0,0.2,0.1,0.3,0.3,0.3c0.2,0,0.3-0.1,0.3-0.3c0-0.2-0.1-0.3-0.3-0.3
						C19.3,22.6,19.2,22.7,19.2,22.9z"/>
					<path class="st6" d="M19.5,24.3c0,0.2,0.1,0.3,0.3,0.3s0.3-0.1,0.3-0.3c0-0.2-0.1-0.3-0.3-0.3C19.7,24,19.5,24.1,19.5,24.3z"/>
					<path class="st6" d="M20.7,25.4c0,0.2,0.1,0.3,0.3,0.3c0.2,0,0.3-0.1,0.3-0.3c0-0.2-0.1-0.3-0.3-0.3
						C20.9,25.1,20.7,25.2,20.7,25.4z"/>
					<path class="st6" d="M21.1,24.1c0,0.2,0.1,0.3,0.3,0.3c0.2,0,0.3-0.1,0.3-0.3c0-0.2-0.1-0.3-0.3-0.3S21.1,24,21.1,24.1z"/>
					<path class="st6" d="M20.5,23c0,0.2,0.1,0.3,0.3,0.3S21,23.2,21,23c0-0.2-0.1-0.3-0.3-0.3C20.6,22.7,20.5,22.9,20.5,23z"/>
					<path class="st6" d="M22.3,25.1c0,0.2,0.1,0.3,0.3,0.3c0.2,0,0.3-0.1,0.3-0.3c0-0.2-0.1-0.3-0.3-0.3
						C22.5,24.8,22.3,24.9,22.3,25.1z"/>
					<path class="st6" d="M23.1,23.9c0,0.2,0.1,0.3,0.3,0.3s0.3-0.1,0.3-0.3c0-0.2-0.1-0.3-0.3-0.3C23.2,23.7,23.1,23.8,23.1,23.9z"
						/>
				</g>
			</g>
		</g>
	</g>
</g>
<text transform="matrix(1 0 0 1 93.9203 39.1661)" class="st7 st8">EXPLANATION</text>
</svg>
