<?xml version="1.0" encoding="utf-8"?>
<!-- Generator: Adobe Illustrator 24.0.1, SVG Export Plug-In . SVG Version: 6.00 Build 0)  -->
<svg version="1.1" id="Laag_1" xmlns="http://www.w3.org/2000/svg" xmlns:xlink="http://www.w3.org/1999/xlink" x="0px" y="0px"
	 viewBox="0 0 219 135" style="enable-background:new 0 0 219 135;" xml:space="preserve">
<style type="text/css">
	.st0{fill:#40DD70;}
	.st1{fill:#E854ED;stroke:#B917C1;stroke-miterlimit:10;}
	.st2{fill:url(#SVGID_1_);}
	.st3{fill:#C528CE;}
	.st4{fill:url(#SVGID_2_);}
	.st5{fill:url(#SVGID_3_);}
	.st6{fill:url(#SVGID_4_);}
	.st7{fill:url(#SVGID_5_);}
	.st8{fill:#C528CE;stroke:#C528CE;stroke-miterlimit:10;}
	.st9{fill:none;stroke:#C528CE;stroke-miterlimit:10;}
	.st10{fill:none;stroke:url(#SVGID_6_);stroke-miterlimit:10;}
	.st11{fill:none;stroke:url(#SVGID_7_);stroke-miterlimit:10;}
	.st12{fill:#34ABBB;}
	.st13{fill:#F8B900;}
	.st14{fill:#B0181D;}
	.st15{fill:#CA1A23;}
	.st16{fill:#E7A831;}
	.st17{fill:#64281F;}
</style>
<g>
	<ellipse class="st0" cx="109" cy="66.5" rx="106" ry="62.5"/>
</g>
<g>
	<g>
		<g>
			<path class="st1" d="M111,56c1.5-1.5,3.5-3.1,5.6-4.2c0,0,4.2-1.1,6.3,2.6c2.1,3.6-1.6,9-1.6,9s3.3,1.9,2.4,5.9
				c0,0,3.7,1.2,1.9,4.6c0,0,3.7,2.6-0.4,8.8c-1.2,0.9-2.7,1.6-4.1,2.3c-6.8,3.2-14,5.9-19.7,10.6c-0.2,0.1-0.3,0.2-0.5,0.3
				c-1,0.5-2.6-0.3-2.8-1.4c-2.4-6.7-1.4-13.8,1-20.1C101.8,67.6,105.7,61.3,111,56z"/>
			
				<linearGradient id="SVGID_1_" gradientUnits="userSpaceOnUse" x1="-934.0657" y1="246.8204" x2="-904.6956" y2="229.8636" gradientTransform="matrix(-0.9254 -0.3791 0.3791 -0.9254 -829.9049 -59.9133)">
				<stop  offset="0.2944" style="stop-color:#FBC62A"/>
				<stop  offset="0.9995" style="stop-color:#FB9E03"/>
			</linearGradient>
			<path class="st2" d="M125.7,73.8c1.8-3.4-1.9-4.6-1.9-4.6c0.9-4-2.4-5.9-2.4-5.9s3.6-5.4,1.6-9c-2.1-3.6-6.3-2.6-6.3-2.6
				c1-0.5,2.1-1,3.2-1.3c3.5-0.9,6.6,1.5,6.7,4.6c0.1,2.5-1.2,5-2.5,7.3c1.6,1.5,2.5,3.7,1.6,5.6c0.8,0.5,1.5,1.1,2,1.9
				c0.6,1.1,0.6,2.3,0.1,3.3c1.1,1.7,1.3,3.8,0.6,5.6c-0.6,1.6-1.7,2.8-3.1,3.8C129.4,76.4,125.7,73.8,125.7,73.8z"/>
			<path class="st3" d="M125.7,73.8c1.8-3.4-1.9-4.6-1.9-4.6c0.9-4-2.4-5.9-2.4-5.9s3.6-5.4,1.6-9c-2.1-3.6-6.3-2.6-6.3-2.6
				c1-0.5,2.1-1,3.2-1.3c3.5-0.9,6.6,1.5,6.7,4.6c0.1,2.5-1.2,5-2.5,7.3c1.6,1.5,2.5,3.7,1.6,5.6c0.8,0.5,1.5,1.1,2,1.9
				c0.6,1.1,0.6,2.3,0.1,3.3c1.1,1.7,1.3,3.8,0.6,5.6c-0.6,1.6-1.7,2.8-3.1,3.8C129.4,76.4,125.7,73.8,125.7,73.8z"/>
		</g>
	</g>
	<g>
		<path class="st1" d="M96.4,88.8c5.7-5,14.1-7.2,22-5.9c1.2,0.2,3.3,0.6,5.1,1.2c0.4,0.3,3.5,3.2,1,5.1c0,0,4.7,4.7,1,7.2
			c0,0,1.6,9-8.7,12.3c-4.2-1.1-8-4.1-11.1-7.1c-1.8-1.6-3.5-3.3-5-5.1c-1.8-1.7-3.8-3.5-4.6-5.9c-0.1-0.3-0.1-0.6,0-0.9
			C96,89.4,96.1,89.1,96.4,88.8z"/>
		<path class="st3" d="M125.5,96.4c3.8-2.5-1-7.2-1-7.2c2.5-1.8-0.6-4.8-1-5.1c2.2,0.8,4.1,2.1,3.9,4.1c-0.1,0.5-0.2,0.9-0.4,1.2
			c0.1,0.1,0.2,0.1,0.2,0.2c1.4,1.3,2.9,2.9,2.7,4.9c-0.1,1.5-0.8,2.6-1.8,3.3c0.8,2.4,0.6,4.9-0.7,7c-2.1,3.5-6.6,5-10.7,3.9
			C127.1,105.5,125.5,96.4,125.5,96.4z"/>
	</g>
	<g>
		<path class="st1" d="M89.2,90.9c5.9-5.5,14.4-8,22.3-6.8c1.2,0.2,3.3,0.5,5.1,1.2c0.3,0.3,3.5,3.3,0.9,5.4c0,0,4.7,4.8,0.8,7.6
			c0,0,1.4,9.5-9.1,13.2c-4.2-1.1-7.9-4.2-11-7.3c-1.8-1.7-3.4-3.5-5-5.3c-1.8-1.7-3.8-3.6-4.5-6.1c-0.1-0.3-0.1-0.6,0-0.9
			C88.7,91.5,88.9,91.2,89.2,90.9z"/>
		<path class="st3" d="M118.3,98.2c3.9-2.8-0.8-7.6-0.8-7.6c2.6-2-0.5-5-0.9-5.4c2.2,0.8,4.1,2.1,3.8,4.2c-0.1,0.5-0.2,0.9-0.4,1.3
			c0.1,0.1,0.2,0.1,0.2,0.2c1.4,1.4,2.8,3.1,2.6,5.1c-0.1,1.6-0.9,2.7-1.9,3.5c0.7,2.5,0.5,5.2-0.9,7.5c-2.2,3.8-6.8,5.5-10.9,4.4
			C119.7,107.8,118.3,98.2,118.3,98.2z"/>
	</g>
	<g>
		<g>
			<path class="st1" d="M101.2,51.7c1.6-1.6,3.6-3.2,5.9-4.4c0,0,4.4-1.1,6.6,2.7c2.2,3.8-1.6,9.4-1.6,9.4s3.4,1.9,2.5,6.1
				c0,0,3.9,1.2,2,4.8c0,0,3.9,2.7-0.4,9.2c-1.3,0.9-2.8,1.7-4.3,2.4c-7.1,3.3-14.6,6.2-20.5,11c-0.2,0.1-0.4,0.2-0.6,0.3
				c-1.1,0.6-2.7-0.3-2.9-1.4c-2.5-7-1.5-14.4,1.1-20.9C91.7,63.8,95.7,57.2,101.2,51.7z"/>
			
				<linearGradient id="SVGID_2_" gradientUnits="userSpaceOnUse" x1="-924.1953" y1="246.975" x2="-893.6127" y2="229.3182" gradientTransform="matrix(-0.9254 -0.3791 0.3791 -0.9254 -829.9049 -59.9133)">
				<stop  offset="0.2944" style="stop-color:#FBC62A"/>
				<stop  offset="0.9995" style="stop-color:#FB9E03"/>
			</linearGradient>
			<path class="st4" d="M116.5,70.3c1.9-3.6-2-4.8-2-4.8c0.9-4.2-2.5-6.1-2.5-6.1s3.8-5.6,1.6-9.4c-2.1-3.8-6.5-2.7-6.6-2.7
				c1.1-0.6,2.2-1,3.4-1.3c3.6-1,6.9,1.6,7,4.8c0.1,2.6-1.2,5.3-2.6,7.6c1.7,1.6,2.6,3.8,1.7,5.8c0.9,0.5,1.6,1.1,2.1,2
				c0.7,1.1,0.7,2.4,0.1,3.4c1.2,1.7,1.3,3.9,0.6,5.8c-0.6,1.6-1.8,2.9-3.3,4C120.4,73,116.5,70.3,116.5,70.3z"/>
			<path class="st3" d="M116.5,70.3c1.9-3.6-2-4.8-2-4.8c0.9-4.2-2.5-6.1-2.5-6.1s3.8-5.6,1.6-9.4c-2.1-3.8-6.5-2.7-6.6-2.7
				c1.1-0.6,2.2-1,3.4-1.3c3.6-1,6.9,1.6,7,4.8c0.1,2.6-1.2,5.3-2.6,7.6c1.7,1.6,2.6,3.8,1.7,5.8c0.9,0.5,1.6,1.1,2.1,2
				c0.7,1.1,0.7,2.4,0.1,3.4c1.2,1.7,1.3,3.9,0.6,5.8c-0.6,1.6-1.8,2.9-3.3,4C120.4,73,116.5,70.3,116.5,70.3z"/>
		</g>
	</g>
	<g>
		
			<linearGradient id="SVGID_3_" gradientUnits="userSpaceOnUse" x1="-994.5899" y1="86.8667" x2="-993.1652" y2="89.3344" gradientTransform="matrix(-0.9151 0.4033 -0.4033 -0.9151 -789.1961 569.2765)">
			<stop  offset="0" style="stop-color:#010101"/>
			<stop  offset="1.870000e-02" style="stop-color:#020202"/>
			<stop  offset="0.3894" style="stop-color:#1B1B1B"/>
			<stop  offset="0.7271" style="stop-color:#2B2B2B"/>
			<stop  offset="1" style="stop-color:#303030"/>
		</linearGradient>
		<path class="st5" d="M83.5,88.4c0.3,0.7,1.2,1,1.9,0.7c0.7-0.3,1-1.2,0.7-1.9s-1.2-1-1.9-0.7C83.5,86.8,83.1,87.7,83.5,88.4z"/>
		
			<linearGradient id="SVGID_4_" gradientUnits="userSpaceOnUse" x1="-997.2062" y1="67.4295" x2="-990.9794" y2="78.2146" gradientTransform="matrix(-0.9151 0.4033 -0.4033 -0.9151 -789.1961 569.2765)">
			<stop  offset="0" style="stop-color:#010101"/>
			<stop  offset="0.6406" style="stop-color:#1E1E1E"/>
			<stop  offset="1" style="stop-color:#303030"/>
		</linearGradient>
		<path class="st6" d="M94.2,107.6L94.2,107.6c0.9-0.4,1.2-1.4,0.8-2.3L89,95.5l-1.5,0.6l4.5,10.6C92.3,107.6,93.4,108,94.2,107.6z"
			/>
		
			<linearGradient id="SVGID_5_" gradientUnits="userSpaceOnUse" x1="-996.1522" y1="78.1525" x2="-991.5959" y2="86.0443" gradientTransform="matrix(-0.9151 0.4033 -0.4033 -0.9151 -789.1961 569.2765)">
			<stop  offset="0" style="stop-color:#010101"/>
			<stop  offset="0.7234" style="stop-color:#222222"/>
			<stop  offset="1" style="stop-color:#303030"/>
		</linearGradient>
		<path class="st7" d="M84.4,89.6c0.1-0.9,1.1-1.4,1.8-0.8c0.9,0.7,2,1.9,2.8,4c0.8,1.9,0.9,3.2,0.8,4.2c-0.1,0.9-1.1,1.4-1.8,0.8
			c-0.8-0.6-1.9-1.8-2.8-3.9C84.5,92,84.4,90.6,84.4,89.6z"/>
	</g>
</g>
<polyline class="st8" points="113.5,50.2 101.6,61.9 100.5,63 87.5,75.8 "/>
<path class="st9" d="M102.1,50.9c0,0-5.7,5.9-3.2,13.7"/>
<line class="st9" x1="86.5" y1="84.2" x2="116.7" y2="67.8"/>
<line class="st9" x1="108.4" y1="83.4" x2="97.3" y2="78.3"/>
<path class="st9" d="M103.5,75c0,0,7.6-10.7,1.5-16.4"/>
<line class="st9" x1="95.9" y1="101.9" x2="119.2" y2="93"/>
<line class="st9" x1="97.8" y1="88.6" x2="118.5" y2="88.3"/>
<path class="st9" d="M105.3,109.9c0,0,10-6.4,3.9-13.1"/>
<path class="st9" d="M96.6,89.3c0,0,5.9,4.2,6.8,10.1"/>
<line class="st9" x1="116.1" y1="94.2" x2="105.3" y2="88.6"/>
<linearGradient id="SVGID_6_" gradientUnits="userSpaceOnUse" x1="70.7973" y1="93.0632" x2="84.9498" y2="93.0632" gradientTransform="matrix(1 0 0 -1 0 176)">
	<stop  offset="0" style="stop-color:#010101"/>
	<stop  offset="0.7234" style="stop-color:#222222"/>
	<stop  offset="1" style="stop-color:#303030"/>
</linearGradient>
<path class="st10" d="M84.5,87.8c0,0-10.3-15.6-13.3-7"/>
<linearGradient id="SVGID_7_" gradientUnits="userSpaceOnUse" x1="82.3063" y1="95.8507" x2="87.7171" y2="95.8507" gradientTransform="matrix(1 0 0 -1 0 176)">
	<stop  offset="0" style="stop-color:#010101"/>
	<stop  offset="0.7234" style="stop-color:#222222"/>
	<stop  offset="1" style="stop-color:#303030"/>
</linearGradient>
<path class="st11" d="M84.6,87.9c0,0-5.6-17.8,2.9-14.7"/>
<line class="st9" x1="121.8" y1="53" x2="114.8" y2="58.6"/>
<path class="st9" d="M116.6,64.6c0,0,4.7,0,7.4,3.9"/>
<polyline class="st9" points="126.7,75 123.4,77.5 116.6,82.6 "/>
<line class="st9" x1="118.4" y1="69.3" x2="123.4" y2="77.6"/>
<line class="st9" x1="119.9" y1="87.8" x2="120.9" y2="83.4"/>
<line class="st9" x1="119.9" y1="91.2" x2="126.7" y2="93.3"/>
<line class="st9" x1="124.9" y1="101.6" x2="121.8" y2="98.9"/>
<g>
	<g>
		<g>
			<g>
				<g>
					<path class="st12" d="M172.1,92.3c0,0.5,0.4,2.2,1,2.2s1-1.7,1-2.2c0-0.5-0.4-1-1-1S172.1,91.8,172.1,92.3z"/>
				</g>
				<g>
					<path class="st12" d="M174.5,92.5c-0.4,0.4-1.2,1.9-0.9,2.2c0.4,0.4,1.9-0.5,2.2-0.9c0.4-0.4,0.4-1,0-1.4
						C175.5,92.1,174.8,92.1,174.5,92.5z"/>
				</g>
				<g>
					<path class="st12" d="M176,94.3c-0.5,0-2.2,0.4-2.2,1c0,0.5,1.7,1,2.2,1c0.5,0,1-0.4,1-1C177,94.7,176.5,94.3,176,94.3z"/>
				</g>
				<g>
					<path class="st12" d="M175.8,96.7c-0.4-0.4-1.9-1.2-2.2-0.9c-0.4,0.4,0.5,1.9,0.9,2.2c0.4,0.4,1,0.4,1.4,0
						C176.2,97.7,176.2,97,175.8,96.7z"/>
				</g>
				<g>
					<path class="st12" d="M174,98.2c0-0.5-0.4-2.2-1-2.2c-0.5,0-1,1.7-1,2.2c0,0.5,0.4,1,1,1C173.5,99.2,174,98.7,174,98.2z"/>
				</g>
				<g>
					<path class="st12" d="M171.6,98c0.4-0.4,1.2-1.9,0.9-2.2c-0.4-0.4-1.9,0.5-2.2,0.9c-0.4,0.4-0.4,1,0,1.4
						C170.6,98.4,171.2,98.4,171.6,98z"/>
				</g>
				<g>
					<path class="st12" d="M170.1,96.2c0.5,0,2.2-0.4,2.2-1c0-0.5-1.7-1-2.2-1s-1,0.4-1,1C169.1,95.8,169.6,96.2,170.1,96.2z"/>
				</g>
				<g>
					<path class="st12" d="M170.3,93.8c0.4,0.4,1.9,1.2,2.2,0.9c0.4-0.4-0.5-1.9-0.9-2.2c-0.4-0.4-1-0.4-1.4,0
						C169.9,92.8,169.9,93.4,170.3,93.8z"/>
				</g>
				<g>
					<path class="st12" d="M172.1,92.3c0,0.5,0.4,2.2,1,2.2s1-1.7,1-2.2s-0.4-1-1-1S172.1,91.8,172.1,92.3z"/>
				</g>
			</g>
			<path class="st13" d="M171.7,95.3c0,0.7,0.6,1.3,1.3,1.3s1.3-0.6,1.3-1.3s-0.6-1.3-1.3-1.3C172.3,94,171.7,94.5,171.7,95.3z"/>
		</g>
		<g>
			<g>
				<g>
					<path class="st14" d="M188.4,77.9c0.2,0.6,1.4,2.2,1.9,1.9c0.6-0.2,0.3-2.2,0.1-2.7c-0.2-0.6-0.9-0.9-1.4-0.6
						C188.4,76.7,188.1,77.3,188.4,77.9z"/>
				</g>
				<g>
					<path class="st14" d="M191,77.1c-0.2,0.6-0.6,2.5,0,2.7c0.6,0.2,1.8-1.3,2-1.9c0.2-0.6,0-1.2-0.6-1.5
						C191.9,76.3,191.2,76.6,191,77.1z"/>
				</g>
				<g>
					<path class="st14" d="M193.3,78.4c-0.6,0.2-2.2,1.4-1.9,1.9c0.2,0.6,2.2,0.3,2.7,0.1c0.6-0.2,0.9-0.9,0.6-1.4
						C194.6,78.5,193.9,78.2,193.3,78.4z"/>
				</g>
				<g>
					<path class="st14" d="M194.1,81c-0.6-0.2-2.5-0.6-2.7,0c-0.2,0.6,1.3,1.8,1.9,2c0.6,0.2,1.2,0,1.5-0.6
						C194.9,81.9,194.7,81.3,194.1,81z"/>
				</g>
				<g>
					<path class="st14" d="M192.8,83.4c-0.2-0.6-1.4-2.2-1.9-1.9c-0.6,0.2-0.3,2.2-0.1,2.7s0.9,0.9,1.4,0.6
						C192.7,84.6,193,84,192.8,83.4z"/>
				</g>
				<g>
					<path class="st14" d="M190.2,84.2c0.2-0.6,0.6-2.5,0-2.7c-0.6-0.2-1.8,1.3-2,1.9c-0.2,0.6,0,1.2,0.6,1.5
						C189.3,85,189.9,84.7,190.2,84.2z"/>
				</g>
				<g>
					<path class="st14" d="M187.8,82.9c0.6-0.2,2.2-1.4,1.9-1.9c-0.2-0.6-2.2-0.3-2.7-0.1c-0.6,0.2-0.9,0.9-0.6,1.4
						C186.6,82.8,187.3,83.1,187.8,82.9z"/>
				</g>
				<g>
					<path class="st14" d="M187.1,80.3c0.6,0.2,2.5,0.6,2.7,0c0.2-0.6-1.3-1.8-1.9-2c-0.6-0.2-1.2,0-1.5,0.6
						C186.3,79.4,186.5,80,187.1,80.3z"/>
				</g>
				<g>
					<path class="st14" d="M188.4,77.9c0.2,0.6,1.4,2.2,1.9,1.9c0.6-0.2,0.3-2.2,0.1-2.7c-0.2-0.6-0.9-0.9-1.4-0.6
						C188.4,76.7,188.1,77.3,188.4,77.9z"/>
				</g>
			</g>
			<g>
				<g>
					<path class="st15" d="M189.5,77.3c0,0.6,0.5,2.5,1.1,2.5c0.6,0,1.1-1.9,1.1-2.5s-0.5-1.1-1.1-1.1
						C190,76.2,189.5,76.7,189.5,77.3z"/>
				</g>
				<g>
					<path class="st15" d="M192.2,77.5c-0.4,0.4-1.4,2.1-1,2.6c0.4,0.4,2.1-0.6,2.6-1c0.4-0.4,0.4-1.1,0-1.6
						C193.3,77.1,192.6,77.1,192.2,77.5z"/>
				</g>
				<g>
					<path class="st15" d="M194,79.6c-0.6,0-2.5,0.5-2.5,1.1c0,0.6,1.9,1.1,2.5,1.1c0.6,0,1.1-0.5,1.1-1.1
						C195.1,80.1,194.6,79.6,194,79.6z"/>
				</g>
				<g>
					<path class="st15" d="M193.7,82.3c-0.4-0.4-2.1-1.4-2.6-1c-0.4,0.4,0.6,2.1,1,2.6c0.4,0.4,1.1,0.4,1.6,0
						C194.2,83.4,194.2,82.7,193.7,82.3z"/>
				</g>
				<g>
					<path class="st15" d="M191.7,84c0-0.6-0.5-2.5-1.1-2.5c-0.6,0-1.1,1.9-1.1,2.5s0.5,1.1,1.1,1.1C191.2,85.1,191.7,84.6,191.7,84
						z"/>
				</g>
				<g>
					<path class="st15" d="M189,83.8c0.4-0.4,1.4-2.1,1-2.6c-0.4-0.4-2.1,0.6-2.6,1c-0.4,0.4-0.4,1.1,0,1.6
						C187.8,84.2,188.5,84.2,189,83.8z"/>
				</g>
				<g>
					<path class="st15" d="M187.2,81.7c0.6,0,2.5-0.5,2.5-1.1s-1.9-1.1-2.5-1.1s-1.1,0.5-1.1,1.1C186.1,81.2,186.6,81.7,187.2,81.7z
						"/>
				</g>
				<g>
					<path class="st15" d="M187.4,79c0.4,0.4,2.1,1.4,2.6,1c0.4-0.4-0.6-2.1-1-2.6c-0.4-0.4-1.1-0.4-1.6,0
						C187,77.9,187,78.6,187.4,79z"/>
				</g>
				<g>
					<path class="st15" d="M189.5,77.3c0,0.6,0.5,2.5,1.1,2.5c0.6,0,1.1-1.9,1.1-2.5s-0.5-1.1-1.1-1.1
						C190,76.2,189.5,76.7,189.5,77.3z"/>
				</g>
			</g>
			<path class="st13" d="M188.8,80.6c0,1,0.8,1.8,1.8,1.8c1,0,1.8-0.8,1.8-1.8s-0.8-1.8-1.8-1.8C189.6,78.9,188.8,79.7,188.8,80.6z"
				/>
		</g>
		<g>
			<g>
				<g>
					<path class="st16" d="M172.6,56.1c-0.9,1.4-1.4,4.4,0,5.3c1.4,0.9,4-0.6,4.9-2c0.9-1.4,0.6-3.2-0.8-4.1
						C175.3,54.4,173.5,54.8,172.6,56.1z"/>
				</g>
				<g>
					<path class="st16" d="M178.2,60.8c-1.6-0.1-4.5,1-4.6,2.6c-0.1,1.6,2.5,3.2,4.2,3.3c1.6,0.1,3.1-1.1,3.2-2.7
						C181.1,62.3,179.9,60.9,178.2,60.8z"/>
				</g>
				<g>
					<path class="st16" d="M177,68c-0.7-1.5-3.1-3.4-4.6-2.7c-1.5,0.7-1.5,3.8-0.8,5.3c0.7,1.5,2.5,2.1,4,1.4
						C177.1,71.3,177.7,69.5,177,68z"/>
				</g>
				<g>
					<path class="st16" d="M170.1,70.6c0.9-1.4,1.4-4.4,0-5.3c-1.4-0.9-4,0.6-4.9,2c-0.9,1.4-0.6,3.2,0.8,4.1
						C167.3,72.3,169.2,72,170.1,70.6z"/>
				</g>
				<g>
					<path class="st16" d="M164.5,65.9c1.6,0.1,4.5-1,4.6-2.6s-2.5-3.2-4.2-3.3c-1.6-0.1-3.1,1.1-3.2,2.7
						C161.6,64.4,162.8,65.8,164.5,65.9z"/>
				</g>
				<g>
					<path class="st16" d="M165.7,58.7c0.7,1.5,3.1,3.4,4.6,2.7c1.5-0.7,1.5-3.8,0.8-5.3c-0.7-1.5-2.5-2.1-4-1.4
						C165.6,55.4,165,57.2,165.7,58.7z"/>
				</g>
			</g>
			<g>
				<g>
					<path class="st13" d="M175.6,57.4c-1.4,0.8-3.1,3.4-2.3,4.8c0.8,1.4,3.9,1.2,5.3,0.4c1.4-0.8,1.9-2.6,1.1-4.1
						C178.8,57,177,56.5,175.6,57.4z"/>
				</g>
				<g>
					<path class="st13" d="M178.7,64c-1.4-0.8-4.5-1.1-5.3,0.4c-0.8,1.4,0.9,4,2.3,4.8s3.2,0.3,4.1-1.1
						C180.6,66.7,180.1,64.9,178.7,64z"/>
				</g>
				<g>
					<path class="st13" d="M174.4,70c0-1.6-1.3-4.4-3-4.4c-1.6,0-3,2.8-3,4.4c0,1.6,1.3,3,3,3C173.1,73,174.4,71.7,174.4,70z"/>
				</g>
				<g>
					<path class="st13" d="M167.1,69.4c1.4-0.8,3.1-3.4,2.3-4.8c-0.8-1.4-3.9-1.2-5.3-0.4c-1.4,0.8-1.9,2.6-1.1,4.1
						S165.7,70.2,167.1,69.4z"/>
				</g>
				<g>
					<path class="st13" d="M164,62.7c1.4,0.8,4.5,1.1,5.3-0.4s-0.9-4-2.3-4.8s-3.2-0.3-4.1,1.1C162.1,60,162.6,61.9,164,62.7z"/>
				</g>
				<g>
					<path class="st13" d="M168.3,56.7c0,1.6,1.3,4.4,3,4.4s3-2.8,3-4.4s-1.3-3-3-3C169.6,53.7,168.3,55,168.3,56.7z"/>
				</g>
			</g>
			<ellipse class="st15" cx="171.1" cy="63.4" rx="2.8" ry="2.8"/>
		</g>
		<g>
			<g>
				<g>
					<g>
						<path class="st14" d="M152.3,80.1c0.5,1.4,3.3,5.2,4.7,4.7c1.4-0.5,0.8-5.2,0.3-6.6c-0.5-1.4-2.1-2.1-3.5-1.5
							C152.5,77.2,151.8,78.7,152.3,80.1z"/>
					</g>
					<g>
						<path class="st14" d="M158.6,78.2c-0.6,1.3-1.4,6,0,6.6s4.3-3.1,4.9-4.5s0-2.9-1.4-3.5C160.8,76.3,159.2,76.9,158.6,78.2z"/>
					</g>
					<g>
						<path class="st14" d="M164.4,81.4c-1.4,0.5-5.2,3.3-4.7,4.7c0.5,1.4,5.2,0.8,6.6,0.3c1.4-0.5,2.1-2.1,1.5-3.5
							C167.3,81.5,165.7,80.9,164.4,81.4z"/>
					</g>
					<g>
						<path class="st14" d="M166.2,87.7c-1.3-0.6-6-1.4-6.6,0c-0.6,1.3,3.1,4.3,4.5,4.9c1.3,0.6,2.9,0,3.5-1.4
							C168.2,89.9,167.5,88.3,166.2,87.7z"/>
					</g>
					<g>
						<path class="st14" d="M163.1,93.4c-0.5-1.4-3.3-5.2-4.7-4.7s-0.8,5.2-0.3,6.6c0.5,1.4,2.1,2.1,3.5,1.5
							C162.9,96.3,163.6,94.8,163.1,93.4z"/>
					</g>
					<g>
						<path class="st14" d="M156.8,95.3c0.6-1.3,1.4-6,0-6.6c-1.3-0.6-4.3,3.1-4.9,4.5c-0.6,1.3,0,2.9,1.4,3.5
							C154.6,97.2,156.2,96.6,156.8,95.3z"/>
					</g>
					<g>
						<path class="st14" d="M151,92.1c1.4-0.5,5.2-3.3,4.7-4.7c-0.5-1.4-5.2-0.8-6.6-0.3c-1.4,0.5-2.1,2.1-1.5,3.5
							C148.1,92,149.6,92.7,151,92.1z"/>
					</g>
					<g>
						<path class="st14" d="M149.2,85.8c1.3,0.6,6,1.4,6.6,0c0.6-1.3-3.1-4.3-4.5-4.9s-2.9,0-3.5,1.4
							C147.2,83.7,147.8,85.2,149.2,85.8z"/>
					</g>
					<g>
						<path class="st14" d="M152.3,80.1c0.5,1.4,3.3,5.2,4.7,4.7c1.4-0.5,0.8-5.2,0.3-6.6c-0.5-1.4-2.1-2.1-3.5-1.5
							C152.5,77.2,151.8,78.7,152.3,80.1z"/>
					</g>
				</g>
				<g>
					<g>
						<path class="st15" d="M155.1,78.6c0,1.5,1.2,6.1,2.7,6.1s2.7-4.6,2.7-6.1c0-1.5-1.2-2.7-2.7-2.7
							C156.3,75.9,155.1,77.1,155.1,78.6z"/>
					</g>
					<g>
						<path class="st15" d="M161.6,79.2c-1,1-3.5,5.1-2.4,6.2c1,1,5.1-1.4,6.2-2.4c1-1,1-2.7,0-3.8
							C164.4,78.1,162.7,78.1,161.6,79.2z"/>
					</g>
					<g>
						<path class="st15" d="M165.8,84.2c-1.5,0-6.1,1.2-6.1,2.7c0,1.5,4.6,2.7,6.1,2.7c1.5,0,2.7-1.2,2.7-2.7
							C168.5,85.4,167.3,84.2,165.8,84.2z"/>
					</g>
					<g>
						<path class="st15" d="M165.3,90.7c-1-1-5.1-3.5-6.2-2.4c-1,1,1.4,5.1,2.4,6.2c1,1,2.7,1,3.8,0
							C166.3,93.4,166.3,91.7,165.3,90.7z"/>
					</g>
					<g>
						<path class="st15" d="M160.3,94.9c0-1.5-1.2-6.1-2.7-6.1c-1.5,0-2.7,4.6-2.7,6.1c0,1.5,1.2,2.7,2.7,2.7S160.3,96.4,160.3,94.9
							z"/>
					</g>
					<g>
						<path class="st15" d="M153.8,94.4c1-1,3.5-5.1,2.4-6.2c-1-1-5.1,1.4-6.2,2.4c-1,1-1,2.7,0,3.8C151,95.4,152.7,95.4,153.8,94.4
							z"/>
					</g>
					<g>
						<path class="st15" d="M149.5,89.3c1.5,0,6.1-1.2,6.1-2.7S151,84,149.5,84c-1.5,0-2.7,1.2-2.7,2.7
							C146.9,88.1,148.1,89.3,149.5,89.3z"/>
					</g>
					<g>
						<path class="st15" d="M150.1,82.8c1,1,5.1,3.5,6.2,2.4c1-1-1.4-5.1-2.4-6.2c-1-1-2.7-1-3.8,0C149,80.1,149,81.8,150.1,82.8z"
							/>
					</g>
					<g>
						<path class="st15" d="M155.1,78.6c0,1.5,1.2,6.1,2.7,6.1s2.7-4.6,2.7-6.1c0-1.5-1.2-2.7-2.7-2.7
							C156.3,75.9,155.1,77.1,155.1,78.6z"/>
					</g>
				</g>
				<path class="st13" d="M153.4,86.8c0,2.4,1.9,4.3,4.3,4.3s4.3-1.9,4.3-4.3s-1.9-4.3-4.3-4.3S153.4,84.4,153.4,86.8z"/>
			</g>
			<g>
				<path class="st17" d="M155.2,84.5c0,0.2,0.2,0.4,0.4,0.4c0.2,0,0.4-0.2,0.4-0.4s-0.2-0.4-0.4-0.4S155.2,84.3,155.2,84.5z"/>
				<path class="st17" d="M157,83.5c0,0.2,0.2,0.4,0.4,0.4c0.2,0,0.4-0.2,0.4-0.4s-0.2-0.4-0.4-0.4C157.2,83.1,157,83.3,157,83.5z"
					/>
				<path class="st17" d="M159.1,84.4c0,0.2,0.2,0.4,0.4,0.4c0.2,0,0.4-0.2,0.4-0.4c0-0.2-0.2-0.4-0.4-0.4
					C159.3,84,159.1,84.2,159.1,84.4z"/>
				<path class="st17" d="M157.1,85.2c0,0.2,0.2,0.4,0.4,0.4c0.2,0,0.4-0.2,0.4-0.4s-0.2-0.4-0.4-0.4
					C157.3,84.8,157.1,85,157.1,85.2z"/>
				<path class="st17" d="M158.6,86.9c0,0.2,0.2,0.4,0.4,0.4c0.2,0,0.4-0.2,0.4-0.4s-0.2-0.4-0.4-0.4
					C158.8,86.5,158.6,86.6,158.6,86.9z"/>
				<path class="st17" d="M160.1,86c0,0.2,0.2,0.4,0.4,0.4c0.2,0,0.4-0.2,0.4-0.4s-0.2-0.4-0.4-0.4C160.3,85.6,160.1,85.8,160.1,86z
					"/>
				<path class="st17" d="M154.1,86.2c0,0.2,0.2,0.4,0.4,0.4c0.2,0,0.4-0.2,0.4-0.4s-0.2-0.4-0.4-0.4
					C154.3,85.8,154.1,86,154.1,86.2z"/>
				<path class="st17" d="M154.5,88.2c0,0.2,0.2,0.4,0.4,0.4c0.2,0,0.4-0.2,0.4-0.4s-0.2-0.4-0.4-0.4
					C154.7,87.8,154.5,88,154.5,88.2z"/>
				<path class="st17" d="M156.3,89.8c0,0.2,0.2,0.4,0.4,0.4c0.2,0,0.4-0.2,0.4-0.4s-0.2-0.4-0.4-0.4
					C156.5,89.4,156.3,89.6,156.3,89.8z"/>
				<path class="st17" d="M156.8,88c0,0.2,0.2,0.4,0.4,0.4c0.2,0,0.4-0.2,0.4-0.4s-0.2-0.4-0.4-0.4C157,87.6,156.8,87.8,156.8,88z"
					/>
				<path class="st17" d="M155.9,86.4c0,0.2,0.2,0.4,0.4,0.4c0.2,0,0.4-0.2,0.4-0.4s-0.2-0.4-0.4-0.4
					C156.1,86,155.9,86.2,155.9,86.4z"/>
				<path class="st17" d="M158.6,89.4c0,0.2,0.2,0.4,0.4,0.4c0.2,0,0.4-0.2,0.4-0.4S159.2,89,159,89C158.8,89,158.6,89.2,158.6,89.4
					z"/>
				<path class="st17" d="M159.8,88c0,0.2,0.2,0.4,0.4,0.4c0.2,0,0.4-0.2,0.4-0.4s-0.2-0.4-0.4-0.4C160,87.6,159.8,87.8,159.8,88z"
					/>
			</g>
		</g>
		<g>
			<g>
				<g>
					<g>
						<path class="st12" d="M193.4,57.9c0,1.1,0.9,4.4,1.9,4.4s1.9-3.3,1.9-4.4c0-1.1-0.9-1.9-1.9-1.9
							C194.2,56,193.4,56.8,193.4,57.9z"/>
					</g>
					<g>
						<path class="st12" d="M198,58.3c-0.8,0.7-2.5,3.7-1.7,4.4c0.8,0.7,3.7-1,4.4-1.7c0.8-0.7,0.8-2,0-2.7
							C200,57.5,198.8,57.5,198,58.3z"/>
					</g>
					<g>
						<path class="st12" d="M201.1,61.9c-1.1,0-4.4,0.9-4.4,1.9s3.3,1.9,4.4,1.9c1.1,0,1.9-0.9,1.9-1.9
							C203,62.8,202.1,61.9,201.1,61.9z"/>
					</g>
					<g>
						<path class="st12" d="M200.7,66.6c-0.8-0.8-3.7-2.5-4.4-1.7c-0.8,0.7,1,3.7,1.7,4.4s2,0.7,2.7,0
							C201.4,68.5,201.4,67.3,200.7,66.6z"/>
					</g>
					<g>
						<path class="st12" d="M197.1,69.6c0-1.1-0.9-4.4-1.9-4.4c-1.1,0-1.9,3.3-1.9,4.4s0.9,1.9,1.9,1.9
							C196.2,71.5,197.1,70.7,197.1,69.6z"/>
					</g>
					<g>
						<path class="st12" d="M192.4,69.2c0.8-0.7,2.5-3.7,1.7-4.4c-0.8-0.8-3.7,1-4.4,1.7c-0.8,0.7-0.8,2,0,2.7
							C190.4,70,191.6,70,192.4,69.2z"/>
					</g>
					<g>
						<path class="st12" d="M189.4,65.6c1.1,0,4.4-0.9,4.4-1.9c0-1.1-3.3-1.9-4.4-1.9c-1.1,0-1.9,0.9-1.9,1.9
							C187.4,64.8,188.3,65.6,189.4,65.6z"/>
					</g>
					<g>
						<path class="st12" d="M189.8,60.9c0.8,0.8,3.7,2.5,4.4,1.7c0.8-0.8-1-3.7-1.7-4.4c-0.8-0.8-2-0.8-2.7,0
							C189,59,189,60.2,189.8,60.9z"/>
					</g>
					<g>
						<path class="st12" d="M193.4,57.9c0,1.1,0.9,4.4,1.9,4.4s1.9-3.3,1.9-4.4c0-1.1-0.9-1.9-1.9-1.9S193.4,56.8,193.4,57.9z"/>
					</g>
				</g>
				<path class="st13" d="M191.5,63.8c0,2,1.6,3.7,3.7,3.7s3.7-1.6,3.7-3.7c0-2-1.6-3.7-3.7-3.7S191.5,61.7,191.5,63.8z"/>
			</g>
			<g>
				<g>
					<path class="st17" d="M193.6,62.1c0,0.2,0.1,0.3,0.3,0.3s0.3-0.1,0.3-0.3c0-0.2-0.1-0.3-0.3-0.3S193.6,62,193.6,62.1z"/>
					<path class="st17" d="M193.6,60.9c0,0.2,0.1,0.3,0.3,0.3s0.3-0.1,0.3-0.3c0-0.2-0.1-0.3-0.3-0.3S193.6,60.7,193.6,60.9z"/>
					<path class="st17" d="M192.2,62.4c0,0.2,0.1,0.3,0.3,0.3c0.2,0,0.3-0.1,0.3-0.3c0-0.2-0.1-0.3-0.3-0.3
						C192.3,62.1,192.2,62.2,192.2,62.4z"/>
					<path class="st17" d="M191.9,64.7c0,0.2,0.1,0.3,0.3,0.3c0.2,0,0.3-0.1,0.3-0.3c0-0.2-0.1-0.3-0.3-0.3
						C192,64.4,191.9,64.6,191.9,64.7z"/>
					<path class="st17" d="M193.1,66.2c0,0.2,0.1,0.3,0.3,0.3c0.2,0,0.3-0.1,0.3-0.3s-0.1-0.3-0.3-0.3
						C193.2,65.9,193.1,66.1,193.1,66.2z"/>
					<path class="st17" d="M195.4,66.7c0,0.2,0.1,0.3,0.3,0.3c0.2,0,0.3-0.1,0.3-0.3c0-0.2-0.1-0.3-0.3-0.3
						C195.5,66.4,195.4,66.5,195.4,66.7z"/>
					<path class="st17" d="M197.5,65.6c0,0.2,0.1,0.3,0.3,0.3c0.2,0,0.3-0.1,0.3-0.3s-0.1-0.3-0.3-0.3S197.5,65.5,197.5,65.6z"/>
					<path class="st17" d="M197.5,61.9c0,0.2,0.1,0.3,0.3,0.3c0.2,0,0.3-0.1,0.3-0.3c0-0.2-0.1-0.3-0.3-0.3S197.5,61.8,197.5,61.9z"
						/>
					<path class="st17" d="M195.8,60.9c0,0.2,0.1,0.3,0.3,0.3s0.3-0.1,0.3-0.3c0-0.2-0.1-0.3-0.3-0.3S195.8,60.7,195.8,60.9z"/>
					<path class="st17" d="M194.9,61.7c0,0.2,0.1,0.3,0.3,0.3c0.2,0,0.3-0.1,0.3-0.3c0-0.2-0.1-0.3-0.3-0.3
						C195.1,61.4,194.9,61.5,194.9,61.7z"/>
					<path class="st17" d="M196.5,62.6c0,0.2,0.1,0.3,0.3,0.3s0.3-0.1,0.3-0.3c0-0.2-0.1-0.3-0.3-0.3S196.5,62.4,196.5,62.6z"/>
					<circle class="st17" cx="195.2" cy="62.7" r="0.3"/>
					<path class="st17" d="M195.8,63.8c0,0.2,0.1,0.3,0.3,0.3s0.3-0.1,0.3-0.3c0-0.2-0.1-0.3-0.3-0.3S195.8,63.6,195.8,63.8z"/>
					<path class="st17" d="M197.8,63.6c0,0.2,0.1,0.3,0.3,0.3c0.2,0,0.3-0.1,0.3-0.3c0-0.2-0.1-0.3-0.3-0.3
						C197.9,63.3,197.8,63.4,197.8,63.6z"/>
					<path class="st17" d="M192.8,63.4c0,0.2,0.1,0.3,0.3,0.3c0.2,0,0.3-0.1,0.3-0.3c0-0.2-0.1-0.3-0.3-0.3
						C192.9,63.1,192.8,63.2,192.8,63.4z"/>
					<path class="st17" d="M193.1,64.8c0,0.2,0.1,0.3,0.3,0.3c0.2,0,0.3-0.1,0.3-0.3c0-0.2-0.1-0.3-0.3-0.3
						C193.2,64.5,193.1,64.7,193.1,64.8z"/>
					<path class="st17" d="M194.4,65.9c0,0.2,0.1,0.3,0.3,0.3c0.2,0,0.3-0.1,0.3-0.3s-0.1-0.3-0.3-0.3S194.4,65.8,194.4,65.9z"/>
					<path class="st17" d="M194.7,64.7c0,0.2,0.1,0.3,0.3,0.3s0.3-0.1,0.3-0.3c0-0.2-0.1-0.3-0.3-0.3S194.7,64.5,194.7,64.7z"/>
					<path class="st17" d="M194.1,63.5c0,0.2,0.1,0.3,0.3,0.3s0.3-0.1,0.3-0.3c0-0.2-0.1-0.3-0.3-0.3S194.1,63.3,194.1,63.5z"/>
					<path class="st17" d="M196,65.6c0,0.2,0.1,0.3,0.3,0.3s0.3-0.1,0.3-0.3c0-0.2-0.1-0.3-0.3-0.3C196.1,65.3,196,65.5,196,65.6z"
						/>
					<path class="st17" d="M196.8,64.4c0,0.2,0.1,0.3,0.3,0.3c0.2,0,0.3-0.1,0.3-0.3c0-0.2-0.1-0.3-0.3-0.3
						C196.9,64.2,196.8,64.3,196.8,64.4z"/>
				</g>
			</g>
		</g>
		<g>
			<g>
				<g>
					<g>
						<path class="st13" d="M142,63.8c0,0.9,0.7,3.7,1.6,3.7c0.9,0,1.6-2.8,1.6-3.7c0-0.9-0.7-1.6-1.6-1.6
							C142.7,62.1,142,62.8,142,63.8z"/>
					</g>
					<g>
						<path class="st13" d="M146,64.1c-0.6,0.6-2.1,3.2-1.5,3.8c0.6,0.6,3.2-0.8,3.8-1.5c0.6-0.6,0.6-1.7,0-2.3
							C147.6,63.5,146.6,63.5,146,64.1z"/>
					</g>
					<g>
						<path class="st13" d="M148.6,67.2c-0.9,0-3.7,0.7-3.7,1.6s2.8,1.6,3.7,1.6c0.9,0,1.6-0.7,1.6-1.6S149.5,67.2,148.6,67.2z"/>
					</g>
					<g>
						<path class="st13" d="M148.2,71.2c-0.6-0.6-3.2-2.1-3.8-1.5c-0.6,0.6,0.8,3.2,1.5,3.8c0.6,0.6,1.7,0.6,2.3,0
							C148.9,72.8,148.9,71.8,148.2,71.2z"/>
					</g>
					<g>
						<path class="st13" d="M145.1,73.8c0-0.9-0.7-3.7-1.6-3.7s-1.6,2.8-1.6,3.7s0.7,1.6,1.6,1.6S145.1,74.7,145.1,73.8z"/>
					</g>
					<g>
						<path class="st13" d="M141.1,73.4c0.6-0.6,2.1-3.2,1.5-3.8c-0.6-0.6-3.2,0.8-3.8,1.5c-0.6,0.6-0.6,1.7,0,2.3
							C139.5,74.1,140.5,74.1,141.1,73.4z"/>
					</g>
					<g>
						<path class="st13" d="M138.5,70.3c0.9,0,3.7-0.7,3.7-1.6s-2.8-1.6-3.7-1.6c-0.9,0-1.6,0.7-1.6,1.6S137.6,70.3,138.5,70.3z"/>
					</g>
					<g>
						<path class="st13" d="M138.9,66.3c0.6,0.6,3.2,2.1,3.8,1.5c0.6-0.6-0.8-3.2-1.5-3.8c-0.6-0.6-1.7-0.6-2.3,0
							C138.2,64.7,138.2,65.7,138.9,66.3z"/>
					</g>
					<g>
						<path class="st13" d="M142,63.8c0,0.9,0.7,3.7,1.6,3.7c0.9,0,1.6-2.8,1.6-3.7c0-0.9-0.7-1.6-1.6-1.6
							C142.7,62.1,142,62.8,142,63.8z"/>
					</g>
				</g>
				<path class="st15" d="M140.4,68.8c0,1.7,1.4,3.1,3.1,3.1s3.1-1.4,3.1-3.1s-1.4-3.1-3.1-3.1S140.4,67,140.4,68.8z"/>
			</g>
			<g>
				<g>
					<path class="st17" d="M142.2,67.4c0,0.1,0.1,0.2,0.2,0.2c0.1,0,0.3-0.1,0.3-0.2c0-0.1-0.1-0.3-0.3-0.3
						C142.3,67.1,142.2,67.2,142.2,67.4z"/>
					<path class="st17" d="M142.2,66.3c0,0.1,0.1,0.2,0.2,0.2c0.1,0,0.3-0.1,0.3-0.2c0-0.1-0.1-0.2-0.3-0.2
						C142.3,66,142.2,66.2,142.2,66.3z"/>
					<path class="st17" d="M141,67.6c0,0.1,0.1,0.2,0.2,0.2c0.1,0,0.2-0.1,0.2-0.2c0-0.1-0.1-0.3-0.2-0.3
						C141.1,67.3,141,67.4,141,67.6z"/>
					<path class="st17" d="M140.7,69.6c0,0.1,0.1,0.2,0.2,0.2c0.1,0,0.2-0.1,0.2-0.2c0-0.1-0.1-0.2-0.2-0.2
						C140.8,69.3,140.7,69.5,140.7,69.6z"/>
					<path class="st17" d="M141.7,70.9c0,0.1,0.1,0.2,0.3,0.2c0.1,0,0.2-0.1,0.2-0.2c0-0.1-0.1-0.2-0.2-0.2
						C141.9,70.6,141.7,70.7,141.7,70.9z"/>
					<path class="st17" d="M143.7,71.3c0,0.1,0.1,0.2,0.2,0.2c0.1,0,0.3-0.1,0.3-0.2c0-0.1-0.1-0.2-0.3-0.2
						C143.8,71,143.7,71.1,143.7,71.3z"/>
					<path class="st17" d="M145.5,70.3c0,0.1,0.1,0.2,0.2,0.2c0.1,0,0.3-0.1,0.3-0.2c0-0.1-0.1-0.2-0.3-0.2
						C145.6,70.1,145.5,70.2,145.5,70.3z"/>
					<path class="st17" d="M145.5,67.2c0,0.1,0.1,0.2,0.2,0.2c0.1,0,0.3-0.1,0.3-0.2c0-0.1-0.1-0.2-0.3-0.2
						C145.6,67,145.5,67.1,145.5,67.2z"/>
					<path class="st17" d="M144.1,66.3c0,0.1,0.1,0.2,0.2,0.2c0.1,0,0.3-0.1,0.3-0.2c0-0.1-0.1-0.2-0.3-0.2
						C144.2,66,144.1,66.2,144.1,66.3z"/>
					<path class="st17" d="M143.3,67c0,0.1,0.1,0.2,0.3,0.2s0.2-0.1,0.2-0.2s-0.1-0.3-0.2-0.3C143.4,66.7,143.3,66.8,143.3,67z"/>
					<path class="st17" d="M144.6,67.7c0,0.1,0.1,0.2,0.3,0.2c0.1,0,0.2-0.1,0.2-0.2c0-0.1-0.1-0.2-0.2-0.2
						C144.7,67.5,144.6,67.6,144.6,67.7z"/>
					<path class="st17" d="M143.3,67.8c0,0.1,0.1,0.3,0.2,0.3c0.1,0,0.2-0.1,0.2-0.3c0-0.1-0.1-0.2-0.2-0.2
						C143.4,67.6,143.3,67.7,143.3,67.8z"/>
					<path class="st17" d="M144.1,68.8c0,0.1,0.1,0.3,0.3,0.3c0.1,0,0.2-0.1,0.2-0.3c0-0.1-0.1-0.2-0.2-0.2
						C144.2,68.5,144.1,68.7,144.1,68.8z"/>
					<path class="st17" d="M145.7,68.6c0,0.1,0.1,0.2,0.2,0.2c0.1,0,0.3-0.1,0.3-0.2c0-0.1-0.1-0.3-0.3-0.3
						C145.8,68.3,145.7,68.4,145.7,68.6z"/>
					<path class="st17" d="M141.5,68.4c0,0.1,0.1,0.2,0.2,0.2c0.1,0,0.2-0.1,0.2-0.2c0-0.1-0.1-0.2-0.2-0.2
						C141.6,68.2,141.5,68.3,141.5,68.4z"/>
					<path class="st17" d="M141.7,69.7c0,0.1,0.1,0.2,0.3,0.2c0.1,0,0.2-0.1,0.2-0.2c0-0.1-0.1-0.2-0.2-0.2
						C141.9,69.4,141.7,69.5,141.7,69.7z"/>
					<path class="st17" d="M142.8,70.6c0,0.1,0.1,0.2,0.2,0.2c0.1,0,0.2-0.1,0.2-0.2c0-0.1-0.1-0.2-0.2-0.2
						C142.9,70.4,142.8,70.5,142.8,70.6z"/>
					<path class="st17" d="M143.1,69.5c0,0.1,0.1,0.2,0.2,0.2c0.1,0,0.3-0.1,0.3-0.2c0-0.1-0.1-0.3-0.3-0.3S143.1,69.4,143.1,69.5z"
						/>
					<path class="st17" d="M142.6,68.5c0,0.1,0.1,0.2,0.3,0.2c0.1,0,0.2-0.1,0.2-0.2c0-0.1-0.1-0.2-0.2-0.2
						C142.7,68.3,142.6,68.4,142.6,68.5z"/>
					<path class="st17" d="M144.2,70.4c0,0.1,0.1,0.2,0.2,0.2c0.1,0,0.2-0.1,0.2-0.2c0-0.1-0.1-0.3-0.2-0.3
						C144.3,70.1,144.2,70.2,144.2,70.4z"/>
					<path class="st17" d="M144.9,69.3c0,0.1,0.1,0.2,0.3,0.2s0.3-0.1,0.3-0.2c0-0.1-0.1-0.2-0.3-0.2
						C145,69.1,144.9,69.2,144.9,69.3z"/>
				</g>
			</g>
		</g>
	</g>
</g>
<g>
	<g>
		<g>
			<g>
				<g>
					<path class="st12" d="M43.5,90.3c0,0.5,0.4,2.2,1,2.2c0.5,0,1-1.7,1-2.2c0-0.5-0.4-1-1-1C43.9,89.3,43.5,89.7,43.5,90.3z"/>
				</g>
				<g>
					<path class="st12" d="M45.9,90.5c-0.4,0.4-1.2,1.9-0.9,2.2c0.4,0.4,1.9-0.5,2.2-0.9c0.4-0.4,0.4-1,0-1.4
						C46.9,90.1,46.3,90.1,45.9,90.5z"/>
				</g>
				<g>
					<path class="st12" d="M47.4,92.3c-0.5,0-2.2,0.4-2.2,1c0,0.5,1.7,1,2.2,1c0.5,0,1-0.4,1-1C48.4,92.7,47.9,92.3,47.4,92.3z"/>
				</g>
				<g>
					<path class="st12" d="M47.2,94.6c-0.4-0.4-1.9-1.2-2.2-0.9c-0.4,0.4,0.5,1.9,0.9,2.2c0.4,0.4,1,0.4,1.4,0
						C47.6,95.6,47.6,95,47.2,94.6z"/>
				</g>
				<g>
					<path class="st12" d="M45.4,96.2c0-0.5-0.4-2.2-1-2.2c-0.5,0-1,1.7-1,2.2c0,0.5,0.4,1,1,1C45,97.1,45.4,96.7,45.4,96.2z"/>
				</g>
				<g>
					<path class="st12" d="M43,96c0.4-0.4,1.2-1.9,0.9-2.2c-0.4-0.4-1.9,0.5-2.2,0.9c-0.4,0.4-0.4,1,0,1.4C42,96.3,42.7,96.3,43,96z
						"/>
				</g>
				<g>
					<path class="st12" d="M41.5,94.2c0.5,0,2.2-0.4,2.2-1c0-0.5-1.7-1-2.2-1c-0.5,0-1,0.4-1,1C40.5,93.7,41,94.2,41.5,94.2z"/>
				</g>
				<g>
					<path class="st12" d="M41.7,91.8c0.4,0.4,1.9,1.2,2.2,0.9c0.4-0.4-0.5-1.9-0.9-2.2c-0.4-0.4-1-0.4-1.4,0
						C41.3,90.8,41.3,91.4,41.7,91.8z"/>
				</g>
				<g>
					<path class="st12" d="M43.5,90.3c0,0.5,0.4,2.2,1,2.2c0.5,0,1-1.7,1-2.2s-0.4-1-1-1C43.9,89.3,43.5,89.7,43.5,90.3z"/>
				</g>
			</g>
			<path class="st13" d="M43.2,93.2c0,0.7,0.6,1.3,1.3,1.3s1.3-0.6,1.3-1.3s-0.6-1.3-1.3-1.3C43.8,91.9,43.2,92.5,43.2,93.2z"/>
		</g>
		<g>
			<g>
				<g>
					<path class="st14" d="M59.8,75.8c0.2,0.6,1.4,2.2,1.9,1.9c0.6-0.2,0.3-2.2,0.1-2.7c-0.2-0.6-0.9-0.9-1.4-0.6
						C59.8,74.6,59.6,75.3,59.8,75.8z"/>
				</g>
				<g>
					<path class="st14" d="M62.4,75.1c-0.2,0.6-0.6,2.5,0,2.7c0.6,0.2,1.8-1.3,2-1.9c0.2-0.6,0-1.2-0.6-1.5
						C63.3,74.3,62.6,74.5,62.4,75.1z"/>
				</g>
				<g>
					<path class="st14" d="M64.8,76.4c-0.6,0.2-2.2,1.4-1.9,1.9c0.2,0.6,2.2,0.3,2.7,0.1c0.6-0.2,0.9-0.9,0.6-1.4
						C66,76.4,65.3,76.2,64.8,76.4z"/>
				</g>
				<g>
					<path class="st14" d="M65.5,79c-0.6-0.2-2.5-0.6-2.7,0c-0.2,0.6,1.3,1.8,1.9,2c0.6,0.2,1.2,0,1.5-0.6
						C66.3,79.9,66.1,79.2,65.5,79z"/>
				</g>
				<g>
					<path class="st14" d="M64.2,81.4c-0.2-0.6-1.4-2.2-1.9-1.9c-0.6,0.2-0.3,2.2-0.1,2.7c0.2,0.6,0.9,0.9,1.4,0.6
						C64.2,82.6,64.4,81.9,64.2,81.4z"/>
				</g>
				<g>
					<path class="st14" d="M61.6,82.1c0.2-0.6,0.6-2.5,0-2.7c-0.6-0.2-1.8,1.3-2,1.9c-0.2,0.6,0,1.2,0.6,1.5
						C60.7,82.9,61.4,82.7,61.6,82.1z"/>
				</g>
				<g>
					<path class="st14" d="M59.2,80.8c0.6-0.2,2.2-1.4,1.9-1.9c-0.2-0.6-2.2-0.3-2.7-0.1c-0.6,0.2-0.9,0.9-0.6,1.4
						C58,80.8,58.7,81,59.2,80.8z"/>
				</g>
				<g>
					<path class="st14" d="M58.5,78.2c0.6,0.2,2.5,0.6,2.7,0c0.2-0.6-1.3-1.8-1.9-2c-0.6-0.2-1.2,0-1.5,0.6
						C57.7,77.3,57.9,78,58.5,78.2z"/>
				</g>
				<g>
					<path class="st14" d="M59.8,75.8c0.2,0.6,1.4,2.2,1.9,1.9c0.6-0.2,0.3-2.2,0.1-2.7c-0.2-0.6-0.9-0.9-1.4-0.6
						C59.8,74.6,59.6,75.3,59.8,75.8z"/>
				</g>
			</g>
			<g>
				<g>
					<path class="st15" d="M60.9,75.2c0,0.6,0.5,2.5,1.1,2.5s1.1-1.9,1.1-2.5s-0.5-1.1-1.1-1.1C61.4,74.1,60.9,74.6,60.9,75.2z"/>
				</g>
				<g>
					<path class="st15" d="M63.6,75.5c-0.4,0.4-1.4,2.1-1,2.6c0.4,0.4,2.1-0.6,2.6-1c0.4-0.4,0.4-1.1,0-1.6
						C64.8,75,64.1,75,63.6,75.5z"/>
				</g>
				<g>
					<path class="st15" d="M65.4,77.5c-0.6,0-2.5,0.5-2.5,1.1c0,0.6,1.9,1.1,2.5,1.1c0.6,0,1.1-0.5,1.1-1.1
						C66.5,78,66,77.5,65.4,77.5z"/>
				</g>
				<g>
					<path class="st15" d="M65.1,80.2c-0.4-0.4-2.1-1.4-2.6-1c-0.4,0.4,0.6,2.1,1,2.6c0.4,0.4,1.1,0.4,1.6,0
						C65.6,81.4,65.6,80.7,65.1,80.2z"/>
				</g>
				<g>
					<path class="st15" d="M63.1,82c0-0.6-0.5-2.5-1.1-2.5s-1.1,1.9-1.1,2.5s0.5,1.1,1.1,1.1C62.6,83.1,63.1,82.6,63.1,82z"/>
				</g>
				<g>
					<path class="st15" d="M60.4,81.7c0.4-0.4,1.4-2.1,1-2.6c-0.4-0.4-2.1,0.6-2.6,1c-0.4,0.4-0.4,1.1,0,1.6
						C59.2,82.2,59.9,82.2,60.4,81.7z"/>
				</g>
				<g>
					<path class="st15" d="M58.6,79.7c0.6,0,2.5-0.5,2.5-1.1s-1.9-1.1-2.5-1.1s-1.1,0.5-1.1,1.1C57.5,79.2,58,79.7,58.6,79.7z"/>
				</g>
				<g>
					<path class="st15" d="M58.8,77c0.4,0.4,2.1,1.4,2.6,1s-0.6-2.1-1-2.6c-0.4-0.4-1.1-0.4-1.6,0C58.4,75.8,58.4,76.5,58.8,77z"/>
				</g>
				<g>
					<path class="st15" d="M60.9,75.2c0,0.6,0.5,2.5,1.1,2.5s1.1-1.9,1.1-2.5s-0.5-1.1-1.1-1.1C61.4,74.1,60.9,74.6,60.9,75.2z"/>
				</g>
			</g>
			<path class="st13" d="M60.2,78.6c0,1,0.8,1.8,1.8,1.8s1.8-0.8,1.8-1.8S63,76.8,62,76.8C61,76.8,60.2,77.6,60.2,78.6z"/>
		</g>
		<g>
			<g>
				<g>
					<path class="st16" d="M44,54.1c-0.9,1.4-1.4,4.4,0,5.3c1.4,0.9,4-0.6,4.9-2c0.9-1.4,0.6-3.2-0.8-4.1
						C46.7,52.4,44.9,52.7,44,54.1z"/>
				</g>
				<g>
					<path class="st16" d="M49.6,58.8c-1.6-0.1-4.5,1-4.6,2.6c-0.1,1.6,2.5,3.2,4.2,3.3s3.1-1.1,3.2-2.7
						C52.5,60.3,51.3,58.9,49.6,58.8z"/>
				</g>
				<g>
					<path class="st16" d="M48.4,66c-0.7-1.5-3.1-3.4-4.6-2.7c-1.5,0.7-1.5,3.8-0.8,5.3c0.7,1.5,2.5,2.1,4,1.4
						C48.5,69.3,49.1,67.5,48.4,66z"/>
				</g>
				<g>
					<path class="st16" d="M41.5,68.6c0.9-1.4,1.4-4.4,0-5.3c-1.4-0.9-4,0.6-4.9,2c-0.9,1.4-0.6,3.2,0.8,4.1
						C38.8,70.3,40.6,69.9,41.5,68.6z"/>
				</g>
				<g>
					<path class="st16" d="M35.9,63.9c1.6,0.1,4.5-1,4.6-2.6c0.1-1.6-2.5-3.2-4.2-3.3c-1.6-0.1-3.1,1.1-3.2,2.7
						C33,62.3,34.2,63.8,35.9,63.9z"/>
				</g>
				<g>
					<path class="st16" d="M37.1,56.7c0.7,1.5,3.1,3.4,4.6,2.7c1.5-0.7,1.5-3.8,0.8-5.3c-0.7-1.5-2.5-2.1-4-1.4
						C37,53.4,36.4,55.2,37.1,56.7z"/>
				</g>
			</g>
			<g>
				<g>
					<path class="st13" d="M47,55.3c-1.4,0.8-3.1,3.4-2.3,4.8c0.8,1.4,3.9,1.2,5.3,0.4c1.4-0.8,1.9-2.6,1.1-4.1
						C50.2,55,48.4,54.5,47,55.3z"/>
				</g>
				<g>
					<path class="st13" d="M50.1,62c-1.4-0.8-4.5-1.1-5.3,0.4c-0.8,1.4,0.9,4,2.3,4.8c1.4,0.8,3.2,0.3,4.1-1.1
						C52,64.6,51.5,62.8,50.1,62z"/>
				</g>
				<g>
					<path class="st13" d="M45.8,68c0-1.6-1.3-4.4-3-4.4s-3,2.8-3,4.4c0,1.6,1.3,3,3,3C44.5,71,45.8,69.6,45.8,68z"/>
				</g>
				<g>
					<path class="st13" d="M38.5,67.3c1.4-0.8,3.1-3.4,2.3-4.8c-0.8-1.4-3.9-1.2-5.3-0.4c-1.4,0.8-1.9,2.6-1.1,4.1
						C35.3,67.7,37.1,68.1,38.5,67.3z"/>
				</g>
				<g>
					<path class="st13" d="M35.4,60.7c1.4,0.8,4.5,1.1,5.3-0.4c0.8-1.4-0.9-4-2.3-4.8s-3.2-0.3-4.1,1.1C33.5,58,34,59.8,35.4,60.7z"
						/>
				</g>
				<g>
					<path class="st13" d="M39.7,54.7c0,1.6,1.3,4.4,3,4.4c1.6,0,3-2.8,3-4.4s-1.3-3-3-3C41,51.7,39.7,53,39.7,54.7z"/>
				</g>
			</g>
			<ellipse class="st15" cx="42.6" cy="61.3" rx="2.8" ry="2.8"/>
		</g>
		<g>
			<g>
				<g>
					<g>
						<path class="st14" d="M23.7,78c0.5,1.4,3.3,5.2,4.7,4.7s0.8-5.2,0.3-6.6c-0.5-1.4-2.1-2.1-3.5-1.5
							C23.9,75.1,23.2,76.7,23.7,78z"/>
					</g>
					<g>
						<path class="st14" d="M30,76.2c-0.6,1.3-1.4,6,0,6.6c1.3,0.6,4.3-3.1,4.9-4.5s0-2.9-1.4-3.5C32.2,74.2,30.6,74.9,30,76.2z"/>
					</g>
					<g>
						<path class="st14" d="M35.8,79.4c-1.4,0.5-5.2,3.3-4.7,4.7c0.5,1.4,5.2,0.8,6.6,0.3c1.4-0.5,2.1-2.1,1.5-3.5
							C38.7,79.5,37.1,78.8,35.8,79.4z"/>
					</g>
					<g>
						<path class="st14" d="M37.6,85.6c-1.3-0.6-6-1.4-6.6,0c-0.6,1.3,3.1,4.3,4.5,4.9c1.3,0.6,2.9,0,3.5-1.4
							C39.6,87.8,39,86.2,37.6,85.6z"/>
					</g>
					<g>
						<path class="st14" d="M34.5,91.4c-0.5-1.4-3.3-5.2-4.7-4.7s-0.8,5.2-0.3,6.6c0.5,1.4,2.1,2.1,3.5,1.5
							C34.3,94.3,35,92.8,34.5,91.4z"/>
					</g>
					<g>
						<path class="st14" d="M28.2,93.2c0.6-1.3,1.4-6,0-6.6c-1.3-0.6-4.3,3.1-4.9,4.5c-0.6,1.3,0,2.9,1.4,3.5
							C26,95.2,27.6,94.6,28.2,93.2z"/>
					</g>
					<g>
						<path class="st14" d="M22.4,90.1c1.4-0.5,5.2-3.3,4.7-4.7c-0.5-1.4-5.2-0.8-6.6-0.3c-1.4,0.5-2.1,2.1-1.5,3.5
							C19.5,89.9,21.1,90.6,22.4,90.1z"/>
					</g>
					<g>
						<path class="st14" d="M20.6,83.8c1.3,0.6,6,1.4,6.6,0c0.6-1.3-3.1-4.3-4.5-4.9s-2.9,0-3.5,1.4C18.6,81.6,19.2,83.2,20.6,83.8z
							"/>
					</g>
					<g>
						<path class="st14" d="M23.7,78c0.5,1.4,3.3,5.2,4.7,4.7s0.8-5.2,0.3-6.6c-0.5-1.4-2.1-2.1-3.5-1.5
							C23.9,75.1,23.2,76.7,23.7,78z"/>
					</g>
				</g>
				<g>
					<g>
						<path class="st15" d="M26.5,76.6c0,1.5,1.2,6.1,2.7,6.1c1.5,0,2.7-4.6,2.7-6.1c0-1.5-1.2-2.7-2.7-2.7
							C27.7,73.9,26.5,75.1,26.5,76.6z"/>
					</g>
					<g>
						<path class="st15" d="M33,77.1c-1,1-3.5,5.1-2.4,6.2c1,1,5.1-1.4,6.2-2.4c1-1,1-2.7,0-3.8C35.8,76.1,34.1,76.1,33,77.1z"/>
					</g>
					<g>
						<path class="st15" d="M37.3,82.1c-1.5,0-6.1,1.2-6.1,2.7c0,1.5,4.6,2.7,6.1,2.7c1.5,0,2.7-1.2,2.7-2.7
							C39.9,83.3,38.7,82.1,37.3,82.1z"/>
					</g>
					<g>
						<path class="st15" d="M36.7,88.7c-1-1-5.1-3.5-6.2-2.4c-1,1,1.4,5.1,2.4,6.2c1,1,2.7,1,3.8,0C37.7,91.4,37.7,89.7,36.7,88.7z"
							/>
					</g>
					<g>
						<path class="st15" d="M31.7,92.9c0-1.5-1.2-6.1-2.7-6.1c-1.5,0-2.7,4.6-2.7,6.1c0,1.5,1.2,2.7,2.7,2.7
							C30.5,95.5,31.7,94.3,31.7,92.9z"/>
					</g>
					<g>
						<path class="st15" d="M25.2,92.3c1-1,3.5-5.1,2.4-6.2c-1-1-5.1,1.4-6.2,2.4c-1,1-1,2.7,0,3.8C22.4,93.4,24.1,93.4,25.2,92.3z"
							/>
					</g>
					<g>
						<path class="st15" d="M20.9,87.3c1.5,0,6.1-1.2,6.1-2.7S22.4,82,20.9,82c-1.5,0-2.7,1.2-2.7,2.7
							C18.3,86.1,19.5,87.3,20.9,87.3z"/>
					</g>
					<g>
						<path class="st15" d="M21.5,80.8c1,1,5.1,3.5,6.2,2.4c1-1-1.4-5.1-2.4-6.2c-1-1-2.7-1-3.8,0C20.5,78,20.5,79.7,21.5,80.8z"/>
					</g>
					<g>
						<path class="st15" d="M26.5,76.6c0,1.5,1.2,6.1,2.7,6.1c1.5,0,2.7-4.6,2.7-6.1c0-1.5-1.2-2.7-2.7-2.7
							C27.7,73.9,26.5,75.1,26.5,76.6z"/>
					</g>
				</g>
				<path class="st13" d="M24.8,84.7c0,2.4,1.9,4.3,4.3,4.3s4.3-1.9,4.3-4.3s-1.9-4.3-4.3-4.3S24.8,82.3,24.8,84.7z"/>
			</g>
			<g>
				<path class="st17" d="M26.6,82.5c0,0.2,0.2,0.4,0.4,0.4s0.4-0.2,0.4-0.4s-0.2-0.4-0.4-0.4C26.8,82.1,26.6,82.2,26.6,82.5z"/>
				<path class="st17" d="M28.4,81.5c0,0.2,0.2,0.4,0.4,0.4c0.2,0,0.4-0.2,0.4-0.4s-0.2-0.4-0.4-0.4C28.6,81.1,28.4,81.3,28.4,81.5z
					"/>
				<path class="st17" d="M30.5,82.4c0,0.2,0.2,0.4,0.4,0.4c0.2,0,0.4-0.2,0.4-0.4s-0.2-0.4-0.4-0.4C30.7,81.9,30.5,82.1,30.5,82.4z
					"/>
				<path class="st17" d="M28.5,83.2c0,0.2,0.2,0.4,0.4,0.4s0.4-0.2,0.4-0.4s-0.2-0.4-0.4-0.4C28.7,82.8,28.5,83,28.5,83.2z"/>
				<path class="st17" d="M30,84.8c0,0.2,0.2,0.4,0.4,0.4s0.4-0.2,0.4-0.4s-0.2-0.4-0.4-0.4S30,84.6,30,84.8z"/>
				<path class="st17" d="M31.5,84c0,0.2,0.2,0.4,0.4,0.4c0.2,0,0.4-0.2,0.4-0.4s-0.2-0.4-0.4-0.4C31.7,83.6,31.5,83.8,31.5,84z"/>
				<path class="st17" d="M25.5,84.2c0,0.2,0.2,0.4,0.4,0.4s0.4-0.2,0.4-0.4s-0.2-0.4-0.4-0.4S25.5,83.9,25.5,84.2z"/>
				<path class="st17" d="M26,86.2c0,0.2,0.2,0.4,0.4,0.4c0.2,0,0.4-0.2,0.4-0.4s-0.2-0.4-0.4-0.4C26.1,85.8,26,86,26,86.2z"/>
				<path class="st17" d="M27.7,87.8c0,0.2,0.2,0.4,0.4,0.4c0.2,0,0.4-0.2,0.4-0.4s-0.2-0.4-0.4-0.4C27.9,87.4,27.7,87.5,27.7,87.8z
					"/>
				<path class="st17" d="M28.2,86c0,0.2,0.2,0.4,0.4,0.4c0.2,0,0.4-0.2,0.4-0.4s-0.2-0.4-0.4-0.4C28.4,85.6,28.2,85.8,28.2,86z"/>
				<path class="st17" d="M27.3,84.4c0,0.2,0.2,0.4,0.4,0.4c0.2,0,0.4-0.2,0.4-0.4S27.9,84,27.7,84C27.5,84,27.3,84.1,27.3,84.4z"/>
				<path class="st17" d="M30,87.4c0,0.2,0.2,0.4,0.4,0.4s0.4-0.2,0.4-0.4s-0.2-0.4-0.4-0.4S30,87.1,30,87.4z"/>
				<path class="st17" d="M31.2,86c0,0.2,0.2,0.4,0.4,0.4c0.2,0,0.4-0.2,0.4-0.4s-0.2-0.4-0.4-0.4C31.4,85.6,31.2,85.8,31.2,86z"/>
			</g>
		</g>
		<g>
			<g>
				<g>
					<g>
						<path class="st12" d="M64.8,55.9c0,1.1,0.9,4.4,1.9,4.4s1.9-3.3,1.9-4.4c0-1.1-0.9-1.9-1.9-1.9C65.6,53.9,64.8,54.8,64.8,55.9
							z"/>
					</g>
					<g>
						<path class="st12" d="M69.5,56.3C68.7,57,67,60,67.7,60.7c0.8,0.7,3.7-1,4.4-1.7c0.8-0.7,0.8-2,0-2.7
							C71.4,55.5,70.2,55.5,69.5,56.3z"/>
					</g>
					<g>
						<path class="st12" d="M72.5,59.9c-1.1,0-4.4,0.9-4.4,1.9c0,1.1,3.3,1.9,4.4,1.9c1.1,0,1.9-0.9,1.9-1.9
							C74.4,60.7,73.6,59.9,72.5,59.9z"/>
					</g>
					<g>
						<path class="st12" d="M72.1,64.5c-0.8-0.8-3.7-2.5-4.4-1.7c-0.8,0.7,1,3.7,1.7,4.4s2,0.7,2.7,0C72.8,66.5,72.8,65.3,72.1,64.5
							z"/>
					</g>
					<g>
						<path class="st12" d="M68.5,67.6c0-1.1-0.9-4.4-1.9-4.4c-1.1,0-1.9,3.3-1.9,4.4c0,1.1,0.9,1.9,1.9,1.9
							C67.6,69.5,68.5,68.6,68.5,67.6z"/>
					</g>
					<g>
						<path class="st12" d="M63.8,67.2c0.8-0.7,2.5-3.7,1.7-4.4c-0.8-0.8-3.7,1-4.4,1.7c-0.8,0.7-0.8,2,0,2.7
							C61.8,67.9,63.1,67.9,63.8,67.2z"/>
					</g>
					<g>
						<path class="st12" d="M60.8,63.6c1.1,0,4.4-0.9,4.4-1.9s-3.3-1.9-4.4-1.9s-1.9,0.9-1.9,1.9C58.9,62.7,59.7,63.6,60.8,63.6z"/>
					</g>
					<g>
						<path class="st12" d="M61.2,58.9c0.8,0.8,3.7,2.5,4.4,1.7c0.8-0.8-1-3.7-1.7-4.4c-0.8-0.8-2-0.8-2.7,0
							C60.4,56.9,60.4,58.2,61.2,58.9z"/>
					</g>
					<g>
						<path class="st12" d="M64.8,55.9c0,1.1,0.9,4.4,1.9,4.4s1.9-3.3,1.9-4.4c0-1.1-0.9-1.9-1.9-1.9S64.8,54.8,64.8,55.9z"/>
					</g>
				</g>
				<path class="st13" d="M63,61.7c0,2,1.6,3.7,3.7,3.7c2,0,3.7-1.6,3.7-3.7S68.7,58,66.6,58C64.6,58,63,59.7,63,61.7z"/>
			</g>
			<g>
				<g>
					<path class="st17" d="M65,60.1c0,0.2,0.1,0.3,0.3,0.3c0.2,0,0.3-0.1,0.3-0.3c0-0.2-0.1-0.3-0.3-0.3C65.1,59.8,65,59.9,65,60.1z
						"/>
					<path class="st17" d="M65,58.8c0,0.2,0.1,0.3,0.3,0.3c0.2,0,0.3-0.1,0.3-0.3c0-0.2-0.1-0.3-0.3-0.3C65.1,58.5,65,58.7,65,58.8z
						"/>
					<path class="st17" d="M63.6,60.3c0,0.2,0.1,0.3,0.3,0.3s0.3-0.1,0.3-0.3c0-0.2-0.1-0.3-0.3-0.3S63.6,60.2,63.6,60.3z"/>
					<path class="st17" d="M63.3,62.7c0,0.2,0.1,0.3,0.3,0.3c0.2,0,0.3-0.1,0.3-0.3c0-0.2-0.1-0.3-0.3-0.3
						C63.4,62.4,63.3,62.5,63.3,62.7z"/>
					<path class="st17" d="M64.5,64.2c0,0.2,0.1,0.3,0.3,0.3c0.2,0,0.3-0.1,0.3-0.3s-0.1-0.3-0.3-0.3C64.6,63.9,64.5,64,64.5,64.2z"
						/>
					<path class="st17" d="M66.8,64.7c0,0.2,0.1,0.3,0.3,0.3s0.3-0.1,0.3-0.3c0-0.2-0.1-0.3-0.3-0.3C66.9,64.4,66.8,64.5,66.8,64.7z
						"/>
					<path class="st17" d="M68.9,63.6c0,0.2,0.1,0.3,0.3,0.3c0.2,0,0.3-0.1,0.3-0.3c0-0.2-0.1-0.3-0.3-0.3S68.9,63.4,68.9,63.6z"/>
					<path class="st17" d="M68.9,59.9c0,0.2,0.1,0.3,0.3,0.3c0.2,0,0.3-0.1,0.3-0.3c0-0.2-0.1-0.3-0.3-0.3
						C69,59.6,68.9,59.7,68.9,59.9z"/>
					<path class="st17" d="M67.3,58.8c0,0.2,0.1,0.3,0.3,0.3c0.2,0,0.3-0.1,0.3-0.3c0-0.2-0.1-0.3-0.3-0.3
						C67.4,58.5,67.3,58.7,67.3,58.8z"/>
					<path class="st17" d="M66.3,59.6c0,0.2,0.1,0.3,0.3,0.3s0.3-0.1,0.3-0.3c0-0.2-0.1-0.3-0.3-0.3C66.5,59.3,66.3,59.5,66.3,59.6z
						"/>
					<path class="st17" d="M67.9,60.5c0,0.2,0.1,0.3,0.3,0.3c0.2,0,0.3-0.1,0.3-0.3c0-0.2-0.1-0.3-0.3-0.3S67.9,60.4,67.9,60.5z"/>
					<circle class="st17" cx="66.6" cy="60.6" r="0.3"/>
					<path class="st17" d="M67.3,61.8c0,0.2,0.1,0.3,0.3,0.3c0.2,0,0.3-0.1,0.3-0.3c0-0.2-0.1-0.3-0.3-0.3
						C67.4,61.5,67.3,61.6,67.3,61.8z"/>
					<path class="st17" d="M69.2,61.5c0,0.2,0.1,0.3,0.3,0.3c0.2,0,0.3-0.1,0.3-0.3c0-0.2-0.1-0.3-0.3-0.3
						C69.3,61.2,69.2,61.4,69.2,61.5z"/>
					<path class="st17" d="M64.2,61.3c0,0.2,0.1,0.3,0.3,0.3s0.3-0.1,0.3-0.3S64.7,61,64.5,61S64.2,61.2,64.2,61.3z"/>
					<path class="st17" d="M64.5,62.8c0,0.2,0.1,0.3,0.3,0.3c0.2,0,0.3-0.1,0.3-0.3c0-0.2-0.1-0.3-0.3-0.3
						C64.6,62.5,64.5,62.6,64.5,62.8z"/>
					<path class="st17" d="M65.8,63.9c0,0.2,0.1,0.3,0.3,0.3c0.2,0,0.3-0.1,0.3-0.3c0-0.2-0.1-0.3-0.3-0.3S65.8,63.7,65.8,63.9z"/>
					<path class="st17" d="M66.1,62.6c0,0.2,0.1,0.3,0.3,0.3c0.2,0,0.3-0.1,0.3-0.3c0-0.2-0.1-0.3-0.3-0.3
						C66.3,62.3,66.1,62.5,66.1,62.6z"/>
					<path class="st17" d="M65.5,61.5c0,0.2,0.1,0.3,0.3,0.3c0.2,0,0.3-0.1,0.3-0.3c0-0.2-0.1-0.3-0.3-0.3
						C65.6,61.2,65.5,61.3,65.5,61.5z"/>
					<path class="st17" d="M67.4,63.6c0,0.2,0.1,0.3,0.3,0.3c0.2,0,0.3-0.1,0.3-0.3s-0.1-0.3-0.3-0.3C67.5,63.3,67.4,63.4,67.4,63.6
						z"/>
					<path class="st17" d="M68.2,62.4c0,0.2,0.1,0.3,0.3,0.3c0.2,0,0.3-0.1,0.3-0.3c0-0.2-0.1-0.3-0.3-0.3
						C68.3,62.1,68.2,62.3,68.2,62.4z"/>
				</g>
			</g>
		</g>
		<g>
			<g>
				<g>
					<g>
						<path class="st13" d="M13.4,61.7c0,0.9,0.7,3.7,1.6,3.7s1.6-2.8,1.6-3.7c0-0.9-0.7-1.6-1.6-1.6C14.1,60.1,13.4,60.8,13.4,61.7
							z"/>
					</g>
					<g>
						<path class="st13" d="M17.4,62.1c-0.6,0.6-2.1,3.2-1.5,3.8c0.6,0.6,3.2-0.8,3.8-1.5c0.6-0.6,0.6-1.7,0-2.3
							C19,61.4,18,61.4,17.4,62.1z"/>
					</g>
					<g>
						<path class="st13" d="M20,65.1c-0.9,0-3.7,0.7-3.7,1.6c0,0.9,2.8,1.6,3.7,1.6s1.6-0.7,1.6-1.6C21.6,65.9,20.9,65.1,20,65.1z"
							/>
					</g>
					<g>
						<path class="st13" d="M19.6,69.1c-0.6-0.6-3.2-2.1-3.8-1.5c-0.6,0.6,0.8,3.2,1.5,3.8s1.7,0.6,2.3,0
							C20.3,70.8,20.3,69.8,19.6,69.1z"/>
					</g>
					<g>
						<path class="st13" d="M16.5,71.7c0-0.9-0.7-3.7-1.6-3.7s-1.6,2.8-1.6,3.7s0.7,1.6,1.6,1.6S16.5,72.6,16.5,71.7z"/>
					</g>
					<g>
						<path class="st13" d="M12.5,71.4c0.6-0.6,2.1-3.2,1.5-3.8c-0.6-0.6-3.2,0.8-3.8,1.5c-0.6,0.6-0.6,1.7,0,2.3
							C10.9,72,11.9,72,12.5,71.4z"/>
					</g>
					<g>
						<path class="st13" d="M10,68.3c0.9,0,3.7-0.7,3.7-1.6S10.9,65,10,65s-1.6,0.7-1.6,1.6C8.3,67.6,9.1,68.3,10,68.3z"/>
					</g>
					<g>
						<path class="st13" d="M10.3,64.3c0.6,0.6,3.2,2.1,3.8,1.5c0.6-0.6-0.8-3.2-1.5-3.8c-0.6-0.6-1.7-0.6-2.3,0
							C9.7,62.6,9.7,63.7,10.3,64.3z"/>
					</g>
					<g>
						<path class="st13" d="M13.4,61.7c0,0.9,0.7,3.7,1.6,3.7s1.6-2.8,1.6-3.7c0-0.9-0.7-1.6-1.6-1.6C14.1,60.1,13.4,60.8,13.4,61.7
							z"/>
					</g>
				</g>
				<path class="st15" d="M11.8,66.7c0,1.7,1.4,3.1,3.1,3.1s3.1-1.4,3.1-3.1s-1.4-3.1-3.1-3.1C13.2,63.6,11.8,65,11.8,66.7z"/>
			</g>
			<g>
				<g>
					<path class="st17" d="M13.6,65.3c0,0.1,0.1,0.2,0.2,0.2c0.1,0,0.3-0.1,0.3-0.2c0-0.1-0.1-0.3-0.3-0.3
						C13.7,65.1,13.6,65.2,13.6,65.3z"/>
					<path class="st17" d="M13.6,64.3c0,0.1,0.1,0.2,0.2,0.2c0.1,0,0.3-0.1,0.3-0.2c0-0.1-0.1-0.2-0.3-0.2
						C13.7,64,13.6,64.1,13.6,64.3z"/>
					<path class="st17" d="M12.4,65.5c0,0.1,0.1,0.2,0.2,0.2c0.1,0,0.2-0.1,0.2-0.2c0-0.1-0.1-0.3-0.2-0.3
						C12.5,65.3,12.4,65.4,12.4,65.5z"/>
					<path class="st17" d="M12.1,67.6c0,0.1,0.1,0.2,0.2,0.2c0.1,0,0.2-0.1,0.2-0.2c0-0.1-0.1-0.2-0.2-0.2
						C12.2,67.3,12.1,67.4,12.1,67.6z"/>
					<path class="st17" d="M13.1,68.8c0,0.1,0.1,0.2,0.3,0.2s0.2-0.1,0.2-0.2c0-0.1-0.1-0.2-0.2-0.2C13.3,68.6,13.1,68.7,13.1,68.8z
						"/>
					<path class="st17" d="M15.1,69.2c0,0.1,0.1,0.2,0.2,0.2c0.1,0,0.3-0.1,0.3-0.2c0-0.1-0.1-0.2-0.3-0.2
						C15.2,69,15.1,69.1,15.1,69.2z"/>
					<path class="st17" d="M16.9,68.3c0,0.1,0.1,0.2,0.2,0.2c0.1,0,0.3-0.1,0.3-0.2c0-0.1-0.1-0.2-0.3-0.2
						C17,68.1,16.9,68.2,16.9,68.3z"/>
					<path class="st17" d="M16.9,65.2c0,0.1,0.1,0.2,0.2,0.2c0.1,0,0.3-0.1,0.3-0.2c0-0.1-0.1-0.2-0.3-0.2
						C17,64.9,16.9,65,16.9,65.2z"/>
					<path class="st17" d="M15.5,64.3c0,0.1,0.1,0.2,0.2,0.2c0.1,0,0.3-0.1,0.3-0.2c0-0.1-0.1-0.2-0.3-0.2
						C15.6,64,15.5,64.1,15.5,64.3z"/>
					<path class="st17" d="M14.7,64.9c0,0.1,0.1,0.2,0.3,0.2c0.1,0,0.2-0.1,0.2-0.2c0-0.1-0.1-0.3-0.2-0.3
						C14.8,64.7,14.7,64.8,14.7,64.9z"/>
					<path class="st17" d="M16,65.7c0,0.1,0.1,0.2,0.3,0.2s0.2-0.1,0.2-0.2c0-0.1-0.1-0.2-0.2-0.2C16.2,65.4,16,65.6,16,65.7z"/>
					<path class="st17" d="M14.7,65.8c0,0.1,0.1,0.3,0.2,0.3c0.1,0,0.2-0.1,0.2-0.3s-0.1-0.2-0.2-0.2C14.8,65.5,14.7,65.6,14.7,65.8
						z"/>
					<path class="st17" d="M15.5,66.8c0,0.1,0.1,0.3,0.3,0.3c0.1,0,0.2-0.1,0.2-0.3c0-0.1-0.1-0.2-0.2-0.2
						C15.6,66.5,15.5,66.6,15.5,66.8z"/>
					<path class="st17" d="M17.1,66.5c0,0.1,0.1,0.2,0.2,0.2c0.1,0,0.3-0.1,0.3-0.2c0-0.1-0.1-0.3-0.3-0.3
						C17.2,66.3,17.1,66.4,17.1,66.5z"/>
					<path class="st17" d="M12.9,66.4c0,0.1,0.1,0.2,0.2,0.2c0.1,0,0.2-0.1,0.2-0.2c0-0.1-0.1-0.2-0.2-0.2
						C13,66.1,12.9,66.2,12.9,66.4z"/>
					<path class="st17" d="M13.1,67.6c0,0.1,0.1,0.2,0.3,0.2s0.2-0.1,0.2-0.2c0-0.1-0.1-0.2-0.2-0.2C13.3,67.4,13.1,67.5,13.1,67.6z
						"/>
					<path class="st17" d="M14.2,68.6c0,0.1,0.1,0.2,0.2,0.2c0.1,0,0.2-0.1,0.2-0.2c0-0.1-0.1-0.2-0.2-0.2
						C14.3,68.3,14.2,68.4,14.2,68.6z"/>
					<path class="st17" d="M14.5,67.5c0,0.1,0.1,0.2,0.2,0.2c0.1,0,0.3-0.1,0.3-0.2c0-0.1-0.1-0.3-0.3-0.3
						C14.7,67.2,14.5,67.4,14.5,67.5z"/>
					<path class="st17" d="M14,66.5c0,0.1,0.1,0.2,0.3,0.2c0.1,0,0.2-0.1,0.2-0.2c0-0.1-0.1-0.2-0.2-0.2C14.1,66.3,14,66.4,14,66.5z
						"/>
					<path class="st17" d="M15.6,68.3c0,0.1,0.1,0.2,0.2,0.2c0.1,0,0.2-0.1,0.2-0.2c0-0.1-0.1-0.3-0.2-0.3
						C15.7,68.1,15.6,68.2,15.6,68.3z"/>
					<path class="st17" d="M16.3,67.3c0,0.1,0.1,0.2,0.3,0.2c0.1,0,0.3-0.1,0.3-0.2c0-0.1-0.1-0.2-0.3-0.2
						C16.4,67.1,16.3,67.2,16.3,67.3z"/>
				</g>
			</g>
		</g>
	</g>
</g>
</svg>
