<?xml version="1.0" encoding="utf-8"?>
<!-- Generator: Adobe Illustrator 24.0.0, SVG Export Plug-In . SVG Version: 6.00 Build 0)  -->
<svg version="1.1" id="Laag_1" xmlns="http://www.w3.org/2000/svg" xmlns:xlink="http://www.w3.org/1999/xlink" x="0px" y="0px"
	 viewBox="0 0 400 400" style="enable-background:new 0 0 400 400;" xml:space="preserve">
<style type="text/css">
	.st0{fill:#DB8AD9;}
	.st1{fill:#303030;}
	.st2{fill:#FFFFFF;}
	.st3{fill:#D3D3D3;}
	.st4{fill:#EAA0E4;}
	.st5{fill:#A150AD;}
	.st6{fill:#CE78CE;}
	.st7{fill:#FA7098;}
	.st8{fill:#FF9852;}
	.st9{fill:#FFD700;}
	.st10{fill:#07D3AC;}
	.st11{fill:#00BDF9;}
	.st12{fill:#0092D3;}
	.st13{fill:#7989E8;}
	.st14{fill:#F7C4F7;}
	.st15{fill:#FEC379;}
	.st16{fill:#FFA042;}
	.st17{fill:#F7B2FF;}
	.st18{fill:#ED90FA;}
	.st19{fill:#964DB6;}
	.st20{fill:#7C970F;}
	.st21{fill:#FD7297;}
	.st22{fill:#FD4F83;}
	.st23{fill:#1F175A;}
	.st24{fill:#FE6CB3;}
</style>
<g>
	
		<rect x="87.65" y="232.46" transform="matrix(-1 -4.489932e-11 4.489932e-11 -1 419.8305 488.1055)" class="st0" width="244.53" height="23.18"/>
	<g>
		
			<ellipse transform="matrix(0.8575 -0.5145 0.5145 0.8575 -115.3598 99.0938)" class="st1" cx="121.21" cy="257.8" rx="22.2" ry="22.2"/>
		
			<ellipse transform="matrix(0.9495 -0.3137 0.3137 0.9495 -74.7442 51.0279)" class="st2" cx="121.21" cy="257.8" rx="15.13" ry="15.13"/>
		
			<ellipse transform="matrix(0.9822 -0.1877 0.1877 0.9822 -46.246 27.3413)" class="st3" cx="121.21" cy="257.8" rx="13.45" ry="13.45"/>
		
			<ellipse transform="matrix(0.8837 -0.468 0.468 0.8837 -106.5632 86.7087)" class="st2" cx="121.21" cy="257.8" rx="12.58" ry="12.58"/>
		
			<ellipse transform="matrix(0.5881 -0.8088 0.8088 0.5881 -158.5814 204.2242)" class="st3" cx="121.21" cy="257.8" rx="9.25" ry="9.25"/>
		<path class="st2" d="M112.56,257.8c0,4.78,3.87,8.65,8.65,8.65c4.78,0,8.65-3.87,8.65-8.65c0-4.78-3.87-8.65-8.65-8.65
			C116.44,249.16,112.56,253.03,112.56,257.8z"/>
		<g>
			<path class="st3" d="M120.56,246.32c0,0.36,0.29,0.66,0.66,0.66c0.36,0,0.66-0.29,0.66-0.66c0-0.36-0.29-0.66-0.66-0.66
				C120.85,245.67,120.56,245.96,120.56,246.32z"/>
			<path class="st3" d="M112.63,250.15c0.26,0.26,0.67,0.26,0.93,0c0.26-0.26,0.26-0.67,0-0.93c-0.26-0.26-0.67-0.26-0.93,0
				C112.37,249.48,112.37,249.89,112.63,250.15z"/>
			<path class="st3" d="M109.73,258.46c0.36,0,0.66-0.29,0.66-0.66c0-0.36-0.29-0.66-0.66-0.66c-0.36,0-0.66,0.29-0.66,0.66
				C109.07,258.17,109.37,258.46,109.73,258.46z"/>
			<path class="st3" d="M113.56,266.39c0.26-0.26,0.26-0.67,0-0.93c-0.26-0.26-0.67-0.26-0.93,0c-0.26,0.26-0.26,0.67,0,0.93
				C112.88,266.64,113.3,266.64,113.56,266.39z"/>
			<path class="st3" d="M121.87,269.29c0-0.36-0.29-0.66-0.66-0.66c-0.36,0-0.66,0.29-0.66,0.66c0,0.36,0.29,0.66,0.66,0.66
				C121.57,269.94,121.87,269.65,121.87,269.29z"/>
			<path class="st3" d="M129.8,265.46c-0.26-0.26-0.67-0.26-0.93,0c-0.26,0.26-0.26,0.67,0,0.93c0.26,0.26,0.67,0.26,0.93,0
				C130.05,266.13,130.05,265.72,129.8,265.46z"/>
			<path class="st3" d="M132.7,257.15c-0.36,0-0.66,0.29-0.66,0.66c0,0.36,0.29,0.66,0.66,0.66c0.36,0,0.66-0.29,0.66-0.66
				C133.35,257.44,133.06,257.15,132.7,257.15z"/>
			<path class="st3" d="M128.87,249.22c-0.26,0.26-0.26,0.67,0,0.93c0.26,0.26,0.67,0.26,0.93,0c0.26-0.26,0.26-0.67,0-0.93
				C129.54,248.96,129.13,248.96,128.87,249.22z"/>
		</g>
	</g>
	<g>
		
			<ellipse transform="matrix(0.9548 -0.2972 0.2972 0.9548 -63.4594 98.2278)" class="st1" cx="291.3" cy="257.8" rx="22.2" ry="22.2"/>
		
			<ellipse transform="matrix(0.9463 -0.3232 0.3232 0.9463 -67.686 107.978)" class="st2" cx="291.3" cy="257.8" rx="15.13" ry="15.13"/>
		
			<ellipse transform="matrix(0.5417 -0.8405 0.8405 0.5417 -83.2053 362.9931)" class="st3" cx="291.3" cy="257.8" rx="13.45" ry="13.45"/>
		
			<ellipse transform="matrix(0.8745 -0.4851 0.4851 0.8745 -88.4863 173.6536)" class="st2" cx="291.3" cy="257.8" rx="12.58" ry="12.58"/>
		
			<ellipse transform="matrix(0.6907 -0.7231 0.7231 0.6907 -96.3302 290.3889)" class="st3" cx="291.3" cy="257.8" rx="9.25" ry="9.25"/>
		<path class="st2" d="M282.65,257.8c0,4.78,3.87,8.65,8.65,8.65c4.78,0,8.65-3.87,8.65-8.65c0-4.78-3.87-8.65-8.65-8.65
			C286.52,249.16,282.65,253.03,282.65,257.8z"/>
		<g>
			<path class="st3" d="M290.64,246.32c0,0.36,0.29,0.66,0.66,0.66c0.36,0,0.66-0.29,0.66-0.66c0-0.36-0.29-0.66-0.66-0.66
				C290.94,245.67,290.64,245.96,290.64,246.32z"/>
			<path class="st3" d="M282.72,250.15c0.26,0.26,0.67,0.26,0.93,0c0.26-0.26,0.26-0.67,0-0.93c-0.26-0.26-0.67-0.26-0.93,0
				C282.46,249.48,282.46,249.89,282.72,250.15z"/>
			<path class="st3" d="M279.82,258.46c0.36,0,0.66-0.29,0.66-0.66c0-0.36-0.29-0.66-0.66-0.66c-0.36,0-0.66,0.29-0.66,0.66
				C279.16,258.17,279.45,258.46,279.82,258.46z"/>
			<path class="st3" d="M283.64,266.39c0.26-0.26,0.26-0.67,0-0.93c-0.26-0.26-0.67-0.26-0.93,0c-0.26,0.26-0.26,0.67,0,0.93
				C282.97,266.64,283.39,266.64,283.64,266.39z"/>
			<path class="st3" d="M291.95,269.29c0-0.36-0.29-0.66-0.66-0.66c-0.36,0-0.66,0.29-0.66,0.66c0,0.36,0.29,0.66,0.66,0.66
				C291.66,269.94,291.95,269.65,291.95,269.29z"/>
			<path class="st3" d="M299.88,265.46c-0.26-0.26-0.67-0.26-0.93,0c-0.26,0.26-0.26,0.67,0,0.93c0.26,0.26,0.67,0.26,0.93,0
				C300.14,266.13,300.14,265.72,299.88,265.46z"/>
			<path class="st3" d="M302.78,257.15c-0.36,0-0.66,0.29-0.66,0.66c0,0.36,0.29,0.66,0.66,0.66c0.36,0,0.66-0.29,0.66-0.66
				C303.44,257.44,303.14,257.15,302.78,257.15z"/>
			<path class="st3" d="M298.96,249.22c-0.26,0.26-0.26,0.67,0,0.93c0.26,0.26,0.67,0.26,0.93,0c0.26-0.26,0.26-0.67,0-0.93
				C299.63,248.96,299.21,248.96,298.96,249.22z"/>
		</g>
	</g>
	<path class="st4" d="M329.6,256.48h6.51c0,0,5.62-0.53,5.62-5.79c0-5.26,0.62-25.41,0-34.77c-0.62-9.36-1.52-17.92-1.52-17.92
		s1.28-1.99,0.95-3.24c-0.33-1.25-1.04-2.2-1.04-2.2s-3.86-16.43-4.87-19.76c-1.01-3.33-3.27-8.71-3.27-8.71s0.65-0.68-1.07-1.9
		c-1.72-1.22-10.88-8.65-30.91-9.9c-20.03-1.25-55.45-2.67-63.77-2.67c-8.32,0-43.27,0-43.27,0s-42.2,0.36-56.34,0.95
		c-14.15,0.59-28.05,0.89-34.06,2.02c-6,1.13-12.36,2.85-14.74,4.64c-2.38,1.78-4.7,4.81-4.87,5.23c-0.18,0.42-0.59,1.57,0.56,1.57
		h1.46l-15.42,27.55c0,0-3.12,1.69-4.19,5.68c-1.07,3.98-6.89,23.51-7.25,26.54c-0.36,3.03,0,25.62,0,25.62v4.22
		c0,0,0.53,2.85,2.56,2.85c2.02,0,30.91,0,30.91,0s2.97-0.24,4.99-4.34c2.02-4.1,7.85-17.06,17.71-17.06c9.87,0,14.68,0,14.68,0
		s8.68,0.65,12.42,7.85c3.74,7.19,5.11,13.55,7.25,13.55c2.14,0,103.06,0,103.06,0h4.9c0,0,3.3,0.62,5.71-2.76
		c2.41-3.39,5.88-10.88,11.68-10.88c5.79,0,38.87,0,38.87,0s5.53,0.8,7.76,4.55C322.83,251.13,325.06,256.48,329.6,256.48z"/>
	<path class="st5" d="M65.36,197.25c1.07-3.98,4.19-5.68,4.19-5.68l15.42-27.55h-1.46c-1.16,0-0.74-1.16-0.56-1.57
		c0.18-0.42,2.5-3.45,4.87-5.23c2.38-1.78,8.74-3.51,14.74-4.64c6-1.13,19.91-1.43,34.06-2.02c14.15-0.59,56.34-0.95,56.34-0.95
		s34.95,0,43.27,0c8.32,0,43.74,1.43,63.77,2.67c20.03,1.25,29.18,8.68,30.91,9.9c1.72,1.22,1.07,1.9,1.07,1.9s2.26,5.38,3.27,8.71
		c1.01,3.33,4.87,19.76,4.87,19.76s0.71,0.95,1.04,2.2c0.29,1.09-0.65,2.75-0.9,3.15H308.7H153.71h-24.65h-9.32
		c0,0-21.31,0.71-23.36,1.16c-2.05,0.45-18.37,1.49-23.3,5.94c-4.93,4.46-12.96,13.67-13.73,20.68c-0.48,4.4-1.02,11.46-1.35,16.1
		c-0.07-6.86-0.12-16.14,0.1-18.01C58.47,220.76,64.29,201.23,65.36,197.25z"/>
	<g>
		<path class="st2" d="M70.97,190.34l14.39-24.99c0.06-0.1,0.16-0.16,0.27-0.16h6.6c0.12,0,0.22,0.06,0.28,0.17
			c0.06,0.11,0.05,0.23,0,0.34l-14.38,25.06c-0.06,0.1-0.16,0.16-0.27,0.16h-6.66c0,0-0.01,0-0.01,0c-0.18,0-0.32-0.15-0.32-0.34
			C70.87,190.49,70.91,190.4,70.97,190.34z"/>
	</g>
	<g>
		<path class="st2" d="M59.81,230.52c0,3.63,1.44,6.58,3.22,6.58c1.78,0,3.22-2.95,3.22-6.58c0-3.63-1.44-6.58-3.22-6.58
			C61.25,223.94,59.81,226.89,59.81,230.52z"/>
	</g>
	<g>
		<path class="st2" d="M66.7,215.37c-0.49,2.13,0.05,4.06,1.2,4.33c1.15,0.26,2.47-1.25,2.96-3.38c0.49-2.13-0.05-4.06-1.2-4.33
			C68.51,211.73,67.19,213.24,66.7,215.37z"/>
	</g>
	<g>
		<path class="st6" d="M127.71,209.43c0,2.49,2.97,4.51,6.63,4.51c3.66,0,6.63-2.02,6.63-4.51c0-2.49-2.97-4.51-6.63-4.51
			C130.67,204.91,127.71,206.94,127.71,209.43z"/>
		<path class="st2" d="M132.94,210.86h10.61c0.79,0,1.44-0.65,1.44-1.44l0,0c0-0.79-0.65-1.44-1.44-1.44h-10.61
			c-0.79,0-1.44,0.65-1.44,1.44v0C131.5,210.22,132.15,210.86,132.94,210.86z"/>
	</g>
	<g>
		<path class="st2" d="M282.05,167.59h31.86c0.94,0,1.69,0.6,1.69,1.35v18.3c0,0.74-0.76,1.35-1.69,1.35h-31.86
			c-0.94,0-1.69-0.6-1.69-1.35v-18.3C280.35,168.19,281.11,167.59,282.05,167.59z"/>
		<path class="st2" d="M283.37,168.73h29.22c0.86,0,1.55,0.54,1.55,1.2v16.3c0,0.66-0.7,1.2-1.55,1.2h-29.22
			c-0.86,0-1.55-0.54-1.55-1.2v-16.3C281.81,169.27,282.51,168.73,283.37,168.73z"/>
	</g>
	<g>
		<path class="st2" d="M240.82,167.59h31.86c0.94,0,1.69,0.6,1.69,1.35v18.3c0,0.74-0.76,1.35-1.69,1.35h-31.86
			c-0.94,0-1.69-0.6-1.69-1.35v-18.3C239.13,168.19,239.88,167.59,240.82,167.59z"/>
		<path class="st2" d="M242.14,168.73h29.22c0.86,0,1.55,0.54,1.55,1.2v16.3c0,0.66-0.7,1.2-1.55,1.2h-29.22
			c-0.86,0-1.55-0.54-1.55-1.2v-16.3C240.59,169.27,241.28,168.73,242.14,168.73z"/>
	</g>
	<g>
		<path class="st2" d="M199.6,167.59h31.86c0.94,0,1.69,0.6,1.69,1.35v18.3c0,0.74-0.76,1.35-1.69,1.35H199.6
			c-0.94,0-1.69-0.6-1.69-1.35v-18.3C197.9,168.19,198.66,167.59,199.6,167.59z"/>
		<path class="st2" d="M200.92,168.73h29.22c0.86,0,1.55,0.54,1.55,1.2v16.3c0,0.66-0.7,1.2-1.55,1.2h-29.22
			c-0.86,0-1.55-0.54-1.55-1.2v-16.3C199.36,169.27,200.06,168.73,200.92,168.73z"/>
	</g>
	<g>
		<path class="st2" d="M158.37,167.59h31.86c0.94,0,1.69,0.6,1.69,1.35v18.3c0,0.74-0.76,1.35-1.69,1.35h-31.86
			c-0.94,0-1.69-0.6-1.69-1.35v-18.3C156.68,168.19,157.43,167.59,158.37,167.59z"/>
		<path class="st2" d="M159.69,168.73h29.22c0.86,0,1.55,0.54,1.55,1.2v16.3c0,0.66-0.7,1.2-1.55,1.2h-29.22
			c-0.86,0-1.55-0.54-1.55-1.2v-16.3C158.14,169.27,158.83,168.73,159.69,168.73z"/>
	</g>
	<g>
		<g>
			<path class="st2" d="M83.78,188.98l14.29-22.25c0.19-0.3,0.53-0.48,0.9-0.48h48.6c0.58,0,1.05,0.44,1.05,0.99v22.37
				c0,0.55-0.47,0.99-1.05,0.99H84.6c-0.01,0-0.01,0-0.01,0c-0.58,0-1.05-0.44-1.05-0.99C83.54,189.37,83.63,189.15,83.78,188.98z"
				/>
			<path class="st2" d="M86.24,188l13.51-20.18c0.18-0.27,0.5-0.43,0.85-0.43h45.96c0.55,0,0.99,0.4,0.99,0.9v20.29
				c0,0.5-0.45,0.9-0.99,0.9H87.01c-0.01,0-0.01,0-0.01,0c-0.55,0-0.99-0.4-0.99-0.9C86.01,188.36,86.09,188.16,86.24,188z"/>
		</g>
	</g>
	<g>
		<g>
			<path class="st7" d="M117.3,225.2c1.84-10.44-5.14-20.39-15.58-22.23c-10.44-1.84-20.39,5.14-22.23,15.58
				c-0.11,0.63-0.19,1.25-0.24,1.88l1.66,0.29c0.04-0.58,0.12-1.16,0.22-1.74c1.68-9.56,10.8-15.95,20.36-14.27
				c9.56,1.68,15.95,10.8,14.27,20.36c-0.16,0.93-0.4,1.84-0.7,2.7l1.5,0.26C116.88,227.13,117.13,226.18,117.3,225.2z"/>
			<path class="st8" d="M101.5,204.71c-9.56-1.68-18.68,4.71-20.36,14.27c-0.1,0.58-0.17,1.16-0.22,1.74l1.72,0.3
				c0.03-0.62,0.11-1.25,0.22-1.88c1.51-8.58,9.69-14.32,18.27-12.81c8.58,1.51,14.32,9.69,12.81,18.27
				c-0.17,0.98-0.43,1.93-0.77,2.83l1.91,0.34c0.3-0.87,0.53-1.77,0.7-2.7C117.45,215.51,111.07,206.4,101.5,204.71z"/>
			<path class="st9" d="M84.17,219.52c1.39-7.89,8.91-13.16,16.8-11.78c7.89,1.39,13.16,8.91,11.78,16.8
				c-0.16,0.94-0.42,1.84-0.75,2.7l1.16,0.2c0.34-0.9,0.6-1.85,0.77-2.83c1.51-8.58-4.22-16.76-12.81-18.27
				c-8.58-1.51-16.76,4.22-18.27,12.81c-0.11,0.63-0.18,1.26-0.22,1.88l1.33,0.23C84,220.68,84.06,220.1,84.17,219.52z"/>
			<path class="st10" d="M100.97,207.74c-7.89-1.39-15.41,3.88-16.8,11.78c-0.1,0.58-0.17,1.17-0.2,1.74l1.47,0.26
				c0.02-0.62,0.08-1.25,0.19-1.89c1.24-7.05,7.96-11.76,15.01-10.52c7.05,1.24,11.76,7.96,10.52,15.01
				c-0.17,0.99-0.46,1.93-0.83,2.82l1.67,0.29c0.33-0.86,0.58-1.76,0.75-2.7C114.13,216.65,108.86,209.13,100.97,207.74z"/>
			<path class="st11" d="M86.88,220c1.12-6.39,7.22-10.66,13.61-9.54c6.39,1.12,10.66,7.22,9.54,13.61
				c-0.17,0.95-0.44,1.84-0.81,2.68l1.11,0.2c0.38-0.89,0.66-1.83,0.83-2.82c1.24-7.05-3.47-13.77-10.52-15.01
				c-7.05-1.24-13.77,3.47-15.01,10.52c-0.11,0.63-0.17,1.26-0.19,1.89l1.27,0.22C86.72,221.17,86.78,220.58,86.88,220z"/>
			<path class="st12" d="M100.49,210.46c-6.39-1.12-12.48,3.14-13.61,9.54c-0.1,0.59-0.16,1.17-0.18,1.75l1.3,0.23
				c0-0.58,0.05-1.16,0.16-1.75c1-5.68,6.42-9.48,12.1-8.48c5.68,1,9.48,6.42,8.48,12.1c-0.17,0.95-0.46,1.85-0.85,2.68l1.33,0.23
				c0.37-0.84,0.64-1.74,0.81-2.68C111.15,217.68,106.88,211.58,100.49,210.46z"/>
			<path class="st13" d="M89.47,220.31c0.87-4.93,5.57-8.22,10.49-7.35c4.93,0.87,8.22,5.57,7.35,10.49
				c-0.18,1.01-0.52,1.95-0.98,2.8l1.55,0.27c0.39-0.83,0.69-1.73,0.85-2.68c1-5.68-2.8-11.1-8.48-12.1c-5.68-1-11.1,2.8-12.1,8.48
				c-0.1,0.59-0.15,1.17-0.16,1.75l1.33,0.23C89.32,221.58,89.36,220.95,89.47,220.31z"/>
		</g>
	</g>
	<path class="st5" d="M56,260h36c0.55,0,1-0.45,1-1v-2c0-0.55-0.45-1-1-1H56c-0.55,0-1,0.45-1,1v2C55,259.55,55.45,260,56,260z"/>
	<rect x="304" y="206" class="st6" width="18" height="3"/>
	<rect x="304" y="210" class="st6" width="18" height="3"/>
	<rect x="304" y="214" class="st6" width="18" height="3"/>
	<path class="st6" d="M285.3,216.15v-8.95c0-0.93,0.76-1.69,1.69-1.69h8.62c0.93,0,1.69,0.76,1.69,1.69v8.95
		c0,0.93-0.76,1.69-1.69,1.69h-8.62C286.06,217.85,285.3,217.09,285.3,216.15z M286.99,206.05c-0.64,0-1.16,0.52-1.16,1.16v8.95
		c0,0.64,0.52,1.16,1.16,1.16h8.62c0.64,0,1.16-0.52,1.16-1.16v-8.95c0-0.64-0.52-1.16-1.16-1.16H286.99z"/>
</g>
<path class="st14" d="M204.91,203.02c-13.28,0-24.09,10.81-24.09,24.09c0,13.28,10.81,24.09,24.09,24.09S229,240.4,229,227.11
	C229,213.83,218.19,203.02,204.91,203.02z M224.22,227.11c0,4.29-1.41,8.27-3.79,11.48l-13.13-15.04v-15.59
	C216.82,209.13,224.22,217.27,224.22,227.11z M202.52,246.27c-3.6-0.45-6.9-1.89-9.61-4.05l9.61-11.29V246.27z M207.3,230.82
	l9.81,11.25c-2.75,2.25-6.12,3.75-9.81,4.21V230.82z M202.52,207.95v15.61l-12.97,15.23c-2.47-3.25-3.94-7.29-3.94-11.68
	C185.6,217.27,193,209.13,202.52,207.95z"/>
<g>
	<g>
		<path class="st15" d="M324.54,235.75c-1.2-0.6-4.92-2.77-3.24-4.16c1.68-1.39,4.22,1.56,4.87,2.69c-0.45-1.35-0.83-5.76,1.5-5.26
			c1.99,0.47,0.64,3.93,0.25,5.12c0.77-1.09,4.6-2.85,5.38-0.93c0.73,1.84-3.78,2.59-4.9,2.7c1.16,0.52,4.61,2.04,3.22,3.75
			c-1.53,1.89-3.8-1.37-4.72-2.24c0.52,2.06,1.16,5.45-1.11,5.58c-1.98,0.11-1.74-3.61-0.73-5.6c-2.73,1.74-5.2,2.55-5.48,0.56
			C319.22,235.53,322.11,235.63,324.54,235.75"/>
	</g>
	<g>
		<path class="st16" d="M325.3,235.84c-0.72-0.36-2.95-1.66-1.95-2.5c1.01-0.83,2.53,0.94,2.92,1.62c-0.27-0.81-0.5-3.46,0.9-3.16
			c1.19,0.28,0.38,2.36,0.15,3.08c0.46-0.65,2.76-1.71,3.23-0.56c0.44,1.1-2.27,1.56-2.94,1.62c0.69,0.31,2.76,1.22,1.93,2.25
			c-0.92,1.13-2.28-0.82-2.83-1.34c0.31,1.24,0.7,3.27-0.66,3.35c-1.19,0.07-1.05-2.17-0.44-3.36c-1.64,1.04-3.12,1.53-3.29,0.33
			C322.12,235.71,323.85,235.77,325.3,235.84"/>
	</g>
</g>
<g>
	<g>
		<path class="st17" d="M255.59,209.47c-0.47-1.86-2.79-6.99-0.23-8.38c3.03-1.4,2.33,5.82,2.33,7.45c0-0.93,0.23-7.59,3.03-6.89
			c1.86,0.47-0.21,5.39-0.47,6.89c0.92-1.5,2.33-5.59,4.89-4.89c3.26,1.16-2.37,6-4,6.7c1.16-0.93,7.63-3.44,7.86-0.65
			c0,2.33-5.49,2.74-6.42,2.74c9.54,1.43,5.26,8-0.93,2.19c0.7,0.7,2.57,5.22,0.7,6.01c-4.1,1.74-3.16-4.47-3.4-6.1
			c-0.23,1.63-0.33,7.49-2.66,7.26c-2.79-0.23-0.7-6.23-0.23-7.63c-0.7,1.4-2.56,6.7-4.66,6.23c-3.03-0.7,1.34-5.63,2.74-6.56
			c-1.63,1.4-6.83,4-7.73,1.3c-0.98-2.95,4.37-2.89,6.47-3.12c-1.86,0-7.77-1.16-6.14-3.96c1.63-2.56,5.59,0.7,6.75,1.86
			c-1.16-0.93-4.32-4.41-3.3-5.86C252.59,200.64,255.12,207.84,255.59,209.47"/>
	</g>
	<g>
		<path class="st18" d="M256.41,210.23c-0.28-1.12-1.68-4.19-0.14-5.03c1.82-0.84,1.4,3.49,1.4,4.47c0-0.56,0.14-4.55,1.82-4.13
			c1.12,0.28-0.12,3.23-0.28,4.13c0.55-0.9,1.4-3.35,2.93-2.93c1.96,0.7-1.42,3.6-2.4,4.02c0.7-0.56,4.58-2.06,4.72-0.39
			c0,1.4-3.3,1.64-3.86,1.64c5.73,0.86,3.15,4.8-0.56,1.31c0.42,0.42,1.54,3.13,0.42,3.61c-2.46,1.04-1.9-2.68-2.04-3.66
			c-0.14,0.98-0.2,4.5-1.59,4.36c-1.68-0.14-0.42-3.74-0.14-4.58c-0.42,0.84-1.54,4.02-2.79,3.74c-1.82-0.42,0.81-3.38,1.64-3.94
			c-0.98,0.84-4.1,2.4-4.64,0.78c-0.59-1.77,2.62-1.73,3.88-1.87c-1.12,0-4.66-0.7-3.68-2.38c0.98-1.54,3.35,0.42,4.05,1.12
			c-0.7-0.56-2.59-2.65-1.98-3.52C254.61,204.93,256.13,209.25,256.41,210.23"/>
	</g>
	<g>
		<g>
			<g>
				<path class="st19" d="M257.5,218.88c3.92,0,7.68-3.45,7.5-7.5c-0.18-4.06-3.3-7.5-7.5-7.5c-3.92,0-7.68,3.45-7.5,7.5
					C250.18,215.44,253.3,218.88,257.5,218.88L257.5,218.88z"/>
			</g>
		</g>
		<g>
			<g>
				<path class="st16" d="M257.5,214.88c1.89,0,3.5-1.61,3.5-3.5c0-1.9-1.6-3.5-3.5-3.5c-1.89,0-3.5,1.61-3.5,3.5
					C254,213.27,255.6,214.88,257.5,214.88L257.5,214.88z"/>
			</g>
		</g>
	</g>
</g>
<g>
	<g>
		<g>
			<path class="st20" d="M151.06,228.93c2.07,2.46,4.38,4.75,6.18,7.44c1.85,2.77,2.82,5.79,2.7,9.14c-0.05,1.29,1.95,1.29,2,0
				c0.13-3.58-0.89-6.96-2.84-9.95c-1.9-2.91-4.38-5.39-6.62-8.04C151.64,226.53,150.23,227.95,151.06,228.93L151.06,228.93z"/>
		</g>
	</g>
	<g>
		<path class="st2" d="M153.31,230.47c-1.61,1.42-5.99,2.91-6.58,0.7c-0.44-1.65,0.98-2.27,3.24-2.34
			c-4.97-0.52-2.58-6.14,0.71-2.01c-2.02-5.87,2.85-5.45,2.78-0.09c0.62-1.94,2.44-3.19,3.65-2.13
			C158.65,225.95,154.64,229.41,153.31,230.47"/>
	</g>
	<g>
		<path class="st20" d="M154.87,231.95c-3.31-0.63-3.08-1.06-2.95-1.55c0.08-0.38,0.79-0.69,1.14-0.97c0.58-0.4,1.38-1.23,1.8-0.47
			C155.17,229.6,154.92,231.21,154.87,231.95"/>
	</g>
	<g>
		<g>
			<g>
				<path class="st20" d="M158.66,235.58c-1.6-1.07-3.32-2.13-5.22-2.56c-2.04-0.46-4.04-0.08-5.82,1c-0.43,0.26-0.52,0.76-0.31,1.2
					c1.95,4.19,8.28,4.27,11.53,1.74c0.37-0.29,0.31-0.93,0-1.24c-0.37-0.37-0.86-0.29-1.24,0c-2.43,1.89-7.35,1.7-8.78-1.38
					c-0.1,0.4-0.21,0.8-0.31,1.2c1.48-0.9,3.09-1.2,4.78-0.75c1.64,0.44,3.1,1.37,4.49,2.3
					C158.72,237.72,159.59,236.21,158.66,235.58L158.66,235.58z"/>
			</g>
		</g>
		<g>
			<g>
				<path class="st20" d="M148.48,235.83c2.88,0.85,5.89,0.94,8.83,1.41c0.47,0.07,0.94-0.12,1.08-0.61c0.11-0.42-0.14-1-0.61-1.08
					c-2.94-0.47-5.96-0.56-8.83-1.41C147.86,233.83,147.4,235.51,148.48,235.83L148.48,235.83z"/>
			</g>
		</g>
		<g>
			<g>
				<path class="st20" d="M149.55,234.57c0.38,0.48,0.77,0.96,1.15,1.45c0.11,0.14,0.36,0.22,0.53,0.22c0.18,0,0.4-0.08,0.53-0.22
					c0.13-0.14,0.23-0.33,0.22-0.53c-0.01-0.07-0.02-0.13-0.03-0.2c-0.04-0.13-0.1-0.24-0.19-0.33c-0.38-0.48-0.77-0.96-1.15-1.45
					c-0.11-0.14-0.36-0.22-0.53-0.22c-0.18,0-0.4,0.08-0.53,0.22c-0.13,0.14-0.23,0.33-0.22,0.53c0.01,0.07,0.02,0.13,0.03,0.2
					C149.39,234.36,149.46,234.47,149.55,234.57L149.55,234.57z"/>
			</g>
		</g>
		<g>
			<g>
				<path class="st20" d="M151.89,234.38c0.31,0.64,0.76,1.19,1.15,1.77c0.11,0.16,0.25,0.29,0.45,0.34
					c0.18,0.05,0.42,0.03,0.58-0.08c0.16-0.1,0.3-0.26,0.34-0.45c0.04-0.19,0.04-0.41-0.08-0.58c-0.39-0.58-0.84-1.13-1.15-1.77
					c-0.08-0.16-0.28-0.3-0.45-0.34c-0.18-0.05-0.42-0.03-0.58,0.08c-0.16,0.1-0.3,0.26-0.34,0.45
					C151.77,234,151.8,234.19,151.89,234.38L151.89,234.38z"/>
			</g>
		</g>
		<g>
			<g>
				<path class="st20" d="M154.27,235.04c0.31,0.48,0.59,0.98,0.9,1.45c0.11,0.16,0.26,0.29,0.45,0.34
					c0.18,0.05,0.42,0.03,0.58-0.08c0.16-0.1,0.3-0.26,0.34-0.45c0.04-0.19,0.04-0.41-0.08-0.58c-0.32-0.48-0.59-0.98-0.9-1.45
					c-0.11-0.16-0.26-0.29-0.45-0.34c-0.18-0.05-0.42-0.03-0.58,0.08c-0.16,0.1-0.3,0.26-0.34,0.45
					C154.15,234.65,154.16,234.87,154.27,235.04L154.27,235.04z"/>
			</g>
		</g>
		<g>
			<g>
				<path class="st20" d="M151.01,237.7c0.66-0.39,1.23-0.91,1.83-1.38c0.14-0.11,0.22-0.36,0.22-0.53c0-0.18-0.08-0.4-0.22-0.53
					c-0.14-0.13-0.33-0.23-0.53-0.22c-0.07,0.01-0.13,0.02-0.2,0.03c-0.13,0.04-0.24,0.1-0.33,0.19c-0.32,0.26-0.63,0.52-0.95,0.77
					c0.05-0.04,0.1-0.08,0.15-0.12c-0.23,0.18-0.47,0.35-0.72,0.49c-0.16,0.1-0.29,0.27-0.34,0.45c-0.05,0.18-0.03,0.42,0.08,0.58
					C150.2,237.77,150.64,237.91,151.01,237.7L151.01,237.7z"/>
			</g>
		</g>
		<g>
			<g>
				<path class="st20" d="M153.24,238.34c0.39-0.28,0.74-0.59,1.08-0.92c0.29-0.29,0.58-0.58,0.9-0.83
					c0.14-0.11,0.22-0.36,0.22-0.53c0-0.18-0.08-0.4-0.22-0.53c-0.14-0.13-0.33-0.23-0.53-0.22c-0.07,0.01-0.13,0.02-0.2,0.03
					c-0.13,0.04-0.24,0.1-0.33,0.19c-0.59,0.47-1.07,1.07-1.67,1.53c0.05-0.04,0.1-0.08,0.15-0.12c-0.05,0.04-0.1,0.08-0.16,0.11
					c-0.16,0.12-0.29,0.25-0.34,0.45c-0.05,0.18-0.03,0.42,0.08,0.58c0.1,0.16,0.26,0.3,0.45,0.34
					C152.85,238.46,153.08,238.46,153.24,238.34L153.24,238.34z"/>
			</g>
		</g>
	</g>
	<g>
		<g>
			<g>
				<path class="st20" d="M161.06,239.84c-0.21-1.93,0.12-3.78,1.17-5.43c1.02-1.61,2.54-2.85,4.11-3.9
					c-0.44-0.25-0.88-0.5-1.32-0.76c-0.28,3.58-0.83,8.38-5.07,9.24c-1.1,0.22-0.64,1.91,0.47,1.69c2.36-0.48,4.11-2.11,5.04-4.29
					c0.89-2.09,1.13-4.39,1.31-6.64c0.05-0.65-0.79-1.11-1.32-0.76c-1.82,1.22-3.55,2.65-4.73,4.52c-1.2,1.88-1.65,4.11-1.41,6.32
					c0.05,0.47,0.36,0.88,0.88,0.88C160.61,240.71,161.11,240.31,161.06,239.84L161.06,239.84z"/>
			</g>
		</g>
		<g>
			<g>
				<path class="st20" d="M165.14,229.31c-1.81,3.41-3.66,6.81-5.71,10.08c-0.6,0.96,0.92,1.84,1.51,0.88
					c2.05-3.27,3.9-6.67,5.71-10.08C167.17,229.2,165.66,228.32,165.14,229.31L165.14,229.31z"/>
			</g>
		</g>
		<g>
			<g>
				<path class="st20" d="M162.63,232.71c0.04,0.04,0.07,0.08,0.11,0.12c-0.04-0.05-0.08-0.1-0.12-0.15
					c0.12,0.15,0.21,0.33,0.29,0.5c0.04,0.08,0.09,0.17,0.13,0.25c0.08,0.14,0.18,0.26,0.28,0.39c0.07,0.07,0.15,0.12,0.24,0.16
					c0.09,0.05,0.19,0.07,0.29,0.06c0.18,0,0.4-0.08,0.53-0.22c0.13-0.14,0.23-0.33,0.22-0.53c-0.01-0.07-0.02-0.13-0.03-0.2
					c-0.04-0.13-0.1-0.24-0.19-0.33c0,0-0.01-0.01-0.01-0.01c0.04,0.05,0.08,0.1,0.12,0.15c-0.13-0.17-0.23-0.37-0.33-0.57
					c-0.13-0.25-0.28-0.48-0.47-0.68c-0.13-0.14-0.34-0.22-0.53-0.22c-0.18,0-0.4,0.08-0.53,0.22c-0.13,0.14-0.23,0.33-0.22,0.53
					C162.42,232.38,162.49,232.57,162.63,232.71L162.63,232.71z"/>
			</g>
		</g>
		<g>
			<g>
				<path class="st20" d="M161.01,234.77c0.12,0.11,0.22,0.23,0.32,0.36c-0.04-0.05-0.08-0.1-0.12-0.15
					c0.2,0.26,0.36,0.55,0.49,0.85c-0.03-0.06-0.05-0.12-0.08-0.18c0.05,0.13,0.1,0.26,0.15,0.39c0.06,0.19,0.17,0.35,0.34,0.45
					c0.16,0.09,0.4,0.13,0.58,0.08c0.18-0.06,0.36-0.17,0.45-0.34c0.09-0.17,0.14-0.39,0.08-0.58c-0.24-0.71-0.59-1.41-1.15-1.93
					c-0.14-0.13-0.33-0.22-0.53-0.22c-0.18,0-0.4,0.08-0.53,0.22c-0.13,0.14-0.23,0.33-0.22,0.53
					C160.8,234.44,160.87,234.63,161.01,234.77L161.01,234.77z"/>
			</g>
		</g>
		<g>
			<g>
				<path class="st20" d="M160.06,236.87c0.08,0.1,0.16,0.2,0.24,0.31c-0.04-0.05-0.08-0.1-0.12-0.15c0.21,0.27,0.41,0.54,0.55,0.85
					c0.05,0.09,0.11,0.16,0.19,0.21c0.07,0.07,0.16,0.11,0.26,0.13c0.1,0.03,0.2,0.04,0.3,0.01c0.1,0,0.19-0.03,0.28-0.09
					c0.16-0.1,0.3-0.26,0.34-0.45c0.01-0.07,0.02-0.13,0.03-0.2c0-0.14-0.03-0.26-0.1-0.38c-0.1-0.21-0.22-0.4-0.35-0.58
					c-0.18-0.25-0.37-0.49-0.56-0.73c-0.07-0.07-0.15-0.12-0.24-0.16c-0.09-0.05-0.19-0.07-0.29-0.06c-0.18,0-0.4,0.08-0.53,0.22
					c-0.13,0.14-0.23,0.33-0.22,0.53c0.01,0.07,0.02,0.13,0.03,0.2C159.91,236.66,159.97,236.77,160.06,236.87L160.06,236.87z"/>
			</g>
		</g>
		<g>
			<g>
				<path class="st20" d="M163.83,234.96c0.63-0.38,1.18-0.88,1.84-1.21c0.16-0.08,0.3-0.28,0.34-0.45
					c0.05-0.18,0.03-0.42-0.08-0.58c-0.1-0.16-0.26-0.3-0.45-0.34c-0.2-0.05-0.39-0.02-0.58,0.08c-0.66,0.33-1.21,0.83-1.84,1.21
					c-0.16,0.1-0.29,0.26-0.34,0.45c-0.05,0.18-0.03,0.42,0.08,0.58C163.03,235.03,163.47,235.18,163.83,234.96L163.83,234.96z"/>
			</g>
		</g>
		<g>
			<g>
				<path class="st20" d="M162.43,237.35c0.84-0.23,1.65-0.55,2.48-0.82c0.37-0.12,0.65-0.52,0.52-0.92
					c-0.12-0.37-0.52-0.65-0.92-0.52c-0.83,0.27-1.63,0.6-2.48,0.82c-0.38,0.1-0.65,0.54-0.52,0.92
					C161.63,237.22,162.03,237.46,162.43,237.35L162.43,237.35z"/>
			</g>
		</g>
	</g>
</g>
<g>
	<g>
		<path class="st21" d="M246.71,237.53c-7.52-5.65,4.41-11.97,3.78-0.95c2.21-8.19,12.77-2.57,3.09,2.52
			c8.51-1.26,6.04,9.77-0.89,4.41c3.47,6.93-5.04,9.14-4.73,0.63c-5.67,9.14-11.91-1.07-2.46-3.28
			C235.43,243.7,238.28,231.88,246.71,237.53"/>
	</g>
	<g>
		<path class="st22" d="M247.65,238.56c-4.51-3.39,2.65-7.18,2.27-0.57c1.32-4.91,7.66-1.54,1.86,1.51c5.1-0.76,3.63,5.86-0.53,2.65
			c2.08,4.16-3.03,5.48-2.84,0.38c-3.4,5.48-7.15-0.64-1.48-1.97C240.87,242.26,242.58,235.17,247.65,238.56"/>
	</g>
	<g>
		<g>
			<g>
				<path class="st23" d="M249.08,244.87c2.62,0,5.12-2.3,5-5c-0.12-2.71-2.2-5-5-5c-2.62,0-5.12,2.3-5,5
					C244.2,242.58,246.28,244.87,249.08,244.87L249.08,244.87z"/>
			</g>
		</g>
		<g>
			<g>
				<path class="st15" d="M249.08,242.37c3.22,0,3.22-5,0-5C245.87,237.37,245.86,242.37,249.08,242.37L249.08,242.37z"/>
			</g>
		</g>
	</g>
</g>
<circle class="st24" cx="160" cy="208" r="3"/>
<circle class="st24" cx="282" cy="230" r="3"/>
<circle class="st24" cx="84" cy="242" r="3"/>
</svg>
