<?xml version="1.0" encoding="utf-8"?>
<!-- Generator: Adobe Illustrator 24.0.0, SVG Export Plug-In . SVG Version: 6.00 Build 0)  -->
<svg version="1.1" id="Laag_1" xmlns="http://www.w3.org/2000/svg" xmlns:xlink="http://www.w3.org/1999/xlink" x="0px" y="0px"
	 viewBox="0 0 400 400" style="enable-background:new 0 0 400 400;" xml:space="preserve">
<style type="text/css">
	.st0{fill:#E854ED;stroke:#B917C1;stroke-miterlimit:10;}
	.st1{fill:url(#SVGID_1_);}
	.st2{fill:#C528CE;}
	.st3{fill:url(#SVGID_2_);}
	.st4{fill:url(#SVGID_3_);}
	.st5{fill:url(#SVGID_4_);}
	.st6{fill:url(#SVGID_5_);}
	.st7{fill:#C528CE;stroke:#C528CE;stroke-miterlimit:10;}
	.st8{fill:none;stroke:#C528CE;stroke-miterlimit:10;}
	.st9{fill:none;stroke:url(#SVGID_6_);stroke-miterlimit:10;}
	.st10{fill:none;stroke:url(#SVGID_7_);stroke-miterlimit:10;}
</style>
<g>
	<g>
		<g>
			<path class="st0" d="M231.54,124.61c5.21-5.22,11.73-10.44,18.99-14.24c0.04-0.01,14.26-3.55,21.23,8.7
				c6.98,12.27-5.3,30.32-5.3,30.32s11.1,6.25,8.18,19.86c0,0,12.65,3.9,6.47,15.42c0,0,12.55,8.75-1.41,29.7
				c-4.2,3.03-9.05,5.49-13.78,7.7c-22.99,10.72-47.36,19.99-66.38,35.8c-0.54,0.45-1.15,0.77-1.78,1.01
				c-3.48,1.81-8.84-0.9-9.34-4.68c-8.11-22.67-4.75-46.55,3.45-67.71C200.7,163.73,213.7,142.51,231.54,124.61z"/>
			
				<linearGradient id="SVGID_1_" gradientUnits="userSpaceOnUse" x1="-902.1721" y1="-4.4235" x2="-803.0534" y2="52.8027" gradientTransform="matrix(-0.9254 -0.3791 -0.3791 0.9254 -547.4381 -180.3095)">
				<stop  offset="0.2944" style="stop-color:#FBC62A"/>
				<stop  offset="0.9995" style="stop-color:#FB9E03"/>
			</linearGradient>
			<path class="st1" d="M281.12,184.67c6.18-11.52-6.47-15.42-6.47-15.42c2.92-13.61-8.18-19.86-8.18-19.86s12.27-18.06,5.3-30.32
				c-6.97-12.25-21.19-8.71-21.23-8.7c3.5-1.83,7.17-3.33,10.96-4.34c11.67-3.1,22.26,5.07,22.67,15.65
				c0.33,8.31-4.02,17.03-8.59,24.74c5.55,5.12,8.32,12.47,5.51,18.86c2.79,1.58,5.18,3.63,6.81,6.41c2.17,3.71,2.13,7.72,0.34,11.1
				c3.78,5.66,4.28,12.7,2.04,18.76c-1.96,5.31-5.86,9.43-10.57,12.83C293.67,193.42,281.12,184.67,281.12,184.67z"/>
			<path class="st2" d="M281.12,184.67c6.18-11.52-6.47-15.42-6.47-15.42c2.92-13.61-8.18-19.86-8.18-19.86s12.27-18.06,5.3-30.32
				c-6.97-12.25-21.19-8.71-21.23-8.7c3.5-1.83,7.17-3.33,10.96-4.34c11.67-3.1,22.26,5.07,22.67,15.65
				c0.33,8.31-4.02,17.03-8.59,24.74c5.55,5.12,8.32,12.47,5.51,18.86c2.79,1.58,5.18,3.63,6.81,6.41c2.17,3.71,2.13,7.72,0.34,11.1
				c3.78,5.66,4.28,12.7,2.04,18.76c-1.96,5.31-5.86,9.43-10.57,12.83C293.67,193.42,281.12,184.67,281.12,184.67z"/>
		</g>
	</g>
	<g>
		<path class="st0" d="M182.42,235.29c19.32-17.03,47.45-24.24,74.16-19.77c4.1,0.69,11.03,1.88,17.24,4.12
			c1.19,1.06,11.89,10.93,3.32,17.1c0,0,16.02,15.77,3.25,24.35c0,0,5.39,30.47-29.51,41.43c-14.07-3.85-26.86-13.9-37.33-24.02
			c-6.05-5.39-11.66-11.26-17.03-17.34c-6.2-5.69-12.99-11.87-15.61-19.81c-0.35-1.07-0.34-2.07-0.08-2.95
			C180.91,237.3,181.39,236.2,182.42,235.29z"/>
		<path class="st2" d="M280.39,261.09c12.77-8.59-3.25-24.35-3.25-24.35c8.58-6.17-2.12-16.04-3.32-17.1
			c7.52,2.71,13.97,6.97,13.02,13.76c-0.22,1.57-0.64,2.91-1.22,4.03c0.27,0.25,0.55,0.49,0.82,0.74c4.69,4.47,9.72,9.94,9.23,16.53
			c-0.37,5-2.74,8.66-6.15,11.04c2.56,7.94,1.91,16.64-2.42,23.78c-7.17,11.81-22.15,16.84-36.22,13
			C285.78,291.56,280.39,261.09,280.39,261.09z"/>
	</g>
	<g>
		<path class="st0" d="M157.93,242.24c19.94-18.56,48.55-26.92,75.42-22.84c4.12,0.63,11.1,1.72,17.31,3.94
			c1.18,1.09,11.74,11.3,2.92,18.06c0,0,15.79,16.33,2.67,25.76c0,0,4.68,32.2-30.85,44.71c-14.12-3.73-26.79-14.07-37.11-24.56
			c-5.97-5.57-11.5-11.66-16.77-17.98c-6.12-5.88-12.83-12.27-15.28-20.63c-0.33-1.13-0.29-2.19,0-3.13
			C156.35,244.41,156.86,243.24,157.93,242.24z"/>
		<path class="st2" d="M256.25,267.17c13.12-9.43-2.67-25.76-2.67-25.76c8.82-6.76-1.74-16.97-2.92-18.06
			c7.53,2.69,13.94,7.05,12.8,14.28c-0.26,1.68-0.72,3.1-1.34,4.31c0.27,0.26,0.55,0.5,0.81,0.77c4.62,4.63,9.57,10.3,8.91,17.32
			c-0.5,5.31-2.98,9.26-6.5,11.87c2.39,8.37,1.52,17.61-3.04,25.3c-7.54,12.71-22.81,18.43-36.91,14.7
			C260.93,299.37,256.25,267.17,256.25,267.17z"/>
	</g>
	<g>
		<g>
			<path class="st0" d="M198.56,110.16c5.42-5.44,12.21-10.87,19.77-14.83c0.04-0.01,14.85-3.7,22.11,9.06
				c7.26,12.77-5.51,31.58-5.51,31.58s11.56,6.51,8.52,20.68c0,0,13.17,4.06,6.74,16.06c0,0,13.07,9.11-1.47,30.92
				c-4.38,3.16-9.43,5.72-14.35,8.02c-23.94,11.16-49.32,20.81-69.12,37.28c-0.56,0.47-1.2,0.81-1.86,1.05
				c-3.62,1.88-9.21-0.93-9.73-4.87c-8.44-23.6-4.95-48.47,3.6-70.51C166.44,150.9,179.98,128.79,198.56,110.16z"/>
			
				<linearGradient id="SVGID_2_" gradientUnits="userSpaceOnUse" x1="-868.8853" y1="-4.9324" x2="-765.675" y2="54.6561" gradientTransform="matrix(-0.9254 -0.3791 -0.3791 0.9254 -547.4381 -180.3095)">
				<stop  offset="0.2944" style="stop-color:#FBC62A"/>
				<stop  offset="0.9995" style="stop-color:#FB9E03"/>
			</linearGradient>
			<path class="st3" d="M250.18,172.7c6.44-12-6.74-16.06-6.74-16.06c3.04-14.17-8.52-20.68-8.52-20.68s12.78-18.8,5.51-31.58
				c-7.25-12.76-22.07-9.07-22.11-9.06c3.64-1.91,7.47-3.47,11.41-4.52c12.15-3.23,23.18,5.28,23.61,16.3
				c0.34,8.65-4.19,17.73-8.94,25.76c5.78,5.33,8.67,12.99,5.74,19.63c2.9,1.65,5.4,3.78,7.09,6.68c2.26,3.86,2.22,8.04,0.36,11.55
				c3.93,5.9,4.45,13.22,2.12,19.53c-2.04,5.53-6.1,9.82-11,13.35C263.25,181.81,250.18,172.7,250.18,172.7z"/>
			<path class="st2" d="M250.18,172.7c6.44-12-6.74-16.06-6.74-16.06c3.04-14.17-8.52-20.68-8.52-20.68s12.78-18.8,5.51-31.58
				c-7.25-12.76-22.07-9.07-22.11-9.06c3.64-1.91,7.47-3.47,11.41-4.52c12.15-3.23,23.18,5.28,23.61,16.3
				c0.34,8.65-4.19,17.73-8.94,25.76c5.78,5.33,8.67,12.99,5.74,19.63c2.9,1.65,5.4,3.78,7.09,6.68c2.26,3.86,2.22,8.04,0.36,11.55
				c3.93,5.9,4.45,13.22,2.12,19.53c-2.04,5.53-6.1,9.82-11,13.35C263.25,181.81,250.18,172.7,250.18,172.7z"/>
		</g>
	</g>
	<g>
		
			<linearGradient id="SVGID_3_" gradientUnits="userSpaceOnUse" x1="-864.2921" y1="220.7241" x2="-859.483" y2="212.3946" gradientTransform="matrix(-0.9151 0.4033 0.4033 0.9151 -732.9875 381.4307)">
			<stop  offset="0" style="stop-color:#010101"/>
			<stop  offset="0.0187" style="stop-color:#020202"/>
			<stop  offset="0.3894" style="stop-color:#1B1B1B"/>
			<stop  offset="0.7271" style="stop-color:#2B2B2B"/>
			<stop  offset="1" style="stop-color:#303030"/>
		</linearGradient>
		<path class="st4" d="M138.66,233.94c1.07,2.43,3.91,3.53,6.34,2.46c2.43-1.07,3.53-3.91,2.46-6.34c-1.07-2.43-3.91-3.53-6.34-2.46
			C138.69,228.68,137.59,231.51,138.66,233.94z"/>
		
			<linearGradient id="SVGID_4_" gradientUnits="userSpaceOnUse" x1="-873.1174" y1="286.3166" x2="-852.102" y2="249.917" gradientTransform="matrix(-0.9151 0.4033 0.4033 0.9151 -732.9875 381.4307)">
			<stop  offset="0" style="stop-color:#010101"/>
			<stop  offset="0.6406" style="stop-color:#1E1E1E"/>
			<stop  offset="1" style="stop-color:#303030"/>
		</linearGradient>
		<path class="st5" d="M174.99,298.89L174.99,298.89c2.96-1.31,4.21-4.83,2.74-7.71l-20.46-33.42l-4.91,2.17l15.09,35.78
			C168.58,298.74,172.02,300.2,174.99,298.89z"/>
		
			<linearGradient id="SVGID_5_" gradientUnits="userSpaceOnUse" x1="-869.56" y1="250.1291" x2="-854.1843" y2="223.4975" gradientTransform="matrix(-0.9151 0.4033 0.4033 0.9151 -732.9875 381.4307)">
			<stop  offset="0" style="stop-color:#010101"/>
			<stop  offset="0.7234" style="stop-color:#222222"/>
			<stop  offset="1" style="stop-color:#303030"/>
		</linearGradient>
		<path class="st6" d="M141.98,238.12c0.21-3.02,3.74-4.56,6.14-2.7c2.95,2.28,6.74,6.37,9.59,13.41
			c2.54,6.29,2.99,10.96,2.75,14.14c-0.22,3-3.73,4.59-6.09,2.73c-2.75-2.17-6.28-6.09-9.29-13.12
			C142.29,246.09,141.76,241.34,141.98,238.12z"/>
	</g>
</g>
<polyline class="st7" points="240,105 200,144.46 196.18,148.23 152.36,191.47 "/>
<path class="st8" d="M201.5,107.5c0,0-19.38,20.06-10.94,46.28"/>
<line class="st8" x1="148.87" y1="219.64" x2="250.88" y2="164.5"/>
<line class="st8" x1="222.8" y1="216.9" x2="185.21" y2="200"/>
<path class="st8" d="M206.15,188.68c0,0,25.58-36.19,4.97-55.18"/>
<line class="st7" x1="180.63" y1="279.67" x2="259.14" y2="249.3"/>
<line class="st7" x1="187" y1="234.5" x2="256.97" y2="233.7"/>
<path class="st8" d="M212.2,306.4c0,0,33.59-21.69,13.2-44.05"/>
<path class="st8" d="M183,237c0,0,19.87,14.29,23,34"/>
<line class="st8" x1="248.65" y1="253.36" x2="212.5" y2="234.5"/>
<linearGradient id="SVGID_6_" gradientUnits="userSpaceOnUse" x1="97.0273" y1="215.7732" x2="142.6747" y2="215.7732">
	<stop  offset="0" style="stop-color:#010101"/>
	<stop  offset="0.7234" style="stop-color:#222222"/>
	<stop  offset="1" style="stop-color:#303030"/>
</linearGradient>
<path class="st9" d="M142.26,232c0,0-34.76-52.5-44.76-23.5"/>
<linearGradient id="SVGID_7_" gradientUnits="userSpaceOnUse" x1="135.9311" y1="206.5152" x2="152.5999" y2="206.5152">
	<stop  offset="0" style="stop-color:#010101"/>
	<stop  offset="0.7234" style="stop-color:#222222"/>
	<stop  offset="1" style="stop-color:#303030"/>
</linearGradient>
<path class="st10" d="M142.54,232.09c0,0-18.94-60.05,9.89-49.58"/>
<line class="st8" x1="268.05" y1="114.41" x2="244.5" y2="133.5"/>
<path class="st8" d="M250.5,153.5c0,0,16,0,25,13"/>
<polyline class="st8" points="284.43,188.68 273.29,197.16 250.5,214.5 "/>
<line class="st8" x1="256.5" y1="169.5" x2="273.5" y2="197.5"/>
<line class="st8" x1="261.46" y1="232" x2="265" y2="217.13"/>
<line class="st8" x1="261.5" y1="243.5" x2="284.43" y2="250.56"/>
<line class="st8" x1="278.41" y1="278.57" x2="268.05" y2="269.36"/>
</svg>
